<svg xmlns="http://www.w3.org/2000/svg" viewBox="0 0 32.28 15.43"><defs><style>.cls-1{fill:#f60;}.cls-2{fill:#1d1d3c;}</style></defs><g id="Calque_2" data-name="Calque 2"><g id="Calque_1-2" data-name="Calque 1"><path class="cls-1" d="M24.74.05h0Z"/><polygon class="cls-1" points="24.62 3.63 24.62 3.63 24.63 3.63 24.62 3.63"/><path class="cls-1" d="M29.86,4.15a5.23,5.23,0,0,0-3-3.57,5.31,5.31,0,0,0-.55-.23l-.15,0a5.09,5.09,0,0,0-.77-.19,2.13,2.13,0,0,0-.25,0,4.41,4.41,0,0,0-.52,0,4.36,4.36,0,0,0-.51,0,1.9,1.9,0,0,0-.25,0,4.94,4.94,0,0,0-.78.19l-.14,0c-.19.06-.37.15-.56.23a5.26,5.26,0,0,0-3,3.57L17.92,10a1.89,1.89,0,0,1-1.17,1.38,2.08,2.08,0,0,1-.66.11H13.77v3.93h2.32a4,4,0,0,0,.49,0,5.92,5.92,0,0,0,3.77-1.77A5.25,5.25,0,0,0,21.43,12a14.26,14.26,0,0,0,.62-2.14l1.35-5.3a1.23,1.23,0,0,1,1.22-1h0a1.24,1.24,0,0,1,1.23,1l1.59,7.87a3.93,3.93,0,0,0,3.84,3,2.76,2.76,0,0,0,1-.15Z"/><path class="cls-2" d="M12.92,11.58h-7a2,2,0,1,1,0-4h5.68a1.28,1.28,0,0,0,1.27-1.27h0V0H9V2.86c0,1.06.15.91-.91.91H5.87A5.88,5.88,0,0,0,0,9.56H0v.07H0a5.88,5.88,0,0,0,5.87,5.8h7.06Z"/></g></g></svg>