<svg xmlns="http://www.w3.org/2000/svg" viewBox="0 0 45.26 42.63"><defs><style>.cls-1{fill:#242653;}</style></defs><g id="Calque_2" data-name="Calque 2"><g id="Calque_1-2" data-name="Calque 1"><path class="cls-1" d="M40.31,27.77a5,5,0,0,0-4.82,3.71H31.78L30.16,26.2A1.22,1.22,0,0,0,29,25.29h-5.1V21.58h8.24a8.24,8.24,0,1,0-.86-16.44A10.73,10.73,0,0,0,12,7.19a7.2,7.2,0,0,0,.14,14.39h9.29v3.71H16.25a1.28,1.28,0,0,0-1.2.91l-1.61,5.28H9.77a5,5,0,1,0,0,2.48h4.62a1.27,1.27,0,0,0,1.19-.91l1.62-5.28h4.19v5.09a5,5,0,1,0,2.48,0V27.77h4.19l1.62,5.28a1.22,1.22,0,0,0,1.19.91h4.62a5,5,0,1,0,4.82-6.19ZM7.38,14.38A4.73,4.73,0,0,1,12.1,9.67c.14,0,.29.05.62.05a1.26,1.26,0,0,0,1.38-1A8.27,8.27,0,0,1,29.54,7a1.25,1.25,0,0,0,1.38.67,5.55,5.55,0,0,1,1.24-.14,5.76,5.76,0,1,1,0,11.52H12.05a4.62,4.62,0,0,1-4.67-4.67ZM5,35.2a2.48,2.48,0,1,1,2.48-2.48A2.46,2.46,0,0,1,5,35.2Zm20.16,2.47a2.48,2.48,0,1,1-2.48-2.47A2.47,2.47,0,0,1,25.11,37.67Zm15.2-2.47a2.48,2.48,0,1,1,2.47-2.48A2.49,2.49,0,0,1,40.31,35.2Z"/></g></g></svg>