<svg width="70" height="70" viewBox="0 0 70 70" fill="none" xmlns="http://www.w3.org/2000/svg">
<g clip-path="url(#clip0_201_224)">
<rect width="70" height="70" fill="white"/>
<path d="M41.6063 34.7114C41.6063 34.7114 41.6063 34.6625 41.6063 34.6415V34.5507C41.609 34.5275 41.609 34.504 41.6063 34.4808C41.6091 34.4529 41.6091 34.4248 41.6063 34.397C41.6037 34.3761 41.6037 34.355 41.6063 34.3341L41.5714 34.2642L41.5295 34.1874L41.4875 34.1175V34.0756L41.4386 34.0127L41.243 33.9079C41.2285 33.8899 41.2121 33.8735 41.1941 33.859L35.7723 29.1499C35.6412 29.0359 35.4889 28.9488 35.3241 28.8938C35.1594 28.8387 34.9853 28.8168 34.812 28.8291C34.6387 28.8414 34.4696 28.8878 34.3142 28.9657C34.1589 29.0435 34.0205 29.1512 33.9068 29.2826C33.6988 29.5205 33.5845 29.826 33.5854 30.142C33.5859 30.3245 33.624 30.5049 33.6973 30.672C33.7707 30.8391 33.8777 30.9893 34.0116 31.1132L36.7714 33.5096H28.9811C27.6023 33.5078 26.2801 32.9612 25.3025 31.9888C24.3249 31.0165 23.7712 29.6972 23.762 28.3184V24.4408C24.7787 24.1249 25.6485 23.455 26.2135 22.5527C26.7786 21.6503 27.0014 20.5753 26.8417 19.5227C26.6819 18.4702 26.1502 17.5097 25.3428 16.8157C24.5355 16.1216 23.5061 15.74 22.4415 15.74C21.3768 15.74 20.3475 16.1216 19.5401 16.8157C18.7328 17.5097 18.201 18.4702 18.0413 19.5227C17.8815 20.5753 18.1044 21.6503 18.6694 22.5527C19.2345 23.455 20.1043 24.1249 21.121 24.4408V28.3184C21.1163 30.2467 21.8256 32.1083 23.1122 33.5446H15.3708C15.0557 32.5273 14.3862 31.6568 13.484 31.091C12.5817 30.5252 11.5065 30.3017 10.4535 30.4611C9.40057 30.6205 8.43965 31.1521 7.74523 31.9595C7.05082 32.767 6.66895 33.7966 6.66895 34.8616C6.66895 35.9265 7.05082 36.9562 7.74523 37.7636C8.43965 38.5711 9.40057 39.1027 10.4535 39.2621C11.5065 39.4214 12.5817 39.198 13.484 38.6322C14.3862 38.0664 15.0557 37.1959 15.3708 36.1786H23.1052C21.8235 37.6173 21.117 39.4779 21.121 41.4047V45.2684C20.1022 45.5812 19.2297 46.2496 18.6626 47.1519C18.0955 48.0542 17.8716 49.1303 18.0316 50.1839C18.1917 51.2375 18.7251 52.1986 19.5346 52.8917C20.3441 53.5849 21.3758 53.964 22.4415 53.96C23.6213 53.9582 24.7522 53.4887 25.5865 52.6545C26.4207 51.8202 26.8902 50.6893 26.8921 49.5094C26.8901 48.5613 26.5854 47.6386 26.0224 46.8757C25.4594 46.1129 24.6674 45.5498 23.762 45.2684V41.3838C23.7638 39.9995 24.3141 38.6723 25.2923 37.6928C26.2704 36.7134 27.5969 36.1613 28.9811 36.1576H36.7714L34.0116 38.5541C33.8691 38.6786 33.7548 38.8322 33.6765 39.0045C33.5982 39.1769 33.5576 39.3639 33.5575 39.5532C33.5566 39.8692 33.6708 40.1748 33.8789 40.4126C34.1094 40.6764 34.4349 40.8384 34.7843 40.8633C35.1337 40.8881 35.4788 40.7739 35.7444 40.5454L41.1592 35.8362C41.1808 35.8238 41.1998 35.8072 41.215 35.7873C41.2323 35.7771 41.2468 35.7627 41.257 35.7454L41.3059 35.6825L41.3478 35.6336L41.3897 35.5638L41.4386 35.4799L41.4736 35.417C41.4736 35.417 41.4736 35.3611 41.4736 35.3192C41.4736 35.2773 41.4736 35.2703 41.4736 35.2424V35.1725C41.4736 35.1376 41.4736 35.1096 41.4736 35.0817C41.4736 35.0537 41.4736 35.0188 41.4736 34.9978V34.9419C41.477 34.9188 41.477 34.8952 41.4736 34.8721C41.4773 34.8489 41.4773 34.8253 41.4736 34.8022L41.6063 34.7114Z" fill="#242653"/>
<path d="M45.8822 39.9724L53.4838 43.4169C53.6597 43.5043 53.8534 43.5498 54.0497 43.5498C54.2461 43.5498 54.4398 43.5043 54.6157 43.4169L62.2103 39.9724C62.4456 39.8662 62.6453 39.6944 62.7853 39.4775C62.9254 39.2606 62.9999 39.0079 62.9999 38.7498V29.8136C62.9999 29.5554 62.9254 29.3028 62.7853 29.0859C62.6453 28.869 62.4456 28.6971 62.2103 28.5909L54.5668 25.1394C54.3979 25.0535 54.2112 25.0088 54.0218 25.0088C53.8324 25.0088 53.6456 25.0535 53.4768 25.1394L45.8822 28.5909C45.6476 28.6975 45.449 28.8696 45.3101 29.0866C45.1712 29.3035 45.0981 29.556 45.0996 29.8136V38.7498C45.0981 39.0073 45.1712 39.2598 45.3101 39.4768C45.449 39.6938 45.6476 39.8659 45.8822 39.9724ZM47.7616 31.8607L52.6943 34.1315V40.1471L47.7616 37.9183V31.8607ZM55.3074 40.1471V34.1315L60.2401 31.8607V37.8764L55.3074 40.1471ZM54.0008 27.8014L58.4095 29.8136L54.0008 31.8118L49.5922 29.8066L54.0008 27.8014Z" fill="#FF6600"/>
</g>
<defs>
<clipPath id="clip0_201_224">
<rect width="70" height="70" fill="white"/>
</clipPath>
</defs>
</svg>
