<svg xmlns="http://www.w3.org/2000/svg" viewBox="0 0 80.61 54.67"><defs><style>.cls-1{fill:#242653;}.cls-2{fill:#f60;}</style></defs><g id="Calque_2" data-name="Calque 2"><g id="Calque_1-2" data-name="Calque 1"><path class="cls-1" d="M50,27.15s0-.07,0-.1v0l0-.13a.44.44,0,0,0,0-.1.61.61,0,0,0,0-.12v0a.36.36,0,0,1,0-.09l-.05-.1-.06-.11,0,0-.06-.1,0-.06-.07-.09L49.48,26l0,0a.46.46,0,0,0-.07-.07l-7.76-6.74a1.89,1.89,0,0,0-2.67.19,1.86,1.86,0,0,0-.46,1.23A1.9,1.9,0,0,0,39.13,22l3.95,3.43H31.93A7.48,7.48,0,0,1,24.46,18V12.45a6.37,6.37,0,1,0-3.78,0V18a11.17,11.17,0,0,0,2.85,7.48H12.45a6.37,6.37,0,1,0,0,3.77H23.52a11.21,11.21,0,0,0-2.84,7.48v5.53a6.36,6.36,0,0,0,1.89,12.44h0a6.38,6.38,0,0,0,6.37-6.37,6.37,6.37,0,0,0-4.48-6.07V36.7a7.49,7.49,0,0,1,7.47-7.48H43.08l-3.95,3.43a1.9,1.9,0,0,0-.65,1.43,1.86,1.86,0,0,0,.46,1.23,1.9,1.9,0,0,0,2.67.19l7.75-6.74a.27.27,0,0,0,.08-.07l0,0a.17.17,0,0,0,.06-.06l.07-.09.06-.07.06-.1.07-.12.05-.09s0-.08,0-.14,0-.07,0-.11l0-.1c0-.05,0-.09,0-.13s0-.09,0-.12v-.08a.34.34,0,0,0,0-.1.31.31,0,0,0,0-.1Z"/><path class="cls-2" d="M56.12,34.68,67,39.61a1.82,1.82,0,0,0,1.62,0l10.87-4.93a1.92,1.92,0,0,0,1.13-1.75V20.14a1.92,1.92,0,0,0-1.13-1.75L68.55,13.45a1.72,1.72,0,0,0-1.56,0L56.12,18.39A1.91,1.91,0,0,0,55,20.14V32.93a1.91,1.91,0,0,0,1.12,1.75Zm2.69-11.61,7.06,3.25v8.61l-7.06-3.19Zm10.8,11.86V26.32l7.06-3.25v8.61ZM67.74,17.26l6.31,2.88L67.74,23l-6.31-2.87Z"/></g></g></svg>