<svg xmlns="http://www.w3.org/2000/svg" viewBox="0 0 54.18 54.18"><defs><style>.cls-1{fill:#242653;}.cls-2{fill:#f60;}</style></defs><g id="Calque_2" data-name="Calque 2"><g id="Calque_1-2" data-name="Calque 1"><path class="cls-1" d="M19.2,0A10.6,10.6,0,1,0,29.8,10.6,10.62,10.62,0,0,0,19.2,0Zm6.6,10.6A6.6,6.6,0,1,1,19.2,4,6.61,6.61,0,0,1,25.8,10.6Z"/><path class="cls-1" d="M23.51,45.88H4V42.14a15,15,0,0,1,1.51-6.58,15.39,15.39,0,0,1,4.32-5.29,15.75,15.75,0,0,1,6.27-2.95,16,16,0,0,1,7,0,2,2,0,0,0,2.4-1.51,2,2,0,0,0-.26-1.51A2,2,0,0,0,24,23.43a20.15,20.15,0,0,0-8.71,0,19.88,19.88,0,0,0-7.87,3.7A19.43,19.43,0,0,0,1.92,33.8,18.92,18.92,0,0,0,0,42.15v5.73a2,2,0,0,0,2,2H23.51a2,2,0,0,0,0-4Z"/><path class="cls-2" d="M54.17,31.27a3.69,3.69,0,0,0,0-.47,3.77,3.77,0,0,0-1.28-2.61,3.67,3.67,0,0,0-2.63-.94h-19a3.87,3.87,0,0,0-2.93,1.1,3.74,3.74,0,0,0-1.11,2.81v5A19.09,19.09,0,0,0,39.38,54a4,4,0,0,0,1.33.23A4,4,0,0,0,42,54l.15-.06a19.05,19.05,0,0,0,12-17.72Zm-4,0v4.92a15,15,0,0,1-9.47,14,15,15,0,0,1-9.47-14V31.25Z"/></g></g></svg>