<svg xmlns="http://www.w3.org/2000/svg" viewBox="0 0 40.51 43.8"><defs><style>.cls-1{fill:#242653;}</style></defs><g id="Calque_2" data-name="Calque 2"><g id="Calque_1-2" data-name="Calque 1"><path class="cls-1" d="M39.12,24.13l1.38-7.78a1.57,1.57,0,0,0-.28-1.1h0a1.21,1.21,0,0,0-1-.51l-4.29-.23a10.44,10.44,0,0,0,.79-4,10.55,10.55,0,0,0-21.1,0,10.79,10.79,0,0,0,.41,3l-4.7-.23L9.54,8.06A1.35,1.35,0,0,0,8.16,6.91H1.38a1.38,1.38,0,0,0,0,2.76H7l3.64,24a5.12,5.12,0,0,0,1.43,2.81,4.32,4.32,0,0,0-1.29,3,4.24,4.24,0,1,0,8.48,0A3.88,3.88,0,0,0,19,38.09h9.91a3.88,3.88,0,0,0-.28,1.47,4.24,4.24,0,1,0,4.24-4.23H15.71a2.38,2.38,0,0,1-2.35-2L13,31.09H30.78A8.5,8.5,0,0,0,39.12,24.13ZM32.9,38a1.48,1.48,0,0,1,1.47,1.47,1.48,1.48,0,1,1-2.95,0A1.49,1.49,0,0,1,32.9,38ZM15.07,38a1.48,1.48,0,0,1,1.47,1.47A1.51,1.51,0,0,1,15.07,41a1.48,1.48,0,1,1,0-3ZM25.16,2.76a7.79,7.79,0,1,1-7.79,7.79A7.8,7.8,0,0,1,25.16,2.76ZM12.62,28.33,10.78,16.07l5.58.28a10.5,10.5,0,0,0,17,.83l4.19.23-1.1,6.22a5.73,5.73,0,0,1-5.62,4.7Zm8.62-16.59h5l-.88.88a1.17,1.17,0,0,0,0,1.66,1.24,1.24,0,0,0,.83.37,1.16,1.16,0,0,0,.83-.37l2.9-2.9a1.17,1.17,0,0,0,0-1.66L27,6.82a1.17,1.17,0,0,0-1.66,0,1.16,1.16,0,0,0,0,1.65l.88.88h-5a1.2,1.2,0,1,0,0,2.39Z"/></g></g></svg>