<svg width="70" height="70" viewBox="0 0 70 70" fill="none" xmlns="http://www.w3.org/2000/svg">
<rect width="70" height="70" fill="white"/>
<path fill-rule="evenodd" clip-rule="evenodd" d="M23.5309 17.9493C26.8577 15.7265 30.7689 14.54 34.77 14.54C40.1334 14.5464 45.2753 16.6798 49.0677 20.4723C52.8602 24.2648 54.9936 29.4067 55 34.77C55 38.7711 53.8136 42.6824 51.5907 46.0092C49.3678 49.336 46.2083 51.9289 42.5117 53.46C38.8152 54.9912 34.7476 55.3918 30.8234 54.6113C26.8991 53.8307 23.2945 51.904 20.4653 49.0747C17.6361 46.2455 15.7093 42.6409 14.9288 38.7167C14.1482 34.7925 14.5488 30.7249 16.08 27.0283C17.6111 23.3318 20.2041 20.1722 23.5309 17.9493ZM25.2299 49.0488C28.0544 50.9336 31.3744 51.9383 34.77 51.9359C39.3187 51.9264 43.6781 50.1143 46.8933 46.8968C50.1086 43.6793 51.9175 39.3187 51.9239 34.77C51.9239 31.3744 50.9168 28.0551 49.0301 25.2319C47.1433 22.4087 44.4617 20.2085 41.3243 18.9096C38.1869 17.6107 34.7348 17.2714 31.4046 17.9348C28.0744 18.5981 25.0158 20.2342 22.6156 22.6361C20.2153 25.038 18.5814 28.0978 17.9204 31.4285C17.2594 34.7591 17.6011 38.211 18.9022 41.3475C20.2033 44.4839 22.4054 47.1641 25.2299 49.0488ZM25.976 31.9834L32.1885 38.1839L43.5762 26.7962L46.2301 29.4622L33.5155 42.1888C33.1633 42.5411 32.6866 42.7405 32.1885 42.7438C31.6868 42.7411 31.2061 42.5418 30.8495 42.1888L23.3221 34.6493L25.976 31.9834Z" fill="#242653"/>
</svg>
