<svg width="15" height="15" viewBox="0 0 15 15" fill="none" xmlns="http://www.w3.org/2000/svg">
<path d="M8.7308 7.48974L14.7438 1.4862C14.9043 1.32035 14.9941 1.09872 14.9941 0.86806C14.9941 0.637402 14.9043 0.415767 14.7438 0.249921C14.5776 0.0896134 14.3557 0 14.1246 0C13.8936 0 13.6716 0.0896134 13.5055 0.249921L7.49852 6.25346L1.48557 0.264741C1.40449 0.183705 1.30821 0.119418 1.20223 0.0755563C1.09626 0.031695 0.982657 0.00911995 0.867936 0.00911995C0.753215 0.00911995 0.639624 0.031695 0.533647 0.0755563C0.42767 0.119418 0.33139 0.183705 0.250313 0.264741C0.089754 0.430587 0 0.652222 0 0.88288C0 1.11354 0.089754 1.33518 0.250313 1.50103L6.26326 7.50456L0.250313 13.5081C0.089754 13.6739 0 13.8956 0 14.1262C0 14.3569 0.089754 14.5785 0.250313 14.7444C0.33139 14.8254 0.42767 14.8897 0.533647 14.9336C0.639624 14.9774 0.753215 15 0.867936 15C0.982657 15 1.09626 14.9774 1.20223 14.9336C1.30821 14.8897 1.40449 14.8254 1.48557 14.7444L7.49852 8.74084L13.5115 14.7444C13.6776 14.9047 13.8996 14.9943 14.1306 14.9943C14.3616 14.9943 14.5836 14.9047 14.7497 14.7444C14.9102 14.5785 15 14.3569 15 14.1262C15 13.8956 14.9102 13.6739 14.7497 13.5081L8.7308 7.48974Z" fill="#1E1D3B"/>
</svg>
