<svg xmlns="http://www.w3.org/2000/svg" viewBox="0 0 68.92 68.92"><defs><style>.cls-1{fill:#242653;}.cls-2{fill:#f60;}</style></defs><g id="Calque_2" data-name="Calque 2"><g id="Calque_1-2" data-name="Calque 1"><path class="cls-1" d="M18.11,34.38v-.07a.22.22,0,0,1,0-.08v0a.65.65,0,0,0,0-.11.19.19,0,0,0,0-.07l0-.11h0l0-.08a.2.2,0,0,0,0-.08l0-.09v0l-.06-.08,0,0-.06-.08,0,0,0,0-.05-.06-6-5.47A1.41,1.41,0,0,0,9.49,28a1.57,1.57,0,0,0-.36,1,1.53,1.53,0,0,0,.51,1.16l3.07,2.79H1.89v0H1.42a1.41,1.41,0,0,0-1,.46A1.41,1.41,0,0,0,0,34.48a1.58,1.58,0,0,0,.42,1,1.55,1.55,0,0,0,1.16.5h.31v0H12.71l-1.83,1.66L9.64,38.78a1.53,1.53,0,0,0-.51,1.16,1.57,1.57,0,0,0,.36,1,1.41,1.41,0,0,0,1,.52,1.38,1.38,0,0,0,1-.37l6-5.47.05-.06,0,0,0,0,.06-.07,0-.06.05-.08a.31.31,0,0,0,.05-.1l0-.08a1,1,0,0,0,0-.1l0-.1a.19.19,0,0,0,0-.08.44.44,0,0,0,0-.1s0-.07,0-.1v-.23Z"/><path class="cls-1" d="M50.81,34.54v.06s0,.06,0,.09v0s0,.06,0,.1a.24.24,0,0,1,0,.08l0,.1v0l0,.08a.59.59,0,0,1,0,.08l.05.09h0a.56.56,0,0,0,0,.08l0,0,.05.07,0,.05,0,0,.06,0,6,5.48a1.42,1.42,0,0,0,1.07.37,1.45,1.45,0,0,0,1-.52,1.58,1.58,0,0,0-.15-2.17L56.21,36H67v0h.47a1.41,1.41,0,0,0,1-.45,1.44,1.44,0,0,0,.38-1.07,1.57,1.57,0,0,0-.41-1,1.59,1.59,0,0,0-1.16-.51H67v0H56.21L58,31.26l1.24-1.12A1.58,1.58,0,0,0,59.79,29a1.6,1.6,0,0,0-.36-1,1.45,1.45,0,0,0-2.08-.15l-6,5.48-.06.05,0,0,0,0-.06.08,0,.06s0,0,0,.08l-.06.09a.41.41,0,0,0,0,.08.58.58,0,0,0,0,.11l0,.09a.37.37,0,0,1,0,.09s0,.07,0,.1,0,.07,0,.1v.06a.28.28,0,0,0,0,.09A.25.25,0,0,0,50.81,34.54Z"/><path class="cls-2" d="M24.82,40.51,34,44.67a1.53,1.53,0,0,0,1.36,0l9.15-4.16a1.61,1.61,0,0,0,1-1.47V28.27a1.61,1.61,0,0,0-1-1.47l-9.2-4.15a1.44,1.44,0,0,0-1.31,0L24.82,26.8a1.61,1.61,0,0,0-.95,1.47V39a1.61,1.61,0,0,0,.95,1.47Zm2.26-9.77L33,33.48v7.24L27.08,38Zm9.09,10V33.48l5.95-2.74V38ZM34.6,25.85l5.31,2.42L34.6,30.69l-5.31-2.42Z"/><path class="cls-1" d="M34.38,50.81h-.17l-.11,0-.07,0-.11,0h0l-.08,0-.08,0-.09.05h0l-.08,0,0,0-.08.05,0,0,0,0-.06.06-5.47,6A1.42,1.42,0,0,0,28,59.43a1.57,1.57,0,0,0,2.16-.15l2.79-3.07V67h0v.47a1.49,1.49,0,0,0,.45,1,1.44,1.44,0,0,0,1.07.38A1.55,1.55,0,0,0,36,67.34V67h0V56.21L37.65,58l1.13,1.24a1.57,1.57,0,0,0,2.16.15,1.45,1.45,0,0,0,.15-2.08l-5.47-6-.06-.06,0,0s0,0,0,0l-.07-.06-.06,0-.08,0-.1-.05-.08,0-.1,0-.1,0-.08,0-.1,0h-.33Z"/><path class="cls-1" d="M34.54,18.11h.06l.09,0h0l.1,0,.08,0,.1,0h0l.08,0,.08,0,.09,0h0l.08-.06,0,0,.07-.06.05,0,0,0a.12.12,0,0,0,0-.05l5.48-6a1.39,1.39,0,0,0,.37-1.06,1.43,1.43,0,0,0-.52-1,1.6,1.6,0,0,0-1-.36,1.56,1.56,0,0,0-1.16.51L36,12.71V1.89h0V1.42a1.37,1.37,0,0,0-.45-1A1.45,1.45,0,0,0,34.43,0a1.58,1.58,0,0,0-1,.42,1.56,1.56,0,0,0-.51,1.16v.31h0V12.71l-1.66-1.83L30.14,9.64A1.54,1.54,0,0,0,29,9.13a1.6,1.6,0,0,0-1,.36,1.44,1.44,0,0,0-.52,1,1.42,1.42,0,0,0,.37,1l5.48,6a.12.12,0,0,0,.05.05l0,0,0,0,.08.06.06,0,.08.05.09.05.08,0,.11,0,.09,0,.09,0,.1,0,.1,0h.23Z"/></g></g></svg>