<svg xmlns="http://www.w3.org/2000/svg" viewBox="0 0 63.12 36.85"><defs><style>.cls-1{fill:#242653;}</style></defs><g id="Calque_2" data-name="Calque 2"><g id="Calque_1-2" data-name="Calque 1"><path class="cls-1" d="M18.91,4.06l5.36,7.28,2.41-.87L20.05.74A1.34,1.34,0,0,0,18.89,0a1.29,1.29,0,0,0-1.13.69L.1,28.45a1.21,1.21,0,0,0,.11,1.16,1.28,1.28,0,0,0,1.07.6h19V27.67h-17Z"/><path class="cls-1" d="M61.29,8.8a13.16,13.16,0,0,0-22.37-.44l-.24.36,2.37.86.16-.21a10.7,10.7,0,1,1,9.18,16.84l-.33,0v2.46l.35,0A13.17,13.17,0,0,0,61.29,8.8Z"/><path class="cls-1" d="M47.21,13.08,36.44,9.17a2.9,2.9,0,0,0-1.93,0L23.74,13.08a2.84,2.84,0,0,0-1.36,1,2.88,2.88,0,0,0-.51,1.63V29.68a2.79,2.79,0,0,0,.47,1.57,2.86,2.86,0,0,0,1.26,1l10.84,4.55h2.07L47.34,32.3a2.83,2.83,0,0,0,1.27-1,2.78,2.78,0,0,0,.47-1.56V15.74a2.8,2.8,0,0,0-.52-1.63A2.77,2.77,0,0,0,47.21,13.08ZM34.3,34.24,24.22,30V16.7L34.3,20.54Zm1.12-15.79-9.56-3.64,9.61-3.49,9.61,3.48ZM46.73,30,36.65,34.24V20.5l10.08-3.8Z"/></g></g></svg>