<svg width="70" height="70" viewBox="0 0 70 70" fill="none" xmlns="http://www.w3.org/2000/svg">
<rect width="70" height="70" fill="white"/>
<path fill-rule="evenodd" clip-rule="evenodd" d="M53.6265 30.3873C54.2165 30.6774 54.6703 31.1857 54.8921 31.8045C55.0161 32.1761 55.0336 32.575 54.9427 32.9561V37.1319C54.9616 37.6651 54.8164 38.1912 54.5267 38.6393C54.237 39.0873 53.8168 39.4357 53.3228 39.6374L49.526 41.004L51.2345 44.5851C51.4604 45.0709 51.5341 45.6136 51.446 46.142C51.3579 46.6704 51.1122 47.1598 50.741 47.5461L47.3871 50.8868C46.9933 51.1976 46.5209 51.393 46.0226 51.4511C45.5243 51.5092 45.0196 51.4277 44.5649 51.2158L41.0971 49.5961L39.6796 53.5062C39.4579 53.9545 39.1152 54.3318 38.6903 54.5957C38.2654 54.8595 37.7752 54.9993 37.275 54.9994H32.7948C32.2858 55.0104 31.7842 54.8757 31.3492 54.6112C30.9141 54.3466 30.5638 53.9632 30.3395 53.5062L30.2636 53.329L28.9094 49.5961L25.4037 51.2285C24.9198 51.4532 24.3791 51.5263 23.8529 51.4383C23.3266 51.3502 22.8393 51.105 22.4549 50.735L19.1137 47.369C18.8049 46.9741 18.6118 46.5011 18.5559 46.0028C18.5 45.5046 18.5836 45.0007 18.7973 44.5471L20.4046 41.0926L16.5066 39.6627C16.0471 39.4402 15.661 39.0908 15.3941 38.6557C15.1272 38.2206 14.9906 37.7181 15.0005 37.2078V32.7283C15 32.2297 15.1397 31.741 15.4038 31.3181C15.6679 30.8952 16.0457 30.5551 16.4939 30.3367L16.6711 30.2608L20.4679 28.9068L18.8353 25.4016C18.6087 24.9181 18.5346 24.3772 18.6228 23.8506C18.7109 23.324 18.9572 22.8366 19.3288 22.4532L22.6953 19.1126C23.0872 18.8028 23.5574 18.6081 24.0535 18.55C24.5496 18.4919 25.0521 18.5727 25.505 18.7835L28.9727 20.4033L30.4028 16.4932C30.6225 16.0459 30.9629 15.669 31.3856 15.4052C31.8083 15.1413 32.2965 15.0009 32.7948 15H37.2244C37.7246 15 38.2148 15.1399 38.6397 15.4037C39.0646 15.6675 39.4072 16.0449 39.629 16.4932L39.705 16.6703L41.0465 20.4666L44.6534 18.8215C45.1371 18.6012 45.6759 18.5316 46.1996 18.6219C46.7233 18.7122 47.2077 18.9581 47.5896 19.3277L50.9308 22.6937C51.2446 23.0834 51.442 23.5539 51.5002 24.0508C51.5584 24.5478 51.4751 25.0511 51.2599 25.5028L49.6399 28.97L53.6265 30.3873ZM48.0706 38.005L51.7028 36.7396V33.2598L48.2224 31.9944C47.6167 31.7509 47.1153 31.3032 46.805 30.729L46.5392 30.324L46.4506 30.0077C46.2481 29.4258 46.2481 28.7927 46.4506 28.2108V28.0336L48.0832 24.5411L45.552 22.0103L41.7552 23.706C41.169 23.9085 40.5317 23.9085 39.9454 23.706L39.5278 23.5288L39.3379 23.4276C38.8511 23.1653 38.4444 22.7762 38.1609 22.3014L37.9837 21.9471L36.7181 18.3659H33.0479L31.7823 21.9471C31.5716 22.5248 31.1577 23.0062 30.618 23.301C30.5058 23.3922 30.3824 23.4687 30.251 23.5288L29.8839 23.6427C29.302 23.8452 28.6687 23.8452 28.0868 23.6427L27.9096 23.5794L24.4165 21.9471L21.8854 24.4779L23.6319 28.1728C23.8214 28.7568 23.8214 29.3858 23.6319 29.9697L23.442 30.3999L23.3408 30.5771C23.0822 31.0666 22.6921 31.4741 22.2144 31.7539L21.86 31.9311L18.2784 33.1965V36.8661L21.86 38.1315C22.4317 38.358 22.9123 38.7674 23.2269 39.2958C23.3098 39.4111 23.3819 39.534 23.442 39.6627L23.5053 39.7259L23.6319 40.093C23.8214 40.6769 23.8214 41.3058 23.6319 41.8898L23.5559 42.067L21.9233 45.5594L24.4545 48.0902L28.1247 46.382C28.7088 46.1925 29.3378 46.1925 29.9219 46.382L30.3522 46.5718L30.5294 46.673C30.8477 46.821 31.1329 47.0319 31.3678 47.2928C31.6027 47.5537 31.7824 47.8594 31.8962 48.1915L33.1618 51.7346H36.8321L38.0977 48.1536C38.4342 47.4821 38.9687 46.93 39.629 46.5718L39.705 46.5085L40.072 46.382C40.6517 46.1926 41.2767 46.1926 41.8565 46.382L42.0337 46.4579L45.5267 48.0902L48.0579 45.5594L46.2734 41.7632C46.0839 41.1793 46.0839 40.5503 46.2734 39.9664L46.4 39.5994L46.4886 39.5109C46.6339 39.1642 46.8495 38.8514 47.1218 38.5922C47.3941 38.3331 47.7171 38.1331 48.0706 38.005ZM30.238 27.8731C31.6475 26.9313 33.3047 26.4286 35 26.4286C37.2722 26.432 39.4504 27.3362 41.0571 28.9429C42.6638 30.5496 43.568 32.7278 43.5714 35.0001C43.5714 36.6953 43.0687 38.3525 42.1269 39.7621C41.185 41.1716 39.8464 42.2702 38.2801 42.919C36.7139 43.5677 34.9905 43.7375 33.3278 43.4067C31.6651 43.076 30.1378 42.2597 28.9391 41.0609C27.7404 39.8622 26.924 38.335 26.5933 36.6723C26.2625 35.0096 26.4323 33.2861 27.081 31.7199C27.7298 30.1536 28.8284 28.8149 30.238 27.8731ZM37.0004 39.8435C37.6343 39.5801 38.2099 39.1938 38.6939 38.7069C39.5419 37.8539 40.0681 36.7333 40.183 35.536C40.2979 34.3387 39.9944 33.1386 39.3241 32.1398C38.6538 31.1411 37.6582 30.4053 36.5066 30.058C35.355 29.7106 34.1187 29.773 33.0079 30.2345C31.8971 30.6961 30.9806 31.5282 30.4142 32.5894C29.8479 33.6505 29.6667 34.8751 29.9016 36.0548C30.1364 37.2345 30.7727 38.2964 31.7023 39.0597C32.6318 39.8231 33.7972 40.2408 35 40.2417C35.6865 40.2423 36.3664 40.1069 37.0004 39.8435Z" fill="#242653"/>
</svg>
