<svg width="70" height="70" viewBox="0 0 70 70" fill="none" xmlns="http://www.w3.org/2000/svg">
<rect width="70" height="70" fill="white"/>
<path d="M52.0597 24.5057L35.6037 17.1586C35.3975 17.0577 35.1712 17.0036 34.9412 17C34.7336 16.9988 34.5287 17.0459 34.3428 17.1375L17.9403 24.5375C17.6593 24.6665 17.4214 24.8724 17.2548 25.1309C17.0881 25.3894 16.9997 25.6897 17 25.9963V45.0249C16.9997 45.3315 17.0881 45.6317 17.2548 45.8902C17.4214 46.1487 17.6593 46.3547 17.9403 46.4838L34.2573 53.8203C34.4646 53.9295 34.6958 53.9866 34.9305 53.9866C35.1653 53.9866 35.3965 53.9295 35.6037 53.8203L52.0169 46.4203C52.2964 46.2892 52.5329 46.0827 52.6992 45.8247C52.8655 45.5667 52.955 45.2675 52.9573 44.9615V25.9329C52.953 25.6367 52.8672 25.3473 52.709 25.0958C52.5509 24.8444 52.3264 24.6403 52.0597 24.5057V24.5057ZM33.3598 49.9617L20.1736 44.0629V28.3537L33.3598 34.3583V49.9617ZM34.8985 31.6414L22.3108 25.9646L34.8985 20.2877L47.4969 25.9646L34.8985 31.6414ZM49.634 44.01L36.4479 50.0146V34.3583L49.634 28.3537V44.01Z" fill="#242653"/>
</svg>
