<svg width="70" height="70" viewBox="0 0 70 70" fill="none" xmlns="http://www.w3.org/2000/svg">
<path d="M30.4826 10C26.2687 9.99336 22.1644 11.3464 18.7762 13.8593C15.388 16.3722 12.8956 19.9115 11.6673 23.9544L6 53H18.1563L19.5731 45.3265H30.426L32.5229 34.1858H21.6417L23.0018 26.2849C23.3885 24.8151 24.2479 23.5143 25.4468 22.5842C26.6456 21.6542 28.1169 21.1468 29.6325 21.1408H34.9598L37 10H30.4826Z" fill="white"/>
<path d="M45.6315 10H41.429L41.262 10.9259L39.3973 21.3426H46.9395C48.4536 21.5789 49.8398 22.3599 50.857 23.5495C51.874 24.7392 52.4576 26.2621 52.5058 27.853C52.4629 29.4456 51.8812 30.9716 50.8632 32.1624C49.8451 33.3532 48.4558 34.1326 46.9395 34.3634H37.0038L36.8369 35.2894L35 45.706L43.3493 60H56.6248L48.2754 45.5324C52.8244 44.8929 56.9916 42.5466 59.9923 38.9352C60.5142 38.3017 60.9976 37.6349 61.4395 36.9387C61.7457 36.4468 62.024 35.9259 62.3023 35.4051L62.5528 34.7106C62.9101 33.9191 63.1987 33.096 63.4155 32.2512C63.5786 31.6731 63.6997 31.0831 63.7774 30.4861C63.9201 29.587 63.9944 28.6775 64 27.7662C64 27.1875 64 26.5799 64 26.0012C63.5848 22.5078 62.1579 19.2282 59.9088 16.5972L59.3522 15.787C58.9347 15.353 58.4894 15.0058 58.0163 14.6007L57.7658 14.3981C56.4834 13.3383 55.0701 12.4624 53.5633 11.794C51.0744 10.6092 48.3687 9.99725 45.6315 10Z" fill="white"/>
</svg>
