<svg xmlns="http://www.w3.org/2000/svg" viewBox="0 0 57.23 47.9"><defs><style>.cls-1{fill:#f60;}.cls-2{fill:#242653;}</style></defs><g id="Calque_2" data-name="Calque 2"><g id="Calque_1-2" data-name="Calque 1"><path class="cls-1" d="M36.94,47.49l.05,0,.07.06h0l.08.06.07,0,.1,0h0l.07,0,.09,0,.09,0h0l.09,0h.35l8.15-.41a1.38,1.38,0,0,0,1-.49,1.4,1.4,0,0,0,.34-1.08,1.57,1.57,0,0,0-1.63-1.43l-4.14.21L56.51,30l0,0,.33-.33a1.44,1.44,0,0,0-.07-2.08,1.51,1.51,0,0,0-1-.4,1.56,1.56,0,0,0-1.18.46l-.22.22,0,0L39.62,42.53l.12-2.47.09-1.67a1.55,1.55,0,0,0-.47-1.18,1.61,1.61,0,0,0-1-.46,1.46,1.46,0,0,0-1.58,1.36l-.4,8.15v.13a.13.13,0,0,0,0,.06.22.22,0,0,0,0,.09.15.15,0,0,0,0,.07s0,.07,0,.1l0,.1,0,.08,0,.11a.36.36,0,0,0,0,.09.43.43,0,0,1,0,.07l.06.09a.27.27,0,0,1,.07.08l0,0,.05.07Z"/><path class="cls-2" d="M20.29.41l-.05,0-.07,0h0L20.07.24,20,.2,19.9.15h0l-.08,0-.08,0-.1,0h0l-.09,0h-.06l-.09,0h-.2L11,.4a1.46,1.46,0,0,0-1,.49A1.43,1.43,0,0,0,9.67,2a1.54,1.54,0,0,0,.45,1,1.53,1.53,0,0,0,1.18.46l4.14-.2L.72,17.92l0,0-.33.33A1.45,1.45,0,0,0,0,19.34a1.42,1.42,0,0,0,.49,1,1.51,1.51,0,0,0,1,.4,1.54,1.54,0,0,0,1.17-.46l.22-.22h0L17.61,5.37l-.12,2.47-.08,1.67a1.57,1.57,0,0,0,.46,1.18,1.54,1.54,0,0,0,1,.45A1.42,1.42,0,0,0,20,10.77a1.44,1.44,0,0,0,.46-1l.4-8.15V1.45s0-.07,0-.1a.64.64,0,0,1,0-.07.29.29,0,0,0,0-.09l0-.1a.46.46,0,0,0,0-.09.69.69,0,0,0,0-.1L20.61.81l0-.07L20.51.65,20.45.57l0,0L20.35.46Z"/><path class="cls-2" d="M35.29,30.43c0-.36.05-.72.05-1.08A12.55,12.55,0,0,0,24.51,17a10.18,10.18,0,0,0-2.15-.1h-.2A12.5,12.5,0,1,0,34.87,32.72,13,13,0,0,0,35.29,30.43Zm-3-1.08a9.42,9.42,0,1,1-9.42-9.43A9.43,9.43,0,0,1,32.25,29.35Z"/><path class="cls-1" d="M34.69,6.72a13,13,0,0,0-11.77,7.55l-.58,1.26h1.39a12.77,12.77,0,0,1,2.21.19l.62.11.31-.55a9,9,0,1,1,10.39,13l-.6.18,0,.63a13.72,13.72,0,0,1-.3,2.19L36,32.64l1.36-.29A13,13,0,0,0,34.69,6.72Zm9.87,13h0a9.83,9.83,0,0,0-.78-3.84A9.83,9.83,0,0,1,44.56,19.68Z"/></g></g></svg>