<svg id="Layer_1" data-name="Layer 1" xmlns="http://www.w3.org/2000/svg" viewBox="0 0 28.57 24.97"><defs><style>.cls-1{fill:#18193c;}</style></defs><path class="cls-1" d="M12,5.63h1.29l1-5.63H12.19a9.38,9.38,0,0,0-9.43,7L0,21.74H6.17l.72-3.87H11l1-5.64H7.88l.71-4A3.48,3.48,0,0,1,12,5.63ZM28.51,8a8.62,8.62,0,0,0-2.1-4.67c-.1-.12-.21-.24-.32-.35s-.45-.39-.69-.6l-.13-.09A9.61,9.61,0,0,0,23.11.88,10,10,0,0,0,19,0H16.88L16.8.46l-1,5.17H19a4.17,4.17,0,0,1,.71.07,3.36,3.36,0,0,1,2.79,3.23,3.36,3.36,0,0,1-2.79,3.24,3.52,3.52,0,0,1-.66.06H14.61l-.08.46-1,5.18h0L17.8,25h6.83l-4.34-7.19a9.58,9.58,0,0,0,6.15-3.22,9,9,0,0,0,.75-1,8.31,8.31,0,0,0,.44-.76c.07-.13.13-.26.19-.39a9.32,9.32,0,0,0,.45-1.25,7.88,7.88,0,0,0,.19-.87,8.71,8.71,0,0,0,.11-1.36A8.06,8.06,0,0,0,28.51,8Z" transform="translate(0)"/></svg>