<svg id="Calque_1" data-name="Calque 1" xmlns="http://www.w3.org/2000/svg" viewBox="0 0 23.4 11.4"><defs><style>.cls-1{fill:#c0c7ce;}</style></defs><path class="cls-1" d="M5.1,0A5.14,5.14,0,0,0,0,5.2v6.1H2.8V8.4H7.4V5.6l-4.6.1V5.3A2.52,2.52,0,0,1,5.1,2.7H8.8V0H5.1Z"/><path class="cls-1" d="M23.4,7a4.25,4.25,0,0,0-4.3-4.2H16.8a1.37,1.37,0,0,0-1.4,1.4,1.37,1.37,0,0,0,1.4,1.4h2.4A1.45,1.45,0,0,1,20.7,7a1.45,1.45,0,0,1-1.5,1.4H16.4a2.58,2.58,0,0,1-2.3-2.5V0H11.3V6.1a5.35,5.35,0,0,0,5,5.3h2.9A4.4,4.4,0,0,0,23.4,7Z"/></svg>