<svg width="70" height="70" viewBox="0 0 70 70" fill="none" xmlns="http://www.w3.org/2000/svg">
<rect width="70" height="70" fill="white"/>
<path d="M35.5904 17.001C31.9433 16.9633 28.3673 18.0103 25.3165 20.009C22.2657 22.0078 19.8778 24.8681 18.4559 28.2267C17.034 31.5854 16.6423 35.2908 17.3307 38.8725C18.019 42.4542 19.7562 45.7506 22.3218 48.343C24.8873 50.9353 28.1654 52.7067 31.7398 53.4323C35.3141 54.1578 39.0235 53.8047 42.3967 52.4178C45.77 51.0309 48.655 48.6729 50.6853 45.643C52.7157 42.6132 53.7998 39.0483 53.8 35.401C53.792 30.5563 51.877 25.9096 48.4691 22.4661C45.0613 19.0226 40.4347 17.0593 35.5904 17.001ZM40.4759 20.755C44.0884 21.8893 47.1206 24.3796 48.9357 27.7026L49.3163 28.4534H42.5379V28.0727C41.9426 25.7808 41.0578 23.5741 39.9048 21.5058L39.3444 20.3743L40.4759 20.755ZM40.6239 35.401C40.6039 36.6604 40.4801 37.916 40.2538 39.155V39.5251H30.7048V39.2079C30.4838 37.9681 30.36 36.713 30.3347 35.4539C30.3866 34.1965 30.5102 32.9432 30.7048 31.6999V31.3191H40.2855V31.6999C40.5594 32.9135 40.6731 34.1578 40.6239 35.401M35.5586 19.6235L35.9287 20.1946C37.5677 22.4586 38.779 25.003 39.503 27.7026L39.6934 28.2631H31.2336L31.4133 27.7026C32.2172 25.0332 33.4224 22.5016 34.9876 20.1946L35.5586 19.6235ZM22.0441 27.7026C23.9732 24.4759 26.9637 22.0199 30.5039 20.755L31.6248 20.3743L31.1067 21.5058C29.9691 23.5814 29.0851 25.7861 28.4736 28.0727V28.4534H21.6952L22.0441 27.7026ZM20.5425 39.3348C19.7813 36.7639 19.7813 34.0275 20.5425 31.4566V31.0759H27.9343V31.6469C27.7602 32.8902 27.6965 34.1465 27.7439 35.401C27.7439 36.9026 27.9343 38.0235 27.9343 39.155V39.7155H20.532L20.5425 39.3348ZM30.4933 50.0364C26.8803 48.903 23.8477 46.4125 22.0336 43.0888L21.6529 42.5284H28.4101V42.909C29.0302 45.2024 29.9361 47.4087 31.1067 49.476L31.6671 50.6075L30.4933 50.0364ZM35.5586 51.1679L35.1779 50.6075C33.5461 48.3368 32.3387 45.7895 31.6143 43.0888L31.4239 42.5284H39.8837L39.7039 43.0888C38.8994 45.7612 37.6942 48.2963 36.1297 50.6075L35.5586 51.1679ZM48.8828 43.0888C46.9531 46.3149 43.9628 48.7707 40.423 50.0364L39.2915 50.4171L39.852 49.2856C40.9248 47.18 41.806 44.9822 42.4851 42.7187V42.3803H49.2952L48.8828 43.0888ZM50.3844 39.5251H43.0984V38.9647C43.3522 36.4684 43.3522 33.9529 43.0984 31.4566V30.8962H50.4161V31.2663C51.1776 33.8407 51.1776 36.5806 50.4161 39.155L50.3844 39.5251Z" fill="#242653"/>
</svg>
