<svg width="70" height="70" viewBox="0 0 70 70" fill="none" xmlns="http://www.w3.org/2000/svg">
<path fill-rule="evenodd" clip-rule="evenodd" d="M19.9996 12.5503C24.4398 9.5835 29.6599 8 35 8C42.159 8.00599 49.0231 10.8525 54.0853 15.9147C59.1475 20.9769 61.994 27.841 62 35C62 40.3401 60.4165 45.5603 57.4497 50.0004C54.4829 54.4405 50.2661 57.9012 45.3325 59.9447C40.3989 61.9883 34.9701 62.523 29.7326 61.4812C24.4951 60.4394 19.6842 57.8679 15.9081 54.0919C12.1321 50.3159 9.56061 45.5049 8.51881 40.2674C7.47701 35.0299 8.0117 29.6011 10.0553 24.6675C12.0988 19.7339 15.5595 15.5171 19.9996 12.5503ZM22.5178 53.6446C26.2066 56.1336 30.5501 57.4738 35 57.4962C40.979 57.4963 46.715 55.1305 50.9554 50.9155C55.1959 46.7005 57.5962 40.9788 57.632 35C57.6365 30.55 56.3224 26.1985 53.8556 22.4948C51.3889 18.7912 47.8802 15.9013 43.7724 14.1902C39.6646 12.479 35.1419 12.0233 30.7753 12.8805C26.4087 13.7377 22.394 15.8694 19.2379 19.0065C16.0819 22.1436 13.9261 26.1455 13.0426 30.5069C12.1591 34.8682 12.5876 39.3936 14.274 43.5116C15.9604 47.6296 18.8291 51.1556 22.5178 53.6446ZM50.5259 40.0922C51.0296 40.4106 51.3874 40.9148 51.5217 41.4953C51.6446 42.0808 51.5306 42.6911 51.2049 43.1927C49.409 45.844 46.991 48.0148 44.1621 49.5154C41.3333 51.016 38.1799 51.8006 34.9777 51.8006C31.7755 51.8006 28.6221 51.016 25.7933 49.5154C22.9644 48.0148 20.5464 45.844 18.7506 43.1927C18.4403 42.6847 18.3427 42.0748 18.479 41.4953C18.5897 41.0732 18.8201 40.692 19.1425 40.3978C19.4649 40.1036 19.8655 39.9089 20.2961 39.8371C20.7266 39.7653 21.1687 39.8196 21.5691 39.9933C21.9695 40.1671 22.3111 40.453 22.5527 40.8164C23.9493 42.8239 25.8107 44.4639 27.9782 45.5964C30.1456 46.7289 32.5548 47.3203 35.0003 47.3203C37.4458 47.3203 39.8551 46.7289 42.0225 45.5964C44.19 44.4639 46.0514 42.8239 47.448 40.8164C47.761 40.3175 48.2563 39.9602 48.8285 39.8206C49.408 39.6844 50.0178 39.7819 50.5259 40.0922ZM21.8735 31.8994C22.4738 31.8994 23.0494 31.6609 23.4738 31.2365C23.8983 30.812 24.1367 30.2364 24.1367 29.6362C24.1024 29.2633 24.1463 28.8873 24.2655 28.5323C24.3846 28.1773 24.5766 27.8511 24.8289 27.5744C25.0813 27.2978 25.3886 27.0768 25.7312 26.9256C26.0738 26.7744 26.4441 26.6963 26.8186 26.6963C27.1931 26.6963 27.5634 26.7744 27.906 26.9256C28.2486 27.0768 28.5559 27.2978 28.8083 27.5744C29.0607 27.8511 29.2526 28.1773 29.3718 28.5323C29.4909 28.8873 29.5348 29.2633 29.5005 29.6362C29.5005 30.2364 29.739 30.812 30.1634 31.2365C30.5878 31.6609 31.1635 31.8994 31.7637 31.8994C32.364 31.8994 32.9396 31.6609 33.364 31.2365C33.7885 30.812 34.0269 30.2364 34.0269 29.6362C34.0817 28.6616 33.9371 27.6862 33.6019 26.7695C33.2666 25.8528 32.7479 25.0141 32.0774 24.3048C31.4068 23.5955 30.5986 23.0305 29.7022 22.6443C28.8058 22.2582 27.84 22.059 26.8639 22.059C25.8878 22.059 24.922 22.2582 24.0256 22.6443C23.1291 23.0305 22.3209 23.5955 21.6504 24.3048C20.9798 25.0141 20.4611 25.8528 20.1259 26.7695C19.7907 27.6862 19.646 28.6616 19.7008 29.6362C19.7004 30.2211 19.9263 30.7834 20.3314 31.2053C20.7364 31.6272 21.2891 31.876 21.8735 31.8994ZM39.9045 31.2365C39.48 31.6609 38.9044 31.8994 38.3041 31.8994C37.7197 31.876 37.1671 31.6272 36.762 31.2053C36.357 30.7834 36.131 30.2211 36.1315 29.6362C36.0767 28.6616 36.2213 27.6862 36.5565 26.7695C36.8917 25.8528 37.4105 25.0141 38.081 24.3048C38.7515 23.5955 39.5597 23.0305 40.4562 22.6443C41.3526 22.2582 42.3184 22.059 43.2945 22.059C44.2706 22.059 45.2364 22.2582 46.1328 22.6443C47.0293 23.0305 47.8375 23.5955 48.508 24.3048C49.1785 25.0141 49.6973 25.8528 50.0325 26.7695C50.3677 27.6862 50.5123 28.6616 50.4575 29.6362C50.4575 30.2364 50.2191 30.812 49.7946 31.2365C49.3702 31.6609 48.7946 31.8994 48.1943 31.8994C47.5941 31.8994 47.0184 31.6609 46.594 31.2365C46.1696 30.812 45.9311 30.2364 45.9311 29.6362C45.9654 29.2633 45.9216 28.8873 45.8024 28.5323C45.6832 28.1773 45.4913 27.8511 45.2389 27.5744C44.9865 27.2978 44.6792 27.0768 44.3366 26.9256C43.9941 26.7744 43.6237 26.6963 43.2492 26.6963C42.8748 26.6963 42.5044 26.7744 42.1618 26.9256C41.8192 27.0768 41.5119 27.2978 41.2596 27.5744C41.0072 27.8511 40.8153 28.1773 40.6961 28.5323C40.5769 28.8873 40.5331 29.2633 40.5673 29.6362C40.5673 30.2364 40.3289 30.812 39.9045 31.2365Z" fill="#FF6600"/>
</svg>
