<svg xmlns="http://www.w3.org/2000/svg" viewBox="0 0 55.35 40.7"><defs><style>.cls-1{fill:#242653;}.cls-2{fill:#f60;}</style></defs><g id="Calque_2" data-name="Calque 2"><g id="Calque_1-2" data-name="Calque 1"><path class="cls-1" d="M9.29,7.74A9.29,9.29,0,0,0,8.1,26.24l3.36,11a4.8,4.8,0,0,0,9.36-2l-2-8.58A70.86,70.86,0,0,1,32.7,30.7a4.64,4.64,0,0,0,9.1-1.28V4.64a4.64,4.64,0,0,0-9.11-1.27A70.65,70.65,0,0,1,16.91,7.74ZM32.51,27.29a73.69,73.69,0,0,0-13.93-3.83V10.61A73.72,73.72,0,0,0,32.51,6.77ZM3.1,17a6.19,6.19,0,0,1,6.19-6.19h6.19V23.23H9.29A6.2,6.2,0,0,1,3.1,17ZM17.36,37a1.67,1.67,0,0,1-1.29.58,1.7,1.7,0,0,1-1.63-1.23l-3.1-10h4.35l2.07,9.35a1.67,1.67,0,0,1-.4,1.35ZM35.61,4.65a1.55,1.55,0,0,1,3.1,0V29.42a1.55,1.55,0,0,1-3.1,0Z"/><path class="cls-2" d="M53.44,15.12H47.69a1.92,1.92,0,0,0,0,3.83h5.75a1.92,1.92,0,0,0,0-3.83Z"/><path class="cls-2" d="M47.69,9.37a1.86,1.86,0,0,0,1.06-.32L54.5,5.22A1.92,1.92,0,0,0,52.37,2L46.63,5.86a1.92,1.92,0,0,0,1.06,3.51Z"/><path class="cls-2" d="M46.63,28.2,52.37,32a1.9,1.9,0,0,0,1.06.32,1.92,1.92,0,0,0,1.07-3.51L48.75,25a1.92,1.92,0,0,0-2.12,3.19Z"/></g></g></svg>