<svg xmlns="http://www.w3.org/2000/svg" viewBox="0 0 30.83 40.62"><defs><style>.cls-1{fill:#242653;}</style></defs><g id="Calque_2" data-name="Calque 2"><g id="Calque_1-2" data-name="Calque 1"><path class="cls-1" d="M29.6,14.21a4.21,4.21,0,0,0-3-1.23V11.22a11.21,11.21,0,1,0-22.42,0V13A4.2,4.2,0,0,0,0,17.19V36.41a4.2,4.2,0,0,0,4.2,4.21H26.62a4.21,4.21,0,0,0,3-1.23,4.25,4.25,0,0,0,1.23-3V17.19A4.25,4.25,0,0,0,29.6,14.21ZM7,11.22a8.41,8.41,0,1,1,16.81,0V13H7ZM28,36.41a1.39,1.39,0,0,1-.41,1,1.41,1.41,0,0,1-1,.41H4.2a1.4,1.4,0,0,1-1.4-1.41V17.19a1.4,1.4,0,0,1,1.4-1.41H26.62a1.41,1.41,0,0,1,1,.41,1.39,1.39,0,0,1,.41,1ZM13.49,28.92,8.87,24.31l-2,2,5.61,5.6h0a1.38,1.38,0,0,0,1,.42h0a1.35,1.35,0,0,0,1-.42l9.46-9.46-2-2Z" transform="translate(0 0)"/></g></g></svg>