<svg xmlns="http://www.w3.org/2000/svg" viewBox="0 0 50.83 47.17"><defs><style>.cls-1{fill:#242653;}.cls-2{fill:#f60;}</style></defs><g id="Calque_2" data-name="Calque 2"><g id="Calque_1-2" data-name="Calque 1"><path class="cls-1" d="M40.49,24.62A4.63,4.63,0,0,0,35.88,20H33.24a4.62,4.62,0,0,0,.92-3.42,4.69,4.69,0,0,0-1.78-3.12,4.7,4.7,0,0,0-6.57.84,3.9,3.9,0,0,0-.51,1,3.9,3.9,0,0,0-.51-1,4.68,4.68,0,0,0-3.71-1.81,4.6,4.6,0,0,0-2.86,1A4.67,4.67,0,0,0,17.35,20H15a4.61,4.61,0,0,0-4.61,4.61V42.56A4.61,4.61,0,0,0,15,47.17H35.88a4.62,4.62,0,0,0,4.61-4.61ZM22.82,19.43a10.46,10.46,0,0,1-2.88-1.37A1.44,1.44,0,0,1,19.65,17a1.39,1.39,0,0,1,.55-1,1.42,1.42,0,0,1,.88-.3,1.4,1.4,0,0,1,1.12.53A9.69,9.69,0,0,1,22.82,19.43Zm4.95,0a10.15,10.15,0,0,1,.61-3.15,1.47,1.47,0,0,1,1.14-.54,1.44,1.44,0,0,1,.88.3,1.47,1.47,0,0,1,.54,1,1.41,1.41,0,0,1-.26,1A10.06,10.06,0,0,1,27.77,19.43Zm9.48,5.19V27H13.59V24.62A1.36,1.36,0,0,1,15,23.26H35.88A1.37,1.37,0,0,1,37.25,24.62ZM23.8,30.23V43.92H15a1.36,1.36,0,0,1-1.37-1.36V30.23Zm3.24,0H37.25V42.56a1.37,1.37,0,0,1-1.37,1.36H27Z"/><path class="cls-2" d="M13,3.93a.76.76,0,0,0-.64-.35.73.73,0,0,0-.4.11l-1,.59a.75.75,0,0,0-.33.47.8.8,0,0,0,.09.57L13.73,10a.75.75,0,0,0,.64.36.71.71,0,0,0,.39-.12l1-.59a.81.81,0,0,0,.34-.47.77.77,0,0,0-.1-.57Zm1.35,5.69-2.94-4.7,2.94,4.7,1-.6Z"/><path class="cls-2" d="M49.7,34.16l-5.17-2a.65.65,0,0,0-.27,0,.74.74,0,0,0-.7.48l-.4,1a.74.74,0,0,0,.43,1l5.17,2a.8.8,0,0,0,.26,0,.77.77,0,0,0,.71-.48l.4-1a.75.75,0,0,0,0-.57A.73.73,0,0,0,49.7,34.16Zm-5.84-.24h0l5.17,2Z"/><path class="cls-2" d="M7.25,17.87l-5.17-2a.65.65,0,0,0-.27-.05.75.75,0,0,0-.7.48l-.4,1a.78.78,0,0,0,0,.58.75.75,0,0,0,.41.39l5.17,2a.86.86,0,0,0,.27.05.76.76,0,0,0,.7-.48l.4-1.05a.75.75,0,0,0,0-.57A.72.72,0,0,0,7.25,17.87Z"/><path class="cls-2" d="M50.8,19.55l-.3-1.07a.74.74,0,0,0-.36-.45.69.69,0,0,0-.37-.1l-.2,0-5.32,1.53a.75.75,0,0,0-.52.92L44,21.49a.73.73,0,0,0,.36.45.74.74,0,0,0,.36.09A.75.75,0,0,0,45,22l5.32-1.53A.74.74,0,0,0,50.8,19.55Zm-6,1.73,5.32-1.52h0Z"/><path class="cls-2" d="M6.79,31a.7.7,0,0,0-.35-.45.71.71,0,0,0-.37-.1.64.64,0,0,0-.2,0L.54,32A.76.76,0,0,0,0,33L.34,34a.71.71,0,0,0,.36.45.75.75,0,0,0,.36.1.76.76,0,0,0,.21,0L6.59,33a.74.74,0,0,0,.51-.93Z"/><path class="cls-2" d="M40.77,5a.74.74,0,0,0-.45-.15h-.11a.76.76,0,0,0-.49.29L36.39,9.52a.75.75,0,0,0,.14,1.05l.9.67a.76.76,0,0,0,.45.15.74.74,0,0,0,.6-.3l3.33-4.42a.75.75,0,0,0-.15-1Zm-2.89,5.69L37,10h0l.89.67,3.33-4.42h0Z"/><rect class="cls-2" x="24.11" width="2.62" height="7.04" rx="0.75"/></g></g></svg>