<svg xmlns="http://www.w3.org/2000/svg" viewBox="0 0 62.36 29.53"><defs><style>.cls-1{fill:#242653;}</style></defs><g id="Calque_2" data-name="Calque 2"><g id="Calque_1-2" data-name="Calque 1"><path class="cls-1" d="M16.51,21.37a1.38,1.38,0,0,0,1.39,1.38h.49a1.38,1.38,0,0,0,1.38-1.38v-15l-3-3L9.89,15.44,3,3.33a1.37,1.37,0,0,0-1.2-.7H1.38A1.38,1.38,0,0,0,0,4V21.37a1.38,1.38,0,0,0,1.38,1.38h.5a1.38,1.38,0,0,0,1.38-1.38v-11L8.54,19.6a1.37,1.37,0,0,0,1.2.7H10a1.4,1.4,0,0,0,1.21-.7l5.27-9.29Z"/><path class="cls-1" d="M25.22,5.87h5v5.67l.58.57L33.5,9.43V5.87h3.56l2.62-2.62a1.39,1.39,0,0,0-1.15-.62H25.22A1.39,1.39,0,0,0,23.83,4v.47A1.38,1.38,0,0,0,25.22,5.87Z"/><path class="cls-1" d="M30.24,18v3.37a1.38,1.38,0,0,0,1.39,1.38h.49a1.38,1.38,0,0,0,1.38-1.38V20.11l-2.68-2.69Z"/><path class="cls-1" d="M61,7.52a9.8,9.8,0,0,0-3.7-3.64,10.86,10.86,0,0,0-10.38,0,9.7,9.7,0,0,0-3.69,3.64,10.1,10.1,0,0,0-1.35,5.17,10.1,10.1,0,0,0,1.35,5.17,9.72,9.72,0,0,0,3.69,3.65h0a10.94,10.94,0,0,0,10.38,0A9.82,9.82,0,0,0,61,17.86a10.19,10.19,0,0,0,1.34-5.17A10.19,10.19,0,0,0,61,7.52Zm-2.83,8.7a6.43,6.43,0,0,1-2.49,2.47,7.53,7.53,0,0,1-7.14,0,6.43,6.43,0,0,1-2.49-2.47,6.85,6.85,0,0,1-.91-3.53,6.88,6.88,0,0,1,.91-3.53A6.4,6.4,0,0,1,48.56,6.7a7.53,7.53,0,0,1,7.14,0,6.4,6.4,0,0,1,2.49,2.46,6.78,6.78,0,0,1,.91,3.53A6.78,6.78,0,0,1,58.19,16.22Z"/><path class="cls-1" d="M33.5,15.77l-1-1,1-1L45.23,2a1.09,1.09,0,0,0,.33-.61A1.19,1.19,0,0,0,45.23.35,1.14,1.14,0,0,0,44.6,0,1.12,1.12,0,0,0,44,.09a1,1,0,0,0-.39.26L39.91,4,38,5.87,33.5,10.4l-2.68,2.69-.58-.57-5.8-5.8L18.07.35A.84.84,0,0,0,17.89.2a1.16,1.16,0,0,0-1.31,0,.84.84,0,0,0-.18.15A1.18,1.18,0,0,0,16.4,2l.83.83L19.77,5.4l9.37,9.37L16.4,27.51a1,1,0,0,0-.26.39,1.17,1.17,0,0,0-.09.45,1.12,1.12,0,0,0,.09.44,1,1,0,0,0,.26.4l0,0a1.18,1.18,0,0,0,.22.17,1.22,1.22,0,0,0,1.24,0l.18-.15L30.24,17l.58-.58h0l2.68,2.69,3.69,3.69,6.37,6.37c.06,0,.12.11.18.15a1.21,1.21,0,0,0,.66.19,1.3,1.3,0,0,0,.54-.13l.19-.13.1-.08a1,1,0,0,0,.13-.16l.08-.13a1.12,1.12,0,0,0,.12-.35,1.14,1.14,0,0,0-.33-1Z"/></g></g></svg>