<svg width="70" height="70" viewBox="0 0 70 70" fill="none" xmlns="http://www.w3.org/2000/svg">
<rect width="70" height="70" fill="white"/>
<path d="M50.8007 42V44.3881C50.8007 44.8156 50.9693 45.2256 51.2693 45.5279C51.5693 45.8302 51.9761 46 52.4004 46C52.8246 46 53.2315 45.8302 53.5315 45.5279C53.8315 45.2256 54 44.8156 54 44.3881V42C53.9812 40.3067 53.2973 38.69 52.098 37.5038C50.8988 36.3177 49.2819 35.6589 47.6015 35.6716H36.5937V32.6865L43.952 29.3909C44.2249 29.2623 44.4576 29.0608 44.6248 28.8081C44.7919 28.5555 44.8871 28.2614 44.8999 27.9581V18.3341C44.9047 18.0266 44.8167 17.7249 44.6474 17.469C44.4781 17.2131 44.2355 17.015 43.952 16.9013L35.6576 13.152C35.4463 13.0519 35.2157 13 34.9822 13C34.7487 13 34.5181 13.0519 34.3068 13.152L26.0125 16.9013C25.7387 17.0288 25.5053 17.2301 25.338 17.483C25.1707 17.7358 25.0761 18.0304 25.0645 18.3341V27.8864C25.0614 28.1936 25.1501 28.4946 25.3192 28.7502C25.4883 29.0058 25.7299 29.2041 26.0125 29.3193L33.3589 32.6268V35.6119H22.3985C20.7202 35.5991 19.105 36.2563 17.9061 37.4399C16.7072 38.6235 16.0219 40.2372 16 41.9284V44.3164C16 44.744 16.1685 45.154 16.4685 45.4563C16.7685 45.7586 17.1754 45.9284 17.5996 45.9284C18.0239 45.9284 18.4307 45.7586 18.7307 45.4563C19.0307 45.154 19.1993 44.744 19.1993 44.3164V41.9284C19.2178 41.0858 19.5631 40.284 20.1611 39.6949C20.759 39.1057 21.5622 38.7759 22.3985 38.7761H33.3945V44.3523C33.429 44.7574 33.6131 45.1347 33.9104 45.4096C34.2077 45.6845 34.5965 45.837 35 45.837C35.4035 45.837 35.7923 45.6845 36.0896 45.4096C36.3869 45.1347 36.571 44.7574 36.6055 44.3523V38.8239H47.6133C48.4517 38.8237 49.2566 39.1551 49.8549 39.7469C50.4532 40.3386 50.7971 41.1434 50.8126 41.988M41.6651 26.8954L36.6055 29.1641V23.0625L41.6651 20.7938V26.8954ZM33.3708 29.1641L28.323 26.8954V20.7938L33.3708 23.0625V29.1641ZM34.9704 20.2327L30.5744 18.2625L34.9941 16.2565L39.4019 18.2386L34.9704 20.2327Z" fill="#242653"/>
<path d="M38.4623 48.4281L34.2304 52.6961L32.4185 50.8799C32.1497 50.633 31.7907 50.495 31.4172 50.495C31.0436 50.495 30.6847 50.633 30.4158 50.8799C30.2843 51.0016 30.1797 51.1472 30.1082 51.308C30.0368 51.4689 30 51.6418 30 51.8164C30 51.9911 30.0368 52.164 30.1082 52.3248C30.1797 52.4857 30.2843 52.6313 30.4158 52.7529L33.1814 55.5794C33.3168 55.7171 33.4814 55.8258 33.6644 55.8982C33.8473 55.9706 34.0443 56.0051 34.2424 55.9994C34.4398 56.001 34.6355 55.9646 34.8178 55.8925C35.0001 55.8203 35.1653 55.7138 35.3033 55.5794L40.5842 50.267C40.7157 50.1453 40.8203 49.9998 40.8918 49.8389C40.9632 49.678 41 49.5052 41 49.3305C41 49.1559 40.9632 48.983 40.8918 48.8221C40.8203 48.6613 40.7157 48.5157 40.5842 48.394C40.3183 48.1417 39.9582 48 39.5828 48C39.2075 48 38.8474 48.1417 38.5815 48.394" fill="#242653"/>
<path d="M20.5525 48.4394L16.327 52.7075L14.4664 50.8913C14.1956 50.6443 13.8342 50.5063 13.458 50.5063C13.0819 50.5063 12.7204 50.6443 12.4497 50.8913C12.3132 51.0091 12.2031 51.1516 12.126 51.3104C12.0489 51.4692 12.0062 51.641 12.0006 51.8157C11.995 51.9904 12.0266 52.1644 12.0934 52.3273C12.1602 52.4902 12.261 52.6388 12.3896 52.7643L15.1266 55.5794C15.2629 55.7171 15.4287 55.8258 15.6129 55.8982C15.7972 55.9706 15.9956 56.0051 16.195 55.9994C16.3938 56.001 16.5909 55.9646 16.7745 55.8925C16.9581 55.8203 17.1244 55.7138 17.2634 55.5794L22.5813 50.2669C22.7138 50.1453 22.8191 49.9997 22.891 49.8388C22.9629 49.678 23 49.5051 23 49.3304C23 49.1558 22.9629 48.9829 22.891 48.822C22.8191 48.6612 22.7138 48.5156 22.5813 48.3939C22.3135 48.1416 21.9509 48 21.5729 48C21.1949 48 20.8323 48.1416 20.5645 48.3939" fill="#242653"/>
<path d="M54.5381 51.4793L56.5822 49.4523C56.7146 49.3187 56.8197 49.1598 56.8914 48.9849C56.9631 48.8099 57 48.6222 57 48.4326C57 48.2431 56.9631 48.0555 56.8914 47.8805C56.8197 47.7055 56.7146 47.5466 56.5822 47.4131C56.306 47.1478 55.9403 47 55.5602 47C55.18 47 54.8143 47.1478 54.5381 47.4131L52.506 49.4523L50.4619 47.4131C50.1857 47.1478 49.82 47 49.4398 47C49.0597 47 48.694 47.1478 48.4178 47.4131C48.2854 47.5466 48.1803 47.7055 48.1086 47.8805C48.0369 48.0555 48 48.2431 48 48.4326C48 48.6222 48.0369 48.8099 48.1086 48.9849C48.1803 49.1598 48.2854 49.3187 48.4178 49.4523L50.4619 51.4793L48.4178 53.5185C48.2857 53.651 48.1809 53.8089 48.1094 53.9828C48.0379 54.1568 48.001 54.3434 48.001 54.532C48.001 54.7205 48.0379 54.9072 48.1094 55.0811C48.1809 55.2551 48.2857 55.4129 48.4178 55.5455C48.6986 55.8062 49.0654 55.9508 49.4459 55.9508C49.8207 55.9401 50.1801 55.7967 50.4619 55.5455L52.506 53.5185L54.5381 55.5946C54.819 55.8553 55.1857 56 55.5662 56C55.9411 55.9893 56.3004 55.8459 56.5822 55.5946C56.7143 55.4621 56.8191 55.3042 56.8906 55.1302C56.9621 54.9563 56.999 54.7696 56.999 54.5811C56.999 54.3926 56.9621 54.2059 56.8906 54.0319C56.8191 53.858 56.7143 53.7001 56.5822 53.5676L54.5381 51.4793Z" fill="#242653"/>
</svg>
