<svg width="70" height="70" viewBox="0 0 70 70" fill="none" xmlns="http://www.w3.org/2000/svg">
<rect width="70" height="70" fill="white"/>
<path d="M51.7765 42.2091V44.615C51.7765 45.0458 51.9476 45.4589 52.2521 45.7635C52.5567 46.068 52.9698 46.2391 53.4005 46.2391C53.8312 46.2391 54.2443 46.068 54.5489 45.7635C54.8535 45.4589 55.0245 45.0458 55.0245 44.615V42.2091C55.0023 40.5052 54.3066 38.8794 53.0893 37.687C51.8721 36.4945 50.2324 35.8324 48.5284 35.8453H37.3526V32.8378L44.8232 29.4935C45.101 29.3682 45.3383 29.1678 45.5084 28.9148C45.6784 28.6619 45.7744 28.3665 45.7856 28.0619V18.3658C45.7922 18.0556 45.7034 17.7508 45.5313 17.4926C45.3592 17.2345 45.1121 17.0354 44.8232 16.9222L36.4143 13.1448C36.1983 13.0493 35.9647 13 35.7285 13C35.4924 13 35.2588 13.0493 35.0428 13.1448L26.6219 16.9342C26.344 17.0627 26.107 17.2656 25.9371 17.5203C25.7673 17.7751 25.6712 18.0718 25.6595 18.3778V28.0017C25.6529 28.3119 25.7416 28.6167 25.9137 28.8749C26.0858 29.133 26.333 29.3321 26.6219 29.4453L34.0805 32.7776V35.7972H22.9407C21.2368 35.7843 19.597 36.4464 18.3798 37.6389C17.1625 38.8313 16.4668 40.4571 16.4446 42.161V44.5669C16.4446 44.9977 16.6157 45.4107 16.9203 45.7153C17.2248 46.0199 17.6379 46.191 18.0686 46.191C18.4993 46.191 18.9124 46.0199 19.217 45.7153C19.5216 45.4107 19.6927 44.9977 19.6927 44.5669V42.161C19.7084 41.31 20.0576 40.4992 20.665 39.903C21.2725 39.3068 22.0896 38.9729 22.9407 38.973H34.1045V44.6031C34.1396 45.0112 34.3265 45.3913 34.6284 45.6683C34.9302 45.9453 35.3249 46.099 35.7346 46.099C36.1442 46.099 36.539 45.9453 36.8408 45.6683C37.1426 45.3913 37.3295 45.0112 37.3646 44.6031V39.0332H48.5404C49.3895 39.033 50.2049 39.3653 50.812 39.9589C51.4191 40.5525 51.7696 41.3602 51.7885 42.2091M42.5014 27.0153L37.3646 29.301V23.1417L42.5014 20.8559V27.0153ZM34.0805 29.301L28.9557 27.0153V20.8559L34.0805 23.1417V29.301ZM35.7045 20.3026L31.2414 18.3176L35.7045 16.3207L40.1796 18.3176L35.7045 20.3026Z" fill="#1A2442"/>
<path d="M38.8203 48.5729L34.5497 53.0962L32.7211 51.2075C32.4513 50.943 32.0885 50.7948 31.7106 50.7948C31.3328 50.7948 30.97 50.943 30.7001 51.2075C30.5634 51.3324 30.4531 51.4834 30.3758 51.6517C30.2985 51.82 30.2558 52.0021 30.2501 52.1872C30.2445 52.3723 30.2761 52.5567 30.3431 52.7294C30.4101 52.902 30.511 53.0595 30.64 53.1924L33.4309 56.1759C33.5669 56.3234 33.7327 56.4404 33.9172 56.5192C34.1018 56.598 34.301 56.6368 34.5016 56.633C34.7016 56.6325 34.8994 56.5917 35.0834 56.5132C35.2673 56.4346 35.4335 56.3199 35.5723 56.1759L40.9015 50.5578C41.0343 50.4289 41.1398 50.2746 41.2119 50.1041C41.284 49.9337 41.3211 49.7505 41.3211 49.5654C41.3211 49.3803 41.284 49.1971 41.2119 49.0266C41.1398 48.8561 41.0343 48.7019 40.9015 48.5729C40.6332 48.3055 40.2698 48.1554 39.891 48.1554C39.5122 48.1554 39.1488 48.3055 38.8805 48.5729" fill="#FF6600"/>
<path d="M20.5708 48.5729L16.3002 53.0962L14.4716 51.2075C14.2018 50.943 13.839 50.7948 13.4611 50.7948C13.0833 50.7948 12.7205 50.943 12.4506 51.2075C12.3139 51.3324 12.2035 51.4834 12.1262 51.6517C12.0489 51.82 12.0062 52.0021 12.0006 52.1872C11.995 52.3723 12.0266 52.5567 12.0936 52.7294C12.1606 52.902 12.2615 53.0595 12.3905 53.1924L15.1814 56.1759C15.3174 56.3234 15.4832 56.4404 15.6677 56.5192C15.8523 56.598 16.0514 56.6368 16.2521 56.633C16.4521 56.6325 16.6499 56.5917 16.8338 56.5132C17.0178 56.4346 17.184 56.3199 17.3227 56.1759L22.652 50.5578C22.7809 50.4249 22.8819 50.2675 22.9489 50.0948C23.0158 49.9221 23.0474 49.7378 23.0418 49.5526C23.0362 49.3675 22.9935 49.1854 22.9162 49.0172C22.8389 48.8489 22.7286 48.6978 22.5918 48.5729C22.3235 48.3055 21.9601 48.1554 21.5813 48.1554C21.2025 48.1554 20.8391 48.3055 20.5708 48.5729" fill="#FF6600"/>
<path d="M55.4216 51.9533L57.4546 49.9684C57.5863 49.8375 57.6908 49.682 57.7621 49.5106C57.8334 49.3393 57.8701 49.1555 57.8701 48.9699C57.8701 48.7843 57.8334 48.6005 57.7621 48.4292C57.6908 48.2578 57.5863 48.1022 57.4546 47.9714C57.1799 47.7117 56.8162 47.5669 56.4381 47.5669C56.06 47.5669 55.6963 47.7117 55.4216 47.9714L53.4005 49.9684L51.3675 48.0316C51.0927 47.7718 50.729 47.6271 50.351 47.6271C49.9729 47.6271 49.6092 47.7718 49.3344 48.0316C49.2028 48.1624 49.0983 48.3179 49.027 48.4893C48.9556 48.6606 48.9189 48.8445 48.9189 49.0301C48.9189 49.2157 48.9556 49.3994 49.027 49.5708C49.0983 49.7421 49.2028 49.8977 49.3344 50.0285L51.3675 52.0135L49.3344 53.9984C49.2028 54.1292 49.0983 54.2848 49.027 54.4562C48.9556 54.6275 48.9189 54.8113 48.9189 54.9969C48.9189 55.1825 48.9556 55.3663 49.027 55.5376C49.0983 55.709 49.2028 55.8645 49.3344 55.9954C49.6138 56.2507 49.9785 56.3923 50.357 56.3924C50.7298 56.3819 51.0872 56.2414 51.3675 55.9954L53.4005 53.9984L55.4216 55.9954C55.7009 56.2507 56.0657 56.3923 56.4441 56.3924C56.8169 56.3819 57.1744 56.2414 57.4546 55.9954C57.5863 55.8645 57.6908 55.709 57.7621 55.5376C57.8334 55.3663 57.8701 55.1825 57.8701 54.9969C57.8701 54.8113 57.8334 54.6275 57.7621 54.4562C57.6908 54.2848 57.5863 54.1292 57.4546 53.9984L55.4216 51.9533Z" fill="#FF6600"/>
</svg>
