<svg width="70" height="70" viewBox="0 0 70 70" fill="none" xmlns="http://www.w3.org/2000/svg">
<path d="M36.4695 28.3191C35.5655 26.1152 34.2458 24.1068 32.5824 22.4039L31.8293 21.8684C29.9411 20.1339 27.7165 18.8081 25.2941 17.9737C24.0545 17.562 22.7767 17.2766 21.48 17.1217L21.1399 17C20.5811 17 20.0223 17 19.4393 17C14.555 17.0064 9.87235 18.9517 6.41641 22.4099C2.96045 25.8681 1.01285 30.5574 1 35.4513C1.00345 36.3715 1.06838 37.2904 1.19435 38.2019C1.71246 41.8413 3.32222 45.237 5.81024 47.9388C6.00015 48.1615 6.20293 48.3728 6.4176 48.5717C8.11998 50.297 10.1481 51.6655 12.3838 52.5976C14.6194 53.5294 17.0179 54.0063 19.4393 53.9999C23.582 54.0114 27.6087 52.6283 30.8731 50.0723C34.1375 47.5167 36.4505 43.9364 37.4412 39.9059C37.8137 38.4505 38.0014 36.9538 38 35.4513C37.9866 33.9578 37.7991 32.4709 37.4412 31.021C37.1842 30.0976 36.8594 29.1945 36.4695 28.3191ZM26.3145 41.123C25.9552 41.5641 25.5568 41.9713 25.1241 42.3401C24.6771 42.7008 24.1972 43.0187 23.6907 43.2894C22.3912 44.0148 20.9269 44.3921 19.4393 44.3848C17.0777 44.3756 14.8156 43.4306 13.1471 41.7559C11.7964 40.3965 10.9183 38.6376 10.6427 36.7394C10.367 34.8411 10.7085 32.9044 11.6165 31.2158C11.8896 30.712 12.2153 30.2387 12.5883 29.8039C13.1234 29.1297 13.7632 28.5462 14.4833 28.0756C14.9551 27.7478 15.4599 27.4703 15.9895 27.248C17.4478 26.673 19.0324 26.4965 20.5811 26.7368C21.2621 26.8323 21.9302 27.0038 22.5732 27.248C23.0957 27.4468 23.5997 27.6912 24.0794 27.9783L24.7597 28.4408C25.1143 28.6972 25.4474 28.9821 25.7557 29.2927C26.5839 30.0728 27.2523 31.0071 27.7236 32.0434C28.1788 33.1213 28.4104 34.2808 28.4038 35.4513C28.4031 37.5307 27.6623 39.5417 26.3145 41.123Z" fill="white"/>
<path d="M57.3984 44.7737C58.8852 44.5476 60.2968 43.9842 61.5201 43.1285L62.1548 42.5333L70 47.691L69.1876 48.5093C67.4283 50.2488 65.333 51.6297 63.0231 52.5722C60.7132 53.5147 58.2347 54 55.7314 54C53.228 54 50.7495 53.5147 48.4396 52.5722C46.1297 51.6297 44.0346 50.2488 42.2752 48.5093C40.9765 47.2606 39.8729 45.8318 39 44.2691C40.2778 41.4939 40.9357 38.4845 40.9296 35.4416C40.9306 32.4017 40.2821 29.3951 39.0254 26.614C40.4456 24.0808 42.4534 21.9075 44.8882 20.2683C47.3228 18.629 50.1166 17.5694 53.046 17.1741C55.9754 16.7788 58.9588 17.0589 61.7572 17.992C64.5558 18.9251 67.0919 20.4852 69.1622 22.5474L69.9746 23.3409L62.1548 28.5234L61.5962 28.1018C59.9068 26.7929 57.8117 26.0845 55.6552 26.0933C54.1512 26.1334 52.6776 26.5174 51.353 27.2145C50.0285 27.9116 48.8898 28.9024 48.0283 30.1073C47.1669 31.3121 46.6068 32.6975 46.393 34.1521C46.1793 35.6067 46.3176 37.09 46.7972 38.4829C47.2766 39.8758 48.0839 41.1394 49.1543 42.1723C50.2245 43.2053 51.5277 43.9787 52.9596 44.4305C54.3913 44.8823 55.9116 44.9999 57.3984 44.7737Z" fill="white"/>
</svg>
