<svg id="Calque_1" data-name="Calque 1" xmlns="http://www.w3.org/2000/svg" viewBox="0 0 25.9 11.4"><defs><style>.cls-1{fill:#c0c7ce;}</style></defs><path class="cls-1" d="M5.7,0a5.7,5.7,0,1,0,5.7,5.7A5.76,5.76,0,0,0,5.7,0Zm0,8.6a3,3,0,0,1-3-3,3,3,0,0,1,3-3,3,3,0,0,1,3,3A3,3,0,0,1,5.7,8.6Z"/><path class="cls-1" d="M25.9,4.2h0A4.23,4.23,0,0,0,21.7,0H17.8a4.2,4.2,0,0,0-4.2,4.1v.1h0v7h2.7V8.3h3.5l1.6,2.9h3.4L23,8.1a3.91,3.91,0,0,0,2.9-3.9ZM21.6,5.7H16.3V4.2a1.45,1.45,0,0,1,1.5-1.4h3.8a1.52,1.52,0,0,1,1.5,1.4A1.54,1.54,0,0,1,21.6,5.7Z"/></svg>