<svg width="70" height="70" viewBox="0 0 70 70" fill="none" xmlns="http://www.w3.org/2000/svg">
<path d="M61.669 36.4376C61.3736 36.2569 61.0454 36.1372 60.7037 36.0855C60.362 36.0338 60.0135 36.0512 59.6785 36.1365C59.0195 36.3057 58.454 36.7316 58.106 37.3208L53.1496 45.7715V45.37L52.9107 44.3864L52.4529 42.5197C52.4594 42.473 52.4594 42.4257 52.4529 42.3791C50.0759 33.0852 44.1637 25.1097 35.997 20.1804C27.8302 15.2511 18.0665 13.7648 8.82071 16.0434C8.20282 16.2045 7.67263 16.6043 7.34483 17.1565C7.01702 17.7087 6.91795 18.3689 7.06904 18.9942V19.1347C7.14356 19.4438 7.27806 19.735 7.4648 19.9914C7.65154 20.2479 7.88682 20.4645 8.15703 20.6287C8.42723 20.7929 8.72702 20.9016 9.03909 20.9483C9.35116 20.9951 9.66933 20.979 9.97521 20.9011C17.9966 18.9131 26.4725 20.217 33.5413 24.5263C40.6101 28.8357 45.6937 35.7982 47.6756 43.8846L48.3922 46.755L45.088 44.7477L40.3704 41.8572C40.2731 41.8276 40.1692 41.8276 40.0719 41.8572C39.5221 41.6812 38.9293 41.6986 38.3905 41.9064C37.8518 42.1142 37.3989 42.5003 37.106 43.0014C36.7541 43.5928 36.6487 44.3006 36.8129 44.9701C36.977 45.6397 37.3972 46.2164 37.9818 46.5744L38.8775 47.1164L51.0197 54.5634C51.322 54.7544 51.6614 54.8776 52.015 54.9247C52.4203 55.0251 52.8437 55.0251 53.2491 54.9247C53.5745 54.8582 53.8833 54.7261 54.1569 54.5364C54.4305 54.3467 54.6634 54.1033 54.8415 53.8207V53.8207L62.6245 40.3116C62.9791 39.7196 63.0881 39.0105 62.9279 38.338C62.7677 37.6654 62.3511 37.0836 61.7685 36.7185" fill="#FF6600"/>
</svg>
