<svg width="70" height="70" viewBox="0 0 70 70" fill="none" xmlns="http://www.w3.org/2000/svg">
<path d="M52.2625 21.5674C52.735 21.0895 53 20.4444 53 19.7723C53 19.1002 52.735 18.4552 52.2625 17.9773L52.0432 17.738C51.5593 17.2623 50.9071 16.997 50.2286 17.0001V17.0001C49.8955 16.9979 49.5653 17.062 49.2572 17.1887C48.9491 17.3154 48.6693 17.5021 48.434 17.738L34.9941 31.1806L21.5742 17.738C21.0904 17.2623 20.4382 16.997 19.7597 17.0001C19.4266 16.9979 19.0964 17.062 18.7883 17.1887C18.4802 17.3154 18.2003 17.5021 17.965 17.738L17.7457 17.9773C17.5094 18.2127 17.3218 18.4924 17.1938 18.8005C17.0659 19.1085 17 19.4387 17 19.7723C17 20.1059 17.0659 20.4362 17.1938 20.7442C17.3218 21.0523 17.5094 21.332 17.7457 21.5674L31.1855 35.01L17.7457 48.4326C17.6274 48.5556 17.5206 48.6891 17.4266 48.8315C17.2349 49.106 17.1056 49.4192 17.0478 49.749C16.9221 50.3994 17.0582 51.0732 17.4266 51.6238C17.5103 51.7734 17.6181 51.9082 17.7457 52.0227L17.965 52.262C18.2003 52.4979 18.4802 52.6846 18.7883 52.8113C19.0964 52.9379 19.4266 53.0021 19.7597 52.9999V52.9999C20.0938 53.0022 20.4253 52.9413 20.7368 52.8204C20.893 52.7606 21.0406 52.6801 21.1754 52.5811C21.3169 52.4859 21.4503 52.3791 21.5742 52.262L34.9941 38.8194L48.434 52.262C48.6693 52.4979 48.9491 52.6846 49.2572 52.8113C49.5653 52.9379 49.8955 53.0021 50.2286 52.9999V52.9999C50.9071 53.003 51.5593 52.7377 52.0432 52.262L52.2625 52.0227C52.735 51.5448 53 50.8998 53 50.2277C53 49.5556 52.735 48.9105 52.2625 48.4326L38.8227 35.01L51.4848 22.3452L52.2625 21.5674Z" fill="#FF6600"/>
</svg>
