<svg width="70" height="70" viewBox="0 0 70 70" fill="none" xmlns="http://www.w3.org/2000/svg">
<rect width="70" height="70" fill="white"/>
<path d="M25.0013 37.83C24.9716 39.6602 25.4567 41.462 26.4013 43.03L26.5813 43.33H26.9313C27.9313 43.33 29.0713 43.24 30.2613 43.27H30.8613L30.6213 39.63L39.3013 39.78L38.9413 43.4H39.5413C40.6113 43.4 41.6213 43.4999 42.5413 43.5699H42.8913L43.0813 43.28C44.0781 41.7449 44.6222 39.9601 44.6513 38.13C44.6911 36.8627 44.4752 35.6003 44.0165 34.4183C43.5577 33.2362 42.8656 32.1587 41.9813 31.25C41.8013 31.07 41.5113 30.88 41.2713 30.64L41.5013 28.64C41.7325 27.5615 41.8564 26.4628 41.8713 25.36C42.0031 22.9085 41.4717 20.4668 40.3332 18.2917C39.1946 16.1167 37.4909 14.2887 35.4013 13C33.2681 14.2154 31.5022 15.9836 30.2897 18.1183C29.0771 20.2531 28.4627 22.6754 28.5113 25.13C28.4816 26.7011 28.6667 28.2689 29.0613 29.79V30.17C27.8457 31.053 26.8479 32.2023 26.1442 33.5298C25.4406 34.8574 25.0497 36.3282 25.0013 37.83M37.2613 25.83C36.8187 26.261 36.2581 26.5509 35.6506 26.663C35.0431 26.7751 34.4159 26.7043 33.8487 26.4596C33.2814 26.2149 32.7996 25.8073 32.4642 25.2885C32.1289 24.7696 31.9551 24.1629 31.9649 23.5452C31.9748 22.9275 32.1677 22.3266 32.5194 21.8187C32.8711 21.3108 33.3657 20.9187 33.9404 20.6921C34.5152 20.4656 35.1443 20.4148 35.7479 20.5461C36.3516 20.6775 36.9026 20.9851 37.3313 21.43C37.6158 21.7234 37.8397 22.07 37.9902 22.45C38.1406 22.8299 38.2147 23.2358 38.2082 23.6445C38.2017 24.0531 38.1148 24.4565 37.9523 24.8315C37.7898 25.2065 37.555 25.5458 37.2613 25.83Z" fill="#1A2442"/>
<path d="M35.2012 42.7599C36.6212 44.2599 37.7112 44.21 38.0712 47.46C38.0012 51.7 36.7412 54.87 34.9712 56.55C33.2512 54.81 32.1012 51.55 32.1812 47.36C32.6512 44.12 33.7412 44.2099 35.1812 42.7599" fill="#FF6600"/>
</svg>
