<svg xmlns="http://www.w3.org/2000/svg" viewBox="0 0 69.88 69.9"><defs><style>.cls-1{fill:#222852;}</style></defs><g id="Calque_2" data-name="Calque 2"><g id="Calque_1-2" data-name="Calque 1"><path class="cls-1" d="M68.77,63.42,51.64,46.16A28.77,28.77,0,0,0,8.39,8.41a28.9,28.9,0,0,0,0,40.73A28.54,28.54,0,0,0,46,51.68L63.18,68.76A3.79,3.79,0,0,0,66,69.9a4,4,0,0,0,2.8-1.14A3.76,3.76,0,0,0,68.77,63.42ZM28.84,49.84A21,21,0,0,1,14,43.71a21.23,21.23,0,0,1,0-29.78,21.06,21.06,0,0,1,29.71,0,20.51,20.51,0,0,1,6.12,14.89,21.05,21.05,0,0,1-6.12,14.89A20.71,20.71,0,0,1,28.84,49.84Z"/></g></g></svg>