<svg width="70" height="70" viewBox="0 0 70 70" fill="none" xmlns="http://www.w3.org/2000/svg">
<rect width="70" height="70" fill="white"/>
<path d="M39.9266 30.141L48.3898 33.8574C48.5854 33.9545 48.8028 34.0033 49.0226 33.9995C49.2427 34.0057 49.4606 33.9567 49.6554 33.8574L58.1299 30.141C58.3904 30.024 58.6108 29.8373 58.765 29.6029C58.9192 29.3685 59.0008 29.0963 59 28.8185V19.1779C59.0014 18.9014 58.92 18.6303 58.7656 18.3976C58.6112 18.1648 58.3904 17.9803 58.1299 17.8663L49.565 14.139C49.3754 14.0476 49.1666 14 48.9548 14C48.743 14 48.5341 14.0476 48.3446 14.139L39.8814 17.8663C39.6196 17.9798 39.3973 18.1639 39.241 18.3965C39.0846 18.6291 39.001 18.9005 39 19.1779V28.8185C39.0055 29.1021 39.096 29.3779 39.2605 29.6127C39.4249 29.8475 39.6563 30.031 39.9266 30.141V30.141ZM42.017 21.3967L47.5198 23.8452V30.3706L42.017 27.9659V21.3967ZM50.435 30.3269V23.8124L55.9378 21.364V27.8457L50.435 30.3269ZM48.9774 17.0137L53.8926 19.1998L48.9774 21.3859L44.0622 19.1998L48.9774 17.0137Z" fill="#1A2442"/>
<path d="M58.753 45.2514L56.4977 44.4536C56.3561 44.4536 56.2689 44.2678 56.1709 44.1257C56.0728 43.9836 56.1709 44.0273 56.0728 43.9399C56.0293 43.8012 56.0293 43.6524 56.0728 43.5137L57.0643 41.3935C57.1074 41.2926 57.1211 41.1815 57.1037 41.0732C57.0864 40.9648 57.0387 40.8637 56.9662 40.7815L55.2339 39.0437C55.1513 38.9722 55.0505 38.9251 54.9427 38.9077C54.835 38.8904 54.7245 38.9034 54.6238 38.9454L52.4447 39.9399C52.3064 39.9835 52.1581 39.9835 52.0198 39.9399C52.0198 39.9399 51.8782 39.9399 51.8346 39.8415C51.6906 39.7742 51.5749 39.6581 51.5077 39.5137L50.7015 37.3279C50.6571 37.2293 50.585 37.1458 50.4941 37.0875C50.4031 37.0293 50.2973 36.9989 50.1894 37H47.7489C47.6416 37.0016 47.5368 37.033 47.4464 37.0909C47.3559 37.1489 47.2834 37.2309 47.2368 37.3279L46.4414 39.5137C46.3633 39.6538 46.2459 39.7678 46.1037 39.8415C46.1037 39.8415 45.9621 39.8416 45.9185 39.9399C45.7802 39.9835 45.6319 39.9835 45.4936 39.9399L43.3908 38.9454C43.2898 38.9047 43.1796 38.8923 43.0721 38.9096C42.9646 38.9269 42.8638 38.9733 42.7806 39.0437L41.0374 40.7815C40.9656 40.8642 40.9191 40.9659 40.9036 41.0745C40.8881 41.1831 40.9043 41.2939 40.9503 41.3935L41.9308 43.5137C41.9743 43.6524 41.9743 43.8012 41.9308 43.9399C41.9308 43.9399 41.9308 44.082 41.8328 44.1257C41.7347 44.1694 41.6475 44.3552 41.5059 44.4536L39.3269 45.2514C39.2293 45.2999 39.1471 45.3747 39.0894 45.4673C39.0317 45.5599 39.0008 45.6668 39 45.776V48.2241C39.0027 48.3314 39.0346 48.4359 39.0922 48.5264C39.1498 48.617 39.2309 48.69 39.3269 48.7377L41.5059 49.5356C41.6474 49.6064 41.7621 49.7215 41.8328 49.8634C41.8328 49.8634 41.8328 50.0055 41.9308 50.0601C41.9742 50.1951 41.9742 50.3404 41.9308 50.4754L40.9503 52.5956C40.9057 52.6955 40.8902 52.806 40.9056 52.9143C40.9211 53.0226 40.9667 53.1243 41.0374 53.2077L42.7806 54.9563C42.8637 55.0272 42.9651 55.073 43.0731 55.0885C43.1811 55.1039 43.2912 55.0884 43.3908 55.0437L45.4936 54.0601C45.63 54.0059 45.782 54.0059 45.9185 54.0601C45.9185 54.0601 46.0601 54.0601 46.1037 54.1475C46.2555 54.2128 46.3764 54.3341 46.4414 54.4863L47.2368 56.6721C47.2834 56.7691 47.3559 56.8511 47.4464 56.9091C47.5368 56.967 47.6416 56.9984 47.7489 57H50.1894C50.2973 57.0011 50.4031 56.9707 50.4941 56.9125C50.585 56.8542 50.6571 56.7707 50.7015 56.6721L51.5077 54.4863C51.5778 54.3413 51.6923 54.2225 51.8346 54.1475C51.8346 54.1475 51.9762 54.1475 52.0198 54.0601C52.1563 54.0059 52.3082 54.0059 52.4447 54.0601L54.5584 55.0437C54.6584 55.0859 54.768 55.1001 54.8755 55.0847C54.983 55.0693 55.0843 55.0249 55.1685 54.9563L56.9009 53.2077C56.9722 53.1248 57.0191 53.0236 57.0364 52.9156C57.0538 52.8075 57.0408 52.6967 56.9989 52.5956L55.9639 50.4099C55.9204 50.2711 55.9204 50.1223 55.9639 49.9836C55.9639 49.9836 55.9639 49.8962 56.051 49.7978C56.0818 49.7228 56.1277 49.655 56.1858 49.5986C56.244 49.5422 56.313 49.4983 56.3888 49.4699L58.5678 48.6721C58.6781 48.6356 58.7741 48.5654 58.8425 48.4713C58.9109 48.3772 58.9482 48.264 58.9492 48.1476V45.6776C59.0799 45.5355 58.9383 45.3497 58.753 45.2514ZM49.1326 50.7158C48.4085 50.7158 47.7007 50.5005 47.0987 50.097C46.4967 49.6935 46.0275 49.12 45.7504 48.449C45.4734 47.778 45.4009 47.0396 45.5421 46.3273C45.6834 45.615 46.032 44.9607 46.544 44.4472C47.056 43.9336 47.7083 43.5839 48.4184 43.4422C49.1285 43.3005 49.8646 43.3732 50.5335 43.6511C51.2024 43.929 51.7742 44.3997 52.1764 45.0036C52.5787 45.6075 52.7934 46.3174 52.7934 47.0437C52.7905 48.0167 52.4039 48.9491 51.718 49.6371C51.0321 50.3252 50.1026 50.7129 49.1326 50.7158" fill="#1A2442"/>
<path d="M25 22H23V27H25V22Z" fill="#FF6600"/>
<path d="M25 37H23V50H25V37Z" fill="#FF6600"/>
<path d="M25.9761 29.0306H22.0239C21.7523 29.0306 21.4919 29.1379 21.2999 29.3289C21.1079 29.5199 21 29.7791 21 30.0493V33.9813C21 34.2515 21.1079 34.5106 21.2999 34.7016C21.4919 34.8927 21.7523 35 22.0239 35H25.9761C26.2477 35 26.5081 34.8927 26.7001 34.7016C26.8921 34.5106 27 34.2515 27 33.9813V30.0187C27 29.7485 26.8921 29.4894 26.7001 29.2984C26.5081 29.1073 26.2477 29 25.9761 29" fill="#1A2442"/>
<path d="M16 22H14V37H16V22Z" fill="#FF6600"/>
<path d="M16 47H14V50H16V47Z" fill="#FF6600"/>
<path d="M16.9779 39H13.0221C12.7511 39 12.4911 39.1077 12.2994 39.2994C12.1077 39.4911 12 39.7511 12 40.0221V43.9779C12 44.2489 12.1077 44.5089 12.2994 44.7006C12.4911 44.8923 12.7511 45 13.0221 45H16.9779C17.2489 45 17.5089 44.8923 17.7006 44.7006C17.8923 44.5089 18 44.2489 18 43.9779V40.0221C18 39.7511 17.8923 39.4911 17.7006 39.2994C17.5089 39.1077 17.2489 39 16.9779 39Z" fill="#1A2442"/>
<path d="M34 22H32V35H34V22Z" fill="#FF6600"/>
<path d="M34 45H32V50H34V45Z" fill="#FF6600"/>
<path d="M34.9761 37H31.0239C30.7523 37 30.4919 37.1077 30.2999 37.2994C30.1079 37.4911 30 37.7511 30 38.0221V41.9779C30 42.2489 30.1079 42.5089 30.2999 42.7006C30.4919 42.8923 30.7523 43 31.0239 43H34.9761C35.2477 43 35.5081 42.8923 35.7001 42.7006C35.8921 42.5089 36 42.2489 36 41.9779V38.0221C36 37.7511 35.8921 37.4911 35.7001 37.2994C35.5081 37.1077 35.2477 37 34.9761 37Z" fill="#1A2442"/>
</svg>
