<svg xmlns="http://www.w3.org/2000/svg" viewBox="0 0 52.72 52.72"><defs><style>.cls-1{fill:#242653;}.cls-2{fill:#f60;}</style></defs><g id="Calque_2" data-name="Calque 2"><g id="Calque_1-2" data-name="Calque 1"><path class="cls-1" d="M26.36,0A26.36,26.36,0,1,0,52.72,26.36,26.38,26.38,0,0,0,26.36,0Zm0,48.72A22.36,22.36,0,1,1,48.72,26.36,22.38,22.38,0,0,1,26.36,48.72Z"/><path class="cls-2" d="M26.36,40a1.72,1.72,0,0,1-1.21-.5,1.7,1.7,0,0,1,0-2.41,1.71,1.71,0,0,1,2.42,0,1.7,1.7,0,0,1,0,2.41A1.72,1.72,0,0,1,26.36,40ZM30.78,28a5.67,5.67,0,0,0-2.71,4.73v.52a1.69,1.69,0,0,1-.86,1.47,1.67,1.67,0,0,1-1.7,0,1.69,1.69,0,0,1-.86-1.47V32.7A9,9,0,0,1,29,25.11c3-1.93,2.57-4.07,2.44-4.77A5.24,5.24,0,0,0,27,16.14a5.13,5.13,0,0,0-5.73,5.13,1.71,1.71,0,0,1-3.42,0,8.54,8.54,0,0,1,9.53-8.54,8.66,8.66,0,0,1,7.38,6.83A7.72,7.72,0,0,1,30.78,28Z"/></g></g></svg>