<svg xmlns="http://www.w3.org/2000/svg" viewBox="0 0 44.06 44.06"><defs><style>.cls-1{fill:#242653;}</style></defs><g id="Calque_2" data-name="Calque 2"><g id="Calque_1-2" data-name="Calque 1"><path class="cls-1" d="M23.41,44.06V38.48A16.52,16.52,0,0,0,38.48,23.41h5.58V20.65H38.5A16.56,16.56,0,0,0,23.41,5.56V0H20.65V5.56A16.57,16.57,0,0,0,5.56,20.65H0v2.76H5.58A16.52,16.52,0,0,0,20.65,38.48v5.58Zm0-8.33h0V30.29H20.65v5.44A13.76,13.76,0,0,1,8.33,23.41h5.44V20.65H8.33A13.74,13.74,0,0,1,20.65,8.33v5.44h2.76V8.33A13.74,13.74,0,0,1,35.73,20.65H30.29v2.76h5.44A13.76,13.76,0,0,1,23.44,35.73Z"/></g></g></svg>