<svg xmlns="http://www.w3.org/2000/svg" viewBox="0 0 52.72 52.72"><defs><style>.cls-1{fill:#f60;fill-rule:evenodd;}.cls-2{fill:#242653;}</style></defs><g id="Calque_2" data-name="Calque 2"><g id="Calque_1-2" data-name="Calque 1"><path class="cls-1" d="M28.89,32.74a4.62,4.62,0,1,0,4.62-4.62,4.62,4.62,0,0,0-4.62,4.62Zm6.37,0A1.75,1.75,0,1,1,33.51,31,1.76,1.76,0,0,1,35.26,32.74ZM23.83,20a4.63,4.63,0,1,0-4.62,4.63A4.63,4.63,0,0,0,23.83,20Zm-6.37,0a1.75,1.75,0,1,1,1.75,1.75A1.74,1.74,0,0,1,17.46,20Zm16.69-2L20.91,36.6a1.68,1.68,0,0,1-2.18.32,1.43,1.43,0,0,1-.32-2L31.82,16.25a1.44,1.44,0,0,1,2.33,1.68Z"/><path class="cls-2" d="M26.36,52.72A26.36,26.36,0,1,1,52.72,26.36,26.39,26.39,0,0,1,26.36,52.72ZM26.36,4A22.36,22.36,0,1,0,48.72,26.36,22.38,22.38,0,0,0,26.36,4Z"/></g></g></svg>