<svg id="Calque_1" data-name="Calque 1" xmlns="http://www.w3.org/2000/svg" xmlns:xlink="http://www.w3.org/1999/xlink" viewBox="0 0 79.04 34.47"><defs><style>.cls-1{fill:#f6ab77;}.cls-2{fill:url(#Dégradé_sans_nom_10);}.cls-3{fill:url(#Dégradé_sans_nom_8);}.cls-4{fill:url(#Dégradé_sans_nom_5);}.cls-5{fill:url(#Dégradé_sans_nom_5-2);}.cls-6{fill:url(#Dégradé_sans_nom_5-3);}.cls-7{fill:url(#Dégradé_sans_nom_5-4);}.cls-8{fill:url(#Dégradé_sans_nom_5-5);}.cls-9{fill:url(#Dégradé_sans_nom_5-6);}.cls-10{fill:url(#Dégradé_sans_nom_2);}.cls-11{fill:url(#Dégradé_sans_nom_2-2);}.cls-12{fill:url(#Dégradé_sans_nom_2-3);}.cls-13{fill:url(#Dégradé_sans_nom_2-4);}.cls-14{fill:url(#Dégradé_sans_nom_2-5);}.cls-15{fill:url(#Dégradé_sans_nom_2-6);}</style><linearGradient id="Dégradé_sans_nom_10" x1="32.46" y1="25.86" x2="70.23" y2="-19.22" gradientUnits="userSpaceOnUse"><stop offset="0.02" stop-color="#eb5b1d"/><stop offset="1" stop-color="#f29106"/></linearGradient><linearGradient id="Dégradé_sans_nom_8" x1="7.53" y1="25.91" x2="33.97" y2="2.94" gradientUnits="userSpaceOnUse"><stop offset="0" stop-color="#e45e11"/><stop offset="1" stop-color="#eb5b1d"/></linearGradient><linearGradient id="Dégradé_sans_nom_5" x1="57.14" y1="6.55" x2="57.14" y2="27.5" gradientUnits="userSpaceOnUse"><stop offset="0" stop-color="#2a3180"/><stop offset="1" stop-color="#00a19a"/></linearGradient><linearGradient id="Dégradé_sans_nom_5-2" x1="56.88" y1="6.55" x2="56.88" y2="27.5" xlink:href="#Dégradé_sans_nom_5"/><linearGradient id="Dégradé_sans_nom_5-3" x1="57.04" y1="6.55" x2="57.04" y2="27.5" xlink:href="#Dégradé_sans_nom_5"/><linearGradient id="Dégradé_sans_nom_5-4" x1="56.68" y1="6.55" x2="56.68" y2="27.5" xlink:href="#Dégradé_sans_nom_5"/><linearGradient id="Dégradé_sans_nom_5-5" x1="56.18" y1="6.55" x2="56.18" y2="27.5" xlink:href="#Dégradé_sans_nom_5"/><linearGradient id="Dégradé_sans_nom_5-6" x1="56.44" y1="6.55" x2="56.44" y2="27.5" xlink:href="#Dégradé_sans_nom_5"/><linearGradient id="Dégradé_sans_nom_2" x1="22.17" y1="3.04" x2="118.48" y2="3.04" gradientUnits="userSpaceOnUse"><stop offset="0" stop-color="#0ab3d5"/><stop offset="1" stop-color="#acc917"/></linearGradient><linearGradient id="Dégradé_sans_nom_2-2" x1="22.17" y1="5.25" x2="118.48" y2="5.25" xlink:href="#Dégradé_sans_nom_2"/><linearGradient id="Dégradé_sans_nom_2-3" x1="22.17" y1="3.53" x2="118.48" y2="3.53" xlink:href="#Dégradé_sans_nom_2"/><linearGradient id="Dégradé_sans_nom_2-4" x1="22.17" y1="4.63" x2="118.48" y2="4.63" xlink:href="#Dégradé_sans_nom_2"/><linearGradient id="Dégradé_sans_nom_2-5" x1="22.17" y1="4.06" x2="118.48" y2="4.06" xlink:href="#Dégradé_sans_nom_2"/><linearGradient id="Dégradé_sans_nom_2-6" x1="22.17" y1="6.05" x2="118.48" y2="6.05" xlink:href="#Dégradé_sans_nom_2"/></defs><path class="cls-1" d="M77.25,1.89A6.27,6.27,0,1,0,79,6.35,6.28,6.28,0,0,0,77.25,1.89Z"/><path class="cls-1" d="M66.56,12.59a6.29,6.29,0,0,0-8.88-.1L46.22,23.7a6.27,6.27,0,0,0,1.56,10.1,6.15,6.15,0,0,0,2.82.67A6.27,6.27,0,0,0,55,32.69L66.45,21.47a6.29,6.29,0,0,0,.11-8.88Z"/><path class="cls-2" d="M55.41,1.89a6.29,6.29,0,0,0-8.88-.11L34.9,13.13,24.44,23.34h0l-.51.51a6.28,6.28,0,0,0-.77,7.72,6.46,6.46,0,0,0,.8,1,6.24,6.24,0,0,0,1.67,1.22,6.13,6.13,0,0,0,2.82.67,6.29,6.29,0,0,0,4.39-1.78L55.3,10.77A6.3,6.3,0,0,0,55.41,1.89Z"/><path class="cls-3" d="M33.24,1.89a6.27,6.27,0,0,0-8.87-.11L1.89,23.7A6.29,6.29,0,0,0,3.45,33.8a6.15,6.15,0,0,0,2.82.67,6.27,6.27,0,0,0,4.39-1.78L33.13,10.77A6.28,6.28,0,0,0,33.24,1.89Z"/><path class="cls-4" d="M57.11,5.35l.06.39Z"/><path class="cls-5" d="M56.81,4.15c0,.13.1.27.14.4C56.91,4.42,56.86,4.28,56.81,4.15Z"/><path class="cls-6" d="M57,4.7c0,.15.08.29.11.44C57.06,5,57,4.85,57,4.7Z"/><path class="cls-7" d="M56.61,3.66a2.92,2.92,0,0,1,.14.31A2.92,2.92,0,0,0,56.61,3.66Z"/><path class="cls-8" d="M56.18,2.85h0Z"/><path class="cls-9" d="M56.39,3.22a1.74,1.74,0,0,0,.11.18A1.74,1.74,0,0,1,56.39,3.22Z"/><path class="cls-10" d="M56.18,2.86c.08.11.14.24.21.36C56.32,3.1,56.26,3,56.18,2.86Z"/><path class="cls-11" d="M57.09,5.14c0,.07,0,.14,0,.21S57.1,5.21,57.09,5.14Z"/><path class="cls-12" d="M56.5,3.4l.11.26Z"/><path class="cls-13" d="M57,4.55l0,.15Z"/><path class="cls-14" d="M56.75,4a1.27,1.27,0,0,1,.06.18A1.27,1.27,0,0,0,56.75,4Z"/><path class="cls-15" d="M57.19,6.35c0-.2,0-.4,0-.61,0,.2,0,.41,0,.61Z"/></svg>