<svg xmlns="http://www.w3.org/2000/svg" xmlns:xlink="http://www.w3.org/1999/xlink" viewBox="0 0 127.55 26.58"><defs><style>.cls-1{fill:#242653;}.cls-2{fill:#f6ab77;}.cls-3{fill:url(#Dégradé_sans_nom_10);}.cls-4{fill:url(#Dégradé_sans_nom_34);}.cls-5{fill:url(#Dégradé_sans_nom_86);}.cls-6{fill:url(#Dégradé_sans_nom_86-2);}.cls-7{fill:url(#Dégradé_sans_nom_86-3);}.cls-8{fill:url(#Dégradé_sans_nom_86-4);}.cls-9{fill:url(#Dégradé_sans_nom_86-5);}.cls-10{fill:url(#Dégradé_sans_nom_86-6);}.cls-11{fill:url(#Dégradé_sans_nom_4);}.cls-12{fill:url(#Dégradé_sans_nom_4-2);}.cls-13{fill:url(#Dégradé_sans_nom_4-3);}.cls-14{fill:url(#Dégradé_sans_nom_4-4);}.cls-15{fill:url(#Dégradé_sans_nom_4-5);}.cls-16{fill:url(#Dégradé_sans_nom_4-6);}.cls-17{fill:#9395aa;}</style><linearGradient id="Dégradé_sans_nom_10" x1="15.72" y1="13.2" x2="34.01" y2="-8.63" gradientUnits="userSpaceOnUse"><stop offset="0.02" stop-color="#ff5800"/><stop offset="1" stop-color="#f29104"/></linearGradient><linearGradient id="Dégradé_sans_nom_34" x1="3.65" y1="13.22" x2="16.45" y2="2.1" gradientUnits="userSpaceOnUse"><stop offset="0" stop-color="#ff471b"/><stop offset="1" stop-color="#ff5800"/></linearGradient><linearGradient id="Dégradé_sans_nom_86" x1="27.67" y1="3.84" x2="27.67" y2="13.99" gradientUnits="userSpaceOnUse"><stop offset="0" stop-color="#2d2e83"/><stop offset="1" stop-color="#00a19a"/></linearGradient><linearGradient id="Dégradé_sans_nom_86-2" x1="27.55" y1="3.84" x2="27.55" y2="13.99" xlink:href="#Dégradé_sans_nom_86"/><linearGradient id="Dégradé_sans_nom_86-3" x1="27.62" y1="3.84" x2="27.62" y2="13.99" xlink:href="#Dégradé_sans_nom_86"/><linearGradient id="Dégradé_sans_nom_86-4" x1="27.45" y1="3.84" x2="27.45" y2="13.99" xlink:href="#Dégradé_sans_nom_86"/><linearGradient id="Dégradé_sans_nom_86-5" x1="27.21" y1="3.84" x2="27.21" y2="13.99" xlink:href="#Dégradé_sans_nom_86"/><linearGradient id="Dégradé_sans_nom_86-6" x1="27.33" y1="3.84" x2="27.33" y2="13.99" xlink:href="#Dégradé_sans_nom_86"/><linearGradient id="Dégradé_sans_nom_4" x1="10.73" y1="2.15" x2="57.38" y2="2.15" gradientUnits="userSpaceOnUse"><stop offset="0" stop-color="#00b3d5"/><stop offset="1" stop-color="#acc90e"/></linearGradient><linearGradient id="Dégradé_sans_nom_4-2" x1="10.73" y1="3.21" x2="57.38" y2="3.21" xlink:href="#Dégradé_sans_nom_4"/><linearGradient id="Dégradé_sans_nom_4-3" x1="10.73" y1="2.38" x2="57.38" y2="2.38" xlink:href="#Dégradé_sans_nom_4"/><linearGradient id="Dégradé_sans_nom_4-4" x1="10.73" y1="2.91" x2="57.38" y2="2.91" xlink:href="#Dégradé_sans_nom_4"/><linearGradient id="Dégradé_sans_nom_4-5" x1="10.73" y1="2.64" x2="57.38" y2="2.64" xlink:href="#Dégradé_sans_nom_4"/><linearGradient id="Dégradé_sans_nom_4-6" x1="10.73" y1="3.6" x2="57.38" y2="3.6" xlink:href="#Dégradé_sans_nom_4"/></defs><g id="Calque_2" data-name="Calque 2"><g id="Calque_1-2" data-name="Calque 1"><path class="cls-1" d="M59.66,3.55h0a4.87,4.87,0,0,0-2.75-.78,5.39,5.39,0,0,0-2.76.73,5.45,5.45,0,0,0-1.56,1.43,5.06,5.06,0,0,0-1.4-1.37,4.92,4.92,0,0,0-2.75-.78,5.23,5.23,0,0,0-4.71,2.77,6.54,6.54,0,0,0-.75,3v0a.61.61,0,0,0,0,.14v6.8a1.12,1.12,0,0,0,.32.81,1.15,1.15,0,0,0,.81.32,1.1,1.1,0,0,0,.83-.33,1.12,1.12,0,0,0,.3-.8V9h0V8.56A3.49,3.49,0,0,1,46.09,6,3.1,3.1,0,0,1,48.44,5a2.64,2.64,0,0,1,2.15,1,4.12,4.12,0,0,1,.86,2.7v6.8a1.09,1.09,0,0,0,.33.81,1.12,1.12,0,0,0,1.93-.81V9h0V8.55A3.46,3.46,0,0,1,54.57,6,3.08,3.08,0,0,1,56.91,5a2.66,2.66,0,0,1,2.16,1,4.12,4.12,0,0,1,.86,2.7v6.8a1.09,1.09,0,0,0,1.13,1.13,1.08,1.08,0,0,0,.82-.33,1.13,1.13,0,0,0,.31-.8V8.73a6.85,6.85,0,0,0-.67-3.06A5.26,5.26,0,0,0,59.66,3.55Z"/><path class="cls-1" d="M67.38.82A1.13,1.13,0,1,0,68.51,2,1.14,1.14,0,0,0,67.38.82Z"/><path class="cls-1" d="M67.38,4.22a1.16,1.16,0,0,0-.8.31,1.11,1.11,0,0,0-.33.82V15.53a1.12,1.12,0,0,0,.32.81,1.13,1.13,0,0,0,.81.32,1.1,1.1,0,0,0,.83-.33,1.12,1.12,0,0,0,.3-.8V5.35a1.09,1.09,0,0,0-.31-.81A1.12,1.12,0,0,0,67.38,4.22Z"/><path class="cls-1" d="M80,14.38h-.52a2.55,2.55,0,0,1-1.88-.73,2.62,2.62,0,0,1-.73-1.93V6.17h2.68a1,1,0,0,0,.76-.3,1,1,0,0,0,.3-.76,1,1,0,0,0-.3-.76,1.06,1.06,0,0,0-.76-.3H76.88V1.92a1.16,1.16,0,0,0-.32-.83,1.16,1.16,0,0,0-.83-.32,1.13,1.13,0,0,0-.81.32,1.16,1.16,0,0,0-.32.83V4.05H73.18a1,1,0,0,0-1.06,1.06,1.08,1.08,0,0,0,.3.76,1,1,0,0,0,.76.3H74.6v5.55a5.14,5.14,0,0,0,.61,2.52A4.55,4.55,0,0,0,77,16a5.13,5.13,0,0,0,2.52.65H80a1.09,1.09,0,0,0,.83-.32,1.12,1.12,0,0,0,.33-.81A1.13,1.13,0,0,0,80,14.38Z"/><path class="cls-1" d="M108.15,3.44h0a6.93,6.93,0,0,0-2.93-.62,6.13,6.13,0,0,0-3.36.93,6.43,6.43,0,0,0-2.29,2.5,7.57,7.57,0,0,0-.83,3.56,7.14,7.14,0,0,0,.89,3.55,6.71,6.71,0,0,0,5.94,3.45,6.54,6.54,0,0,0,4.57-1.69,1,1,0,0,0,.34-.79,1.11,1.11,0,0,0-.37-.77,1,1,0,0,0-.79-.28,1.24,1.24,0,0,0-.72.32,3.51,3.51,0,0,1-1.34.78,5.44,5.44,0,0,1-1.69.26,4.33,4.33,0,0,1-4-2.35A5.19,5.19,0,0,1,101,9.81a5.6,5.6,0,0,1,.54-2.52A4.17,4.17,0,0,1,103,5.6,4,4,0,0,1,105.22,5a4.4,4.4,0,0,1,3.5,1.63,1.12,1.12,0,0,0,.73.42,1,1,0,0,0,.75-.19,1.09,1.09,0,0,0,.5-.7,1,1,0,0,0-.23-.83A6.21,6.21,0,0,0,108.15,3.44Z"/><path class="cls-1" d="M125.7,5.7h0a5.58,5.58,0,0,0-2.3-2.19,7.06,7.06,0,0,0-3.24-.74,6.18,6.18,0,0,0-3,.73,5.86,5.86,0,0,0-1.09.75V1.13a1.14,1.14,0,0,0-.31-.82A1.12,1.12,0,0,0,115,0a1.14,1.14,0,0,0-.8.3,1.1,1.1,0,0,0-.33.83v14.4A1.09,1.09,0,0,0,115,16.66a1.09,1.09,0,0,0,1.13-1.13V8.33a2.91,2.91,0,0,1,.51-1.67,3.51,3.51,0,0,1,1.44-1.18,5.09,5.09,0,0,1,4.23,0,3.49,3.49,0,0,1,1.45,1.35,4.59,4.59,0,0,1,.54,2.35v6.33a1.14,1.14,0,0,0,1.93.81,1.09,1.09,0,0,0,.33-.81V9.2A6.82,6.82,0,0,0,125.7,5.7Z"/><path class="cls-1" d="M92.77,3.69a6.68,6.68,0,0,0-6.66,0,6.37,6.37,0,0,0-2.29,2.48A7.62,7.62,0,0,0,83,9.81a7.35,7.35,0,0,0,.88,3.6,6.37,6.37,0,0,0,2.43,2.48,7,7,0,0,0,3.52.89,7.32,7.32,0,0,0,2.47-.47,6.52,6.52,0,0,0,2.1-1.21,1,1,0,0,0,.36-.81,1.06,1.06,0,0,0-.41-.77,1.08,1.08,0,0,0-.76-.26,1.12,1.12,0,0,0-.73.32,3.6,3.6,0,0,1-1.32.74,5.18,5.18,0,0,1-1.71.3A4.62,4.62,0,0,1,87.45,14a4.29,4.29,0,0,1-1.61-1.69,5,5,0,0,1-.57-2.11,7,7,0,0,1,.54-2.94,5.17,5.17,0,0,1,1-1.3,6,6,0,0,1,.5-.38A4,4,0,0,1,89.47,5a4.09,4.09,0,0,1,2.23.6,4,4,0,0,1,1.46,1.68,4.62,4.62,0,0,1,.4,1.32h-3.4a1,1,0,1,0,0,2.06h4.56a1.12,1.12,0,0,0,.78-.29,1.05,1.05,0,0,0,.32-.79A7.35,7.35,0,0,0,95,6.1,6.08,6.08,0,0,0,92.77,3.69Z"/><path class="cls-2" d="M37.41,1.59a3,3,0,1,0-4.35,4.25,3.12,3.12,0,0,0,.81.59,3,3,0,0,0,1.36.32,3,3,0,0,0,2.18-5.16Z"/><path class="cls-2" d="M32.23,6.77a3,3,0,0,0-4.3,0l-5.55,5.43a3.05,3.05,0,0,0-.05,4.3,3,3,0,0,0,2.18.92,3.07,3.07,0,0,0,2.12-.86l5.55-5.44a3,3,0,0,0,0-4.3Z"/><path class="cls-3" d="M26.83,1.59a3,3,0,0,0-4.3-.05L16.9,7l-5.07,5h0l-.24.24A3,3,0,0,0,11.21,16a2.63,2.63,0,0,0,.39.49,3.22,3.22,0,0,0,.81.6,3.12,3.12,0,0,0,1.36.32,3.07,3.07,0,0,0,2.13-.86L26.78,5.89A3,3,0,0,0,26.83,1.59Z"/><path class="cls-4" d="M16.1,1.59a3,3,0,0,0-4.3-.05L.92,12.15a3,3,0,0,0-.06,4.3,3.16,3.16,0,0,0,.81.6A3.16,3.16,0,0,0,3,17.37a3.07,3.07,0,0,0,2.12-.86L16.05,5.89A3,3,0,0,0,16.1,1.59Z"/><path class="cls-5" d="M27.66,3.26a1.36,1.36,0,0,1,0,.2A1.36,1.36,0,0,0,27.66,3.26Z"/><path class="cls-6" d="M27.51,2.68a1.59,1.59,0,0,1,.07.2A1.59,1.59,0,0,0,27.51,2.68Z"/><path class="cls-7" d="M27.6,3c0,.07,0,.14,0,.22C27.63,3.09,27.62,3,27.6,3Z"/><path class="cls-8" d="M27.42,2.45l.06.15Z"/><path class="cls-9" d="M27.21,2.06Z"/><path class="cls-10" d="M27.31,2.23l.05.09Z"/><path class="cls-11" d="M27.21,2.06l.1.17Z"/><path class="cls-12" d="M27.65,3.17a.28.28,0,0,0,0,.09A.28.28,0,0,1,27.65,3.17Z"/><path class="cls-13" d="M27.36,2.32l.06.13Z"/><path class="cls-14" d="M27.58,2.88s0,.05,0,.07S27.59,2.9,27.58,2.88Z"/><path class="cls-15" d="M27.48,2.6a.26.26,0,0,1,0,.08A.26.26,0,0,0,27.48,2.6Z"/><path class="cls-16" d="M27.7,3.75a2.64,2.64,0,0,0,0-.29,2.64,2.64,0,0,1,0,.29Z"/><path class="cls-17" d="M43.21,24.84a.37.37,0,0,1-.27-.11.4.4,0,0,1-.11-.27V19.53a.41.41,0,0,1,.11-.28.39.39,0,0,1,.6.1l2.28,4.57h-.23l2.22-4.57a.38.38,0,0,1,.34-.2.35.35,0,0,1,.26.1.37.37,0,0,1,.11.28v4.93a.38.38,0,0,1-.37.38.37.37,0,0,1-.27-.11.36.36,0,0,1-.11-.27V20.58l.14,0L46,24.43a.41.41,0,0,1-.33.19.37.37,0,0,1-.35-.23l-1.89-3.78.15,0v3.88a.4.4,0,0,1-.11.27A.37.37,0,0,1,43.21,24.84Z"/><path class="cls-17" d="M52.3,24.87a2.12,2.12,0,0,1-1-.26,2,2,0,0,1-.71-.72,2.31,2.31,0,0,1,0-2.09,1.89,1.89,0,0,1,.71-.72,2.12,2.12,0,0,1,1-.26,2.07,2.07,0,0,1,1,.26,1.82,1.82,0,0,1,.71.72,2.23,2.23,0,0,1,0,2.09,1.86,1.86,0,0,1-.7.72A2.08,2.08,0,0,1,52.3,24.87Zm0-.66A1.36,1.36,0,0,0,53,24a1.25,1.25,0,0,0,.45-.49,1.42,1.42,0,0,0,.16-.7,1.46,1.46,0,0,0-.16-.71,1.25,1.25,0,0,0-.45-.49,1.36,1.36,0,0,0-.67-.17,1.31,1.31,0,0,0-.67.17,1.21,1.21,0,0,0-.46.49,1.46,1.46,0,0,0-.17.71,1.42,1.42,0,0,0,.17.7,1.21,1.21,0,0,0,.46.49A1.31,1.31,0,0,0,52.3,24.21Z"/><path class="cls-17" d="M56.36,24.84a.34.34,0,0,1-.37-.37V21.22a.33.33,0,0,1,.1-.26.39.39,0,0,1,.54,0,.33.33,0,0,1,.1.26v3.25a.34.34,0,0,1-.37.37Zm3,0a.34.34,0,0,1-.26-.1.37.37,0,0,1-.11-.27V22.68a1.37,1.37,0,0,0-.15-.68,1,1,0,0,0-.41-.39,1.43,1.43,0,0,0-.6-.12,1.23,1.23,0,0,0-.55.12.91.91,0,0,0-.39.33.81.81,0,0,0-.15.48h-.46A1.53,1.53,0,0,1,57.1,21a1.81,1.81,0,0,1,.87-.21,1.93,1.93,0,0,1,.9.21,1.51,1.51,0,0,1,.62.63,2,2,0,0,1,.23,1v1.79a.34.34,0,0,1-.37.37Z"/><path class="cls-17" d="M63.41,24.87a2.24,2.24,0,0,1-1.08-.26,1.87,1.87,0,0,1-.73-.72,2,2,0,0,1-.27-1,2.2,2.2,0,0,1,.25-1.05,1.8,1.8,0,0,1,.7-.72,2,2,0,0,1,1-.26,1.78,1.78,0,0,1,1,.26,1.56,1.56,0,0,1,.63.69,2.31,2.31,0,0,1,.21,1A.32.32,0,0,1,65,23a.36.36,0,0,1-.24.09H61.84v-.58h2.91l-.29.2a1.68,1.68,0,0,0-.15-.65,1.07,1.07,0,0,0-.39-.45,1.13,1.13,0,0,0-.62-.17,1.31,1.31,0,0,0-.71.18,1.15,1.15,0,0,0-.45.5,1.66,1.66,0,0,0-.15.72,1.39,1.39,0,0,0,.18.71,1.33,1.33,0,0,0,.5.5,1.5,1.5,0,0,0,.74.18,1.54,1.54,0,0,0,.46-.08,1.35,1.35,0,0,0,.38-.2.41.41,0,0,1,.24-.08.34.34,0,0,1,.22.07.36.36,0,0,1,.13.25.24.24,0,0,1-.11.22,2.13,2.13,0,0,1-.62.32A2.32,2.32,0,0,1,63.41,24.87Z"/><path class="cls-17" d="M68.21,24.68a.33.33,0,0,1-.45-.18l-1.67-3.17a.3.3,0,0,1,0-.26.32.32,0,0,1,.19-.19.34.34,0,0,1,.26,0,.32.32,0,0,1,.19.19l1.59,3.16a.48.48,0,0,1,.06.27A.24.24,0,0,1,68.21,24.68Zm-.86,1.9a.41.41,0,0,1-.17,0,.31.31,0,0,1-.18-.46l2.22-5a.32.32,0,0,1,.46-.17.31.31,0,0,1,.19.46l-2.23,5A.3.3,0,0,1,67.35,26.58Z"/><path class="cls-17" d="M71.6,24.84a.37.37,0,0,1-.27-.11.4.4,0,0,1-.11-.27V19.53a.41.41,0,0,1,.11-.28.41.41,0,0,1,.54,0,.41.41,0,0,1,.11.28v4.93a.4.4,0,0,1-.11.27A.37.37,0,0,1,71.6,24.84Z"/><path class="cls-17" d="M74.31,24.84a.35.35,0,0,1-.26-.1.37.37,0,0,1-.11-.27V21.22a.33.33,0,0,1,.11-.26.36.36,0,0,1,.26-.11.34.34,0,0,1,.27.11.33.33,0,0,1,.11.26v3.25a.37.37,0,0,1-.11.27A.33.33,0,0,1,74.31,24.84Zm3,0a.34.34,0,0,1-.37-.37V22.68a1.37,1.37,0,0,0-.16-.68,1,1,0,0,0-.41-.39,1.38,1.38,0,0,0-.59-.12,1.28,1.28,0,0,0-.56.12,1,1,0,0,0-.39.33.8.8,0,0,0-.14.48h-.46a1.5,1.5,0,0,1,.22-.82,1.6,1.6,0,0,1,.61-.57,1.74,1.74,0,0,1,.86-.21,1.87,1.87,0,0,1,.9.21,1.47,1.47,0,0,1,.63.63,2.13,2.13,0,0,1,.23,1v1.79a.37.37,0,0,1-.11.27A.35.35,0,0,1,77.31,24.84Z"/><path class="cls-17" d="M79.32,21.63a.32.32,0,0,1-.24-.09.27.27,0,0,1-.1-.22.26.26,0,0,1,.1-.23.32.32,0,0,1,.24-.09H81a.32.32,0,0,1,.24.09.26.26,0,0,1,.1.23.27.27,0,0,1-.1.22.32.32,0,0,1-.24.09Zm1.62,3.21a1.27,1.27,0,0,1-.66-.19,1.25,1.25,0,0,1-.45-.51,1.42,1.42,0,0,1-.17-.72V20a.34.34,0,0,1,.1-.26.35.35,0,0,1,.26-.1.33.33,0,0,1,.26.1.35.35,0,0,1,.11.26v3.47a.72.72,0,0,0,.16.49.47.47,0,0,0,.39.2h.25a.27.27,0,0,1,.22.1.39.39,0,0,1,.09.26.31.31,0,0,1-.12.26.45.45,0,0,1-.31.11Z"/><path class="cls-17" d="M84.86,24.87a2.2,2.2,0,0,1-1.07-.26,2,2,0,0,1-.74-.72,2.27,2.27,0,0,1,0-2.09,1.8,1.8,0,0,1,.7-.72,2,2,0,0,1,1-.26,1.8,1.8,0,0,1,1,.26,1.54,1.54,0,0,1,.62.69,2.18,2.18,0,0,1,.22,1,.29.29,0,0,1-.1.23.32.32,0,0,1-.24.09H83.3v-.58h2.91l-.3.2a1.51,1.51,0,0,0-.14-.65,1.17,1.17,0,0,0-.4-.45,1.09,1.09,0,0,0-.61-.17,1.31,1.31,0,0,0-.71.18,1.15,1.15,0,0,0-.45.5,1.66,1.66,0,0,0-.16.72,1.3,1.3,0,0,0,.19.71,1.33,1.33,0,0,0,.5.5,1.46,1.46,0,0,0,.73.18,1.6,1.6,0,0,0,.47-.08,1.5,1.5,0,0,0,.38-.2.41.41,0,0,1,.24-.08.36.36,0,0,1,.22.07.41.41,0,0,1,.13.25.28.28,0,0,1-.12.22,2,2,0,0,1-.61.32A2.32,2.32,0,0,1,84.86,24.87Z"/><path class="cls-17" d="M88.46,24.84a.33.33,0,0,1-.27-.1.37.37,0,0,1-.09-.27V21.22a.37.37,0,0,1,.09-.27.33.33,0,0,1,.27-.1.37.37,0,0,1,.27.09.4.4,0,0,1,.1.28v3.25a.34.34,0,0,1-.37.37Zm0-2.49a1.49,1.49,0,0,1,.22-.79,1.54,1.54,0,0,1,.58-.55,1.67,1.67,0,0,1,.8-.2,1.23,1.23,0,0,1,.65.14c.14.1.2.21.16.34a.27.27,0,0,1-.08.16.37.37,0,0,1-.14.07.56.56,0,0,1-.18,0,2.13,2.13,0,0,0-.83,0,1.22,1.22,0,0,0-.59.3.78.78,0,0,0-.21.56Z"/><path class="cls-17" d="M92.59,24.84a.34.34,0,0,1-.37-.37V21.22a.33.33,0,0,1,.1-.26.39.39,0,0,1,.54,0,.33.33,0,0,1,.1.26v3.25a.34.34,0,0,1-.37.37Zm3,0a.35.35,0,0,1-.26-.1.37.37,0,0,1-.11-.27V22.68a1.37,1.37,0,0,0-.15-.68,1,1,0,0,0-.41-.39,1.43,1.43,0,0,0-.6-.12,1.23,1.23,0,0,0-.55.12.91.91,0,0,0-.39.33.81.81,0,0,0-.15.48H92.5a1.59,1.59,0,0,1,.22-.82,1.67,1.67,0,0,1,.61-.57,1.81,1.81,0,0,1,.87-.21,1.93,1.93,0,0,1,.9.21,1.51,1.51,0,0,1,.62.63,2,2,0,0,1,.23,1v1.79a.34.34,0,0,1-.37.37Z"/><path class="cls-17" d="M99.43,24.87a1.74,1.74,0,0,1-1-.27,1.91,1.91,0,0,1-.66-.72,2.07,2.07,0,0,1-.25-1,2,2,0,0,1,.27-1,2.07,2.07,0,0,1,.72-.72,2.06,2.06,0,0,1,2,0,2.07,2.07,0,0,1,.72.72,2,2,0,0,1,.26,1h-.28a2.17,2.17,0,0,1-.24,1,2,2,0,0,1-.67.72A1.73,1.73,0,0,1,99.43,24.87Zm.14-.66a1.25,1.25,0,0,0,1.12-.67,1.31,1.31,0,0,0,.17-.69,1.35,1.35,0,0,0-.17-.7,1.25,1.25,0,0,0-1.12-.67,1.26,1.26,0,0,0-.66.18,1.28,1.28,0,0,0-.46.49,1.35,1.35,0,0,0-.17.7,1.31,1.31,0,0,0,.17.69,1.28,1.28,0,0,0,.46.49A1.26,1.26,0,0,0,99.57,24.21Zm1.63.63a.35.35,0,0,1-.26-.1.37.37,0,0,1-.11-.27V23.36l.14-.77.6.26v1.62a.34.34,0,0,1-.37.37Z"/><path class="cls-17" d="M103.1,21.63a.33.33,0,0,1-.25-.09.3.3,0,0,1-.1-.22.29.29,0,0,1,.1-.23.33.33,0,0,1,.25-.09h1.68a.37.37,0,0,1,.25.09.29.29,0,0,1,.09.23.29.29,0,0,1-.09.22.37.37,0,0,1-.25.09Zm1.61,3.21a1.25,1.25,0,0,1-1.11-.7,1.53,1.53,0,0,1-.17-.72V20a.38.38,0,0,1,.1-.26.36.36,0,0,1,.27-.1.35.35,0,0,1,.26.1.34.34,0,0,1,.1.26v3.47a.72.72,0,0,0,.16.49.5.5,0,0,0,.39.2H105a.27.27,0,0,1,.22.1.39.39,0,0,1,.09.26.31.31,0,0,1-.12.26.45.45,0,0,1-.31.11Z"/><path class="cls-17" d="M107.21,20.21a.5.5,0,0,1-.48-.49.45.45,0,0,1,.14-.33.46.46,0,0,1,.68,0,.45.45,0,0,1,.14.33.5.5,0,0,1-.48.49Zm0,4.63a.37.37,0,0,1-.27-.11.36.36,0,0,1-.1-.27V21.22a.33.33,0,0,1,.1-.26.39.39,0,0,1,.54,0,.33.33,0,0,1,.1.26v3.24a.36.36,0,0,1-.1.27A.37.37,0,0,1,107.21,24.84Z"/><path class="cls-17" d="M111.35,24.87a2.08,2.08,0,0,1-1-.26,1.89,1.89,0,0,1-.71-.72,2.23,2.23,0,0,1,0-2.09,1.82,1.82,0,0,1,.71-.72,2.21,2.21,0,0,1,2.08,0,1.89,1.89,0,0,1,.71.72,2.23,2.23,0,0,1,0,2.09,1.82,1.82,0,0,1-.71.72A2.06,2.06,0,0,1,111.35,24.87Zm0-.66A1.31,1.31,0,0,0,112,24a1.21,1.21,0,0,0,.46-.49,1.42,1.42,0,0,0,.16-.7,1.46,1.46,0,0,0-.16-.71,1.21,1.21,0,0,0-.46-.49,1.31,1.31,0,0,0-.67-.17,1.22,1.22,0,0,0-1.13.66,1.46,1.46,0,0,0-.16.71,1.42,1.42,0,0,0,.16.7,1.22,1.22,0,0,0,1.13.66Z"/><path class="cls-17" d="M115.42,24.84a.36.36,0,0,1-.27-.1.37.37,0,0,1-.11-.27V21.22a.33.33,0,0,1,.11-.26.39.39,0,0,1,.54,0,.36.36,0,0,1,.1.26v3.25a.41.41,0,0,1-.1.27A.36.36,0,0,1,115.42,24.84Zm3,0a.34.34,0,0,1-.37-.37V22.68a1.27,1.27,0,0,0-.16-.68,1,1,0,0,0-.41-.39,1.38,1.38,0,0,0-.59-.12,1.23,1.23,0,0,0-.55.12,1,1,0,0,0-.4.33.87.87,0,0,0-.14.48h-.46a1.5,1.5,0,0,1,.22-.82,1.6,1.6,0,0,1,.61-.57,1.78,1.78,0,0,1,.87-.21,1.86,1.86,0,0,1,.89.21,1.47,1.47,0,0,1,.63.63,2.13,2.13,0,0,1,.23,1v1.79a.37.37,0,0,1-.11.27A.34.34,0,0,1,118.41,24.84Z"/><path class="cls-17" d="M122.25,24.87a1.73,1.73,0,0,1-1-.27,2,2,0,0,1-.67-.72,2.17,2.17,0,0,1-.24-1,2.11,2.11,0,0,1,.26-1,2,2,0,0,1,.73-.72,2.06,2.06,0,0,1,2,0,2.07,2.07,0,0,1,.72.72,2.11,2.11,0,0,1,.26,1h-.28a2.07,2.07,0,0,1-.25,1,1.91,1.91,0,0,1-.66.72A1.74,1.74,0,0,1,122.25,24.87Zm.15-.66a1.25,1.25,0,0,0,1.12-.67,1.41,1.41,0,0,0,.17-.69,1.45,1.45,0,0,0-.17-.7,1.25,1.25,0,0,0-1.12-.67,1.26,1.26,0,0,0-.66.18,1.3,1.3,0,0,0-.47.49,1.45,1.45,0,0,0-.17.7,1.41,1.41,0,0,0,.17.69,1.3,1.3,0,0,0,.47.49A1.26,1.26,0,0,0,122.4,24.21Zm1.63.63a.34.34,0,0,1-.37-.37V23.36l.14-.77.6.26v1.62a.36.36,0,0,1-.1.27A.38.38,0,0,1,124,24.84Z"/><path class="cls-17" d="M127,24.84a.92.92,0,0,1-.57-.18,1.09,1.09,0,0,1-.39-.48,1.67,1.67,0,0,1-.14-.69v-4a.36.36,0,0,1,.11-.26.33.33,0,0,1,.26-.1.34.34,0,0,1,.26.1.35.35,0,0,1,.1.26v4a.92.92,0,0,0,.1.44.31.31,0,0,0,.27.18h.18a.31.31,0,0,1,.24.1.39.39,0,0,1,.09.26.3.3,0,0,1-.14.26.57.57,0,0,1-.36.11Z"/></g></g></svg>