<svg xmlns="http://www.w3.org/2000/svg" viewBox="0 0 124.35 15.43"><defs><style>.cls-1{fill:#1d1d3c;}.cls-2{fill:#f60;}</style></defs><g id="Calque_2" data-name="Calque 2"><g id="Calque_1-2" data-name="Calque 1"><path class="cls-1" d="M39.43,3.86h3.49a4.9,4.9,0,0,1,2.22.48,3.64,3.64,0,0,1,1.5,1.35,3.83,3.83,0,0,1,.53,2,3.86,3.86,0,0,1-.53,2,3.64,3.64,0,0,1-1.5,1.35,4.9,4.9,0,0,1-2.22.47H39.43Zm3.41,6.24a2.58,2.58,0,0,0,1.84-.64,2.27,2.27,0,0,0,.69-1.75A2.27,2.27,0,0,0,44.68,6a2.58,2.58,0,0,0-1.84-.64H41.21V10.1Z"/><path class="cls-1" d="M54,9.91H50.43l-.68,1.65H47.92l3.43-7.7h1.76l3.45,7.7H54.69Zm-.56-1.35L52.22,5.61,51,8.56Z"/><path class="cls-1" d="M59.1,5.32H56.63V3.86h6.71V5.32H60.88v6.24H59.1Z"/><path class="cls-1" d="M69.52,9.91H65.94l-.68,1.65H63.43l3.44-7.7h1.76l3.44,7.7H70.2ZM69,8.56,67.74,5.61l-1.23,3Z"/><path class="cls-1" d="M82.12,9.91H78.54l-.68,1.65H76l3.43-7.7h1.76l3.45,7.7H82.8Zm-.57-1.35L80.33,5.61l-1.22,3Z"/><path class="cls-1" d="M93.06,3.86v7.7H91.6L87.76,6.89v4.67H86V3.86h1.47L91.3,8.54V3.86Z"/><path class="cls-1" d="M100.49,9.91H96.91l-.68,1.65H94.4l3.44-7.7H99.6l3.44,7.7h-1.87Zm-.56-1.35L98.71,5.61l-1.22,3Z"/><path class="cls-1" d="M104.37,3.86h1.79v6.25H110v1.45h-5.65Z"/><path class="cls-1" d="M114.45,8.84v2.72h-1.78V8.81l-3-5h1.89l2.06,3.42,2-3.42h1.75Z"/><path class="cls-1" d="M119.32,11.45a4.26,4.26,0,0,1-1.37-.64l.6-1.35a4.08,4.08,0,0,0,1.18.59,4.67,4.67,0,0,0,1.37.22,2.18,2.18,0,0,0,1.12-.23.68.68,0,0,0,.36-.6.6.6,0,0,0-.21-.46,1.9,1.9,0,0,0-.55-.29c-.23-.07-.53-.15-.91-.24A12.05,12.05,0,0,1,119.47,8a2.23,2.23,0,0,1-1-.67,1.81,1.81,0,0,1-.41-1.23,2.11,2.11,0,0,1,.37-1.22,2.4,2.4,0,0,1,1.09-.86,4.55,4.55,0,0,1,1.79-.32,5.8,5.8,0,0,1,1.44.18,4,4,0,0,1,1.23.5l-.55,1.36a4.22,4.22,0,0,0-2.13-.61,2,2,0,0,0-1.11.24.73.73,0,0,0-.35.64.61.61,0,0,0,.41.59,6.5,6.5,0,0,0,1.26.38,13.28,13.28,0,0,1,1.44.42,2.44,2.44,0,0,1,1,.66,1.76,1.76,0,0,1,.4,1.22,2.05,2.05,0,0,1-.37,1.2,2.38,2.38,0,0,1-1.1.87,4.55,4.55,0,0,1-1.79.32A6.52,6.52,0,0,1,119.32,11.45Z"/><path class="cls-2" d="M24.74.05h0Z"/><polygon class="cls-2" points="24.62 3.63 24.62 3.63 24.63 3.63 24.62 3.63"/><path class="cls-2" d="M29.86,4.15a5.23,5.23,0,0,0-3-3.57,5.31,5.31,0,0,0-.55-.23l-.15,0a5.09,5.09,0,0,0-.77-.19,2.13,2.13,0,0,0-.25,0,4.41,4.41,0,0,0-.52,0,4.36,4.36,0,0,0-.51,0,1.9,1.9,0,0,0-.25,0,4.94,4.94,0,0,0-.78.19l-.14,0c-.19.06-.37.15-.56.23a5.26,5.26,0,0,0-3,3.57L17.92,10a1.89,1.89,0,0,1-1.17,1.38,2.08,2.08,0,0,1-.66.11H13.77v3.93h2.32a4,4,0,0,0,.49,0,5.92,5.92,0,0,0,3.77-1.77A5.25,5.25,0,0,0,21.43,12a14.26,14.26,0,0,0,.62-2.14l1.35-5.3a1.23,1.23,0,0,1,1.22-1h0a1.24,1.24,0,0,1,1.23,1l1.59,7.87a3.93,3.93,0,0,0,3.84,3,2.76,2.76,0,0,0,1-.15Z"/><path class="cls-1" d="M12.92,11.58h-7a2,2,0,1,1,0-4h5.68a1.28,1.28,0,0,0,1.27-1.27h0V0H9V2.86c0,1.06.15.91-.91.91H5.87A5.88,5.88,0,0,0,0,9.56H0v.07H0a5.88,5.88,0,0,0,5.87,5.8h7.06Z"/></g></g></svg>