<svg xmlns="http://www.w3.org/2000/svg" viewBox="0 0 76.46 45.52"><defs><style>.cls-1{fill:#fff;opacity:0;}.cls-2{fill:#1d1d3c;}.cls-3{fill:#f60;}</style></defs><g id="Calque_2" data-name="Calque 2"><g id="Calque_1-2" data-name="Calque 1"><rect class="cls-1" width="76.46" height="45.52"/><path class="cls-2" d="M29.29,12.64l5.07,0V8.87H29.23A7,7,0,0,0,22.32,16v8.3h3.75V20.36H32.3V16.59l-6.23,0v-.51A3.43,3.43,0,0,1,29.29,12.64Z"/><path class="cls-3" d="M54.14,18.49h0a5.82,5.82,0,0,0-5.81-5.74h-3.2a1.89,1.89,0,0,0-1.89,1.88h0a1.91,1.91,0,0,0,1.87,1.93h3.22a2,2,0,1,1,0,3.93H44.54A3.44,3.44,0,0,1,41.42,17V8.87H37.66v8.27a7.06,7.06,0,0,0,6.79,7.15h3.88a5.82,5.82,0,0,0,5.81-5.74h0v-.07Z"/><polygon class="cls-2" points="5.89 34.64 7.2 34.64 7.2 32.64 9.71 32.64 9.71 31.61 7.2 31.61 7.2 30.15 10.08 30.15 10.08 29.12 5.89 29.12 5.89 34.64"/><path class="cls-2" d="M15.91,32.17a1.91,1.91,0,0,0,.29-1.06,2,2,0,0,0-.28-1.05,2,2,0,0,0-.84-.69,3.14,3.14,0,0,0-1.28-.25H11.42v5.52h1.3V33.11h1.15l1.07,1.53,1.37,0-1.24-1.77A1.93,1.93,0,0,0,15.91,32.17Zm-1.31-.3a1.33,1.33,0,0,1-.84.26h-1V30.2h1a1.27,1.27,0,0,1,.84.25v0a.83.83,0,0,1,.3.69A.87.87,0,0,1,14.6,31.87Z"/><path class="cls-2" d="M21.9,29.43a3.45,3.45,0,0,0-3.1,0,2.85,2.85,0,0,0-1.08,1,3,3,0,0,0,0,2.93,2.76,2.76,0,0,0,1.08,1v0a3.39,3.39,0,0,0,3.1,0,2.93,2.93,0,0,0,1.08-1,2.88,2.88,0,0,0,0-2.92A3,3,0,0,0,21.9,29.43Zm0,3.37a1.75,1.75,0,0,1-.62.62,1.88,1.88,0,0,1-1.77,0,1.63,1.63,0,0,1-.62-.63,2.17,2.17,0,0,1,0-1.82,1.63,1.63,0,0,1,.62-.63,1.81,1.81,0,0,1,1.73,0,1.78,1.78,0,0,1,.62.63,1.9,1.9,0,0,1,.21.91A2,2,0,0,1,21.86,32.8Z"/><polygon class="cls-2" points="28.35 32.48 25.6 29.12 24.54 29.12 24.54 34.64 25.81 34.64 25.81 31.29 28.56 34.64 29.6 34.64 29.6 29.12 28.35 29.12 28.35 32.48"/><polygon class="cls-2" points="31.05 30.16 32.81 30.16 32.81 34.64 34.09 34.64 34.09 30.16 35.85 30.16 35.85 29.12 31.05 29.12 31.05 30.16"/><path class="cls-2" d="M42.83,31.77a1.32,1.32,0,0,0,.53-.49,1.42,1.42,0,0,0,.2-.72,1.22,1.22,0,0,0-.54-1,2.74,2.74,0,0,0-1.55-.39h-2.7v5.5H41.6a2.87,2.87,0,0,0,1.67-.39,1.27,1.27,0,0,0,.56-1.12,1.36,1.36,0,0,0-.26-.83A1.53,1.53,0,0,0,42.83,31.77ZM40,30.09h1.27a1.29,1.29,0,0,1,.72.16l.12.11a.62.62,0,0,1-.12.86,1.39,1.39,0,0,1-.72.17H40Zm2.25,3.43a1.43,1.43,0,0,1-.76.16H40V32.32h1.49c.68,0,1,.22,1,.69A.58.58,0,0,1,42.29,33.52Z"/><path class="cls-2" d="M49.59,32.17a1.95,1.95,0,0,0-.82-2.8,3.28,3.28,0,0,0-1.28-.25H45.11v5.52h1.27V33.11h1.17l1.07,1.53,1.37,0-1.24-1.77A1.87,1.87,0,0,0,49.59,32.17Zm-1.29-.3a1.34,1.34,0,0,1-.88.26h-1V30.2h1a1.33,1.33,0,0,1,.88.25v0a.86.86,0,0,1,.29.69A.9.9,0,0,1,48.3,31.87Z"/><path class="cls-2" d="M53.39,29.12l-2.46,5.52h1.35l.49-1.18h2.52l.5,1.18h1.34l-2.51-5.52Zm-.18,3.37.84-2.11.83,2.11Z"/><polygon class="cls-2" points="62.25 32.48 59.51 29.12 58.45 29.12 58.45 34.64 59.72 34.64 59.72 31.29 62.47 34.64 63.51 34.64 63.51 29.12 62.25 29.12 62.25 32.48"/><path class="cls-2" d="M70.18,30.43a2.61,2.61,0,0,0-1.07-1,3.49,3.49,0,0,0-1.59-.35H65v5.52h2.51a3.48,3.48,0,0,0,1.59-.34,2.45,2.45,0,0,0,1.07-1,3,3,0,0,0,0-2.9Zm-1.41,2.73a1.87,1.87,0,0,1-1.32.47H66.28V30.21h1.17a1.81,1.81,0,0,1,1.32.46,1.71,1.71,0,0,1,.5,1.25A1.62,1.62,0,0,1,68.77,33.16Z"/></g></g></svg>