<?xml version="1.0" encoding="utf-8"?>
<!-- Generator: Adobe Illustrator 25.4.1, SVG Export Plug-In . SVG Version: 6.00 Build 0)  -->
<svg version="1.1" id="Calque_1" xmlns="http://www.w3.org/2000/svg" xmlns:xlink="http://www.w3.org/1999/xlink" x="0px" y="0px"
	 viewBox="0 0 70 70" style="enable-background:new 0 0 70 70;" xml:space="preserve">
<style type="text/css">
	.st0{fill:#FFFFFF;}
</style>
<g>
	<path class="st0" d="M15.7,15.4c-8.3,0.1-14.9,7-14.8,15.3v17.8h8V40l13.4,0v-8.1L8.9,32v-1.1c-0.1-3.8,3.1-7.4,6.9-7.4l10.9,0
		v-8.1h-9.1H15.7z"/>
	<path class="st0" d="M69.1,36L69.1,36c-0.1-6.8-5.6-12.3-12.5-12.3h-6.9c-2.2,0-4,1.8-4,4c0,2.2,1.8,4.1,4,4.1h6.9
		c2.3,0,4.2,1.9,4.3,4.2c0,2.3-1.9,4.2-4.3,4.2h-8.1c-3.7-0.2-6.7-3.7-6.7-7.4V15.4v0h-8.1v0c0,4.3,0,17.7,0,17.7
		c-0.1,8.2,6.4,15,14.5,15.3l8.3,0c6.8,0,12.4-5.5,12.4-12.3h0C69.1,36.1,69.1,36.1,69.1,36C69.1,36,69.1,36,69.1,36z"/>
</g>
</svg>
