<svg xmlns="http://www.w3.org/2000/svg" viewBox="0 0 123.47 15.43"><defs><style>.cls-1{fill:#1d1d3c;}.cls-2{fill:#f60;}</style></defs><g id="Calque_2" data-name="Calque 2"><g id="Calque_1-2" data-name="Calque 1"><path class="cls-1" d="M7,3.78H12V0H6.91A7,7,0,0,0,0,7.13v8.3H3.75V11.49H10V7.73l-6.23,0V7.24A3.41,3.41,0,0,1,7,3.78Z"/><polygon class="cls-1" points="37.11 11.44 38.86 11.44 38.86 8.76 42.22 8.76 42.22 7.38 38.86 7.38 38.86 5.44 42.71 5.44 42.71 4.07 37.11 4.07 37.11 11.44"/><path class="cls-1" d="M50.49,8.13a2.41,2.41,0,0,0,.39-1.41,2.57,2.57,0,0,0-.38-1.4,2.74,2.74,0,0,0-1.12-.93,4.32,4.32,0,0,0-1.7-.32H44.5v7.37h1.73v-2h1.54l1.42,2,1.83,0L49.37,9.05A2.57,2.57,0,0,0,50.49,8.13Zm-1.75-.39a1.73,1.73,0,0,1-1.12.34H46.23V5.5h1.4a1.73,1.73,0,0,1,1.12.34v0a1.13,1.13,0,0,1,.41.93A1.2,1.2,0,0,1,48.74,7.74Z"/><path class="cls-1" d="M58.48,4.48a4.62,4.62,0,0,0-4.13,0,3.69,3.69,0,0,0-1.44,1.33,3.88,3.88,0,0,0,0,3.9,3.69,3.69,0,0,0,1.44,1.36v0a4.49,4.49,0,0,0,4.13,0,3.77,3.77,0,0,0,1.45-1.35,3.9,3.9,0,0,0,0-3.91A3.9,3.9,0,0,0,58.48,4.48Zm0,4.49a2.23,2.23,0,0,1-.83.84,2.34,2.34,0,0,1-1.24.29,2.24,2.24,0,0,1-2-1.14,2.39,2.39,0,0,1-.23-1.21,2.49,2.49,0,0,1,.29-1.22,2.21,2.21,0,0,1,.82-.84,2.59,2.59,0,0,1,1.12-.29,2.55,2.55,0,0,1,1.19.29,2.23,2.23,0,0,1,.83.84,2.74,2.74,0,0,1,.29,1.22A2.44,2.44,0,0,1,58.43,9Z"/><polygon class="cls-1" points="67.09 8.55 63.42 4.07 62.01 4.07 62.01 11.44 63.7 11.44 63.7 6.96 67.38 11.44 68.77 11.44 68.77 4.07 67.09 4.07 67.09 8.55"/><polygon class="cls-1" points="70.7 5.46 73.05 5.46 73.05 11.44 74.77 11.44 74.77 5.46 77.12 5.46 77.12 4.07 70.7 4.07 70.7 5.46"/><path class="cls-1" d="M86.43,7.61A1.74,1.74,0,0,0,87.4,6a1.61,1.61,0,0,0-.71-1.39,3.6,3.6,0,0,0-2.07-.52H81V11.4h3.78A3.85,3.85,0,0,0,87,10.89a1.68,1.68,0,0,0,.75-1.49,1.86,1.86,0,0,0-.35-1.12A1.93,1.93,0,0,0,86.43,7.61ZM82.71,5.36H84.4a1.82,1.82,0,0,1,1,.21,1.06,1.06,0,0,1,.15.15.83.83,0,0,1-.15,1.15,1.82,1.82,0,0,1-1,.22H82.71Zm3,4.58a1.87,1.87,0,0,1-1,.22h-2V8.34h2c.9,0,1.36.3,1.36.91A.74.74,0,0,1,85.71,9.94Z"/><path class="cls-1" d="M95.46,8.13a2.35,2.35,0,0,0,.4-1.41,2.45,2.45,0,0,0-1.5-2.33,4.25,4.25,0,0,0-1.7-.32H89.47v7.37h1.7v-2h1.57l1.42,2,1.84,0L94.34,9.05A2.46,2.46,0,0,0,95.46,8.13Zm-1.72-.39a1.78,1.78,0,0,1-1.18.34H91.17V5.5h1.39a1.78,1.78,0,0,1,1.18.34v0a1.22,1.22,0,0,1,.39.93A1.22,1.22,0,0,1,93.74,7.74Z"/><path class="cls-1" d="M100.54,4.07l-3.3,7.37h1.81l.66-1.58h3.36l.67,1.58h1.79l-3.36-7.37Zm-.25,4.5,1.12-2.82,1.12,2.82Z"/><polygon class="cls-1" points="112.36 8.55 108.7 4.07 107.29 4.07 107.29 11.44 108.98 11.44 108.98 6.96 112.65 11.44 114.05 11.44 114.05 4.07 112.36 4.07 112.36 8.55"/><path class="cls-1" d="M123,5.82a3.46,3.46,0,0,0-1.42-1.29,4.76,4.76,0,0,0-2.13-.46H116v7.37h3.36a4.73,4.73,0,0,0,2.13-.46A3.34,3.34,0,0,0,123,9.69a3.67,3.67,0,0,0,.52-1.94A3.63,3.63,0,0,0,123,5.82Zm-1.88,3.65a2.5,2.5,0,0,1-1.76.61h-1.56V5.51h1.56a2.57,2.57,0,0,1,1.76.62,2.25,2.25,0,0,1,.66,1.67A2.19,2.19,0,0,1,121.07,9.47Z"/><path class="cls-2" d="M31.82,9.62h0A5.82,5.82,0,0,0,26,3.88H22.81a1.89,1.89,0,0,0-1.89,1.88h0A1.92,1.92,0,0,0,22.8,7.69H26a2,2,0,1,1,0,3.93h-3.8a3.43,3.43,0,0,1-3.11-3.46V0H15.34V8.27a7.06,7.06,0,0,0,6.79,7.15H26a5.82,5.82,0,0,0,5.8-5.74h0V9.62Z"/></g></g></svg>