<?xml version="1.0" encoding="utf-8"?>
<!-- Generator: Adobe Illustrator 25.4.1, SVG Export Plug-In . SVG Version: 6.00 Build 0)  -->
<svg version="1.1" id="Calque_1" xmlns="http://www.w3.org/2000/svg" xmlns:xlink="http://www.w3.org/1999/xlink" x="0px" y="0px"
	 viewBox="0 0 91.2 17.3" style="enable-background:new 0 0 91.2 17.3;" xml:space="preserve">
<style type="text/css">
	.st0{fill:#C0C7CE;}
</style>
<g>
	<path class="st0" d="M5.3,3C2.4,3,0.2,5.4,0.2,8.2v6.1H3v-2.9l4.6,0V8.6L3,8.7V8.3C2.9,7,4,5.8,5.3,5.7l3.7,0V3H5.9H5.3z"/>
	<polygon class="st0" points="27.5,11.4 28.8,11.4 28.8,9.4 31.2,9.4 31.2,8.4 28.8,8.4 28.8,7 31.6,7 31.6,6 27.5,6 	"/>
	<path class="st0" d="M37.3,8.9c0.2-0.3,0.3-0.7,0.3-1c0-0.4-0.1-0.7-0.3-1c-0.2-0.3-0.5-0.5-0.8-0.7C36.1,6,35.7,6,35.3,6h-2.3v5.4
		h1.3V9.9h1.1l1,1.5l1.3,0l-1.2-1.7C36.8,9.5,37.1,9.3,37.3,8.9z M36,8.7c-0.2,0.2-0.5,0.3-0.8,0.2h-1V7h1c0.3,0,0.6,0.1,0.8,0.2v0
		c0.2,0.2,0.3,0.4,0.3,0.7C36.4,8.2,36.3,8.5,36,8.7z"/>
	<path class="st0" d="M43.2,6.3c-1-0.5-2.1-0.5-3,0c-0.4,0.2-0.8,0.6-1.1,1c-0.5,0.9-0.5,2,0,2.9c0.3,0.4,0.6,0.8,1.1,1v0
		c1,0.5,2.1,0.5,3,0c0.4-0.2,0.8-0.6,1.1-1c0.5-0.9,0.5-2,0-2.9C44,6.8,43.6,6.5,43.2,6.3z M43.2,9.6c-0.1,0.3-0.4,0.5-0.6,0.6
		c-0.3,0.2-0.6,0.2-0.9,0.2c-0.3,0-0.6-0.1-0.8-0.2c-0.3-0.1-0.5-0.4-0.6-0.6C40.1,9.3,40,9,40,8.7c0-0.3,0.1-0.6,0.2-0.9
		c0.1-0.3,0.4-0.5,0.6-0.6c0.3-0.1,0.5-0.2,0.8-0.2c0.3,0,0.6,0.1,0.9,0.2c0.3,0.1,0.5,0.4,0.6,0.6c0.1,0.3,0.2,0.6,0.2,0.9
		C43.4,9,43.3,9.3,43.2,9.6z"/>
	<polygon class="st0" points="49.5,9.3 46.8,6 45.8,6 45.8,11.4 47,11.4 47,8.1 49.7,11.4 50.8,11.4 50.8,6 49.5,6 	"/>
	<polygon class="st0" points="52.2,7 53.9,7 53.9,11.4 55.2,11.4 55.2,7 56.9,7 56.9,6 52.2,6 	"/>
	<path class="st0" d="M63.7,8.6c0.2-0.1,0.4-0.3,0.5-0.5c0.1-0.2,0.2-0.5,0.2-0.7c0-0.4-0.2-0.8-0.5-1c-0.5-0.3-1-0.4-1.5-0.4h-2.6
		v5.4h2.8c0.6,0,1.1-0.1,1.6-0.4c0.4-0.2,0.6-0.7,0.6-1.1c0-0.3-0.1-0.6-0.3-0.8C64.3,8.8,64,8.6,63.7,8.6z M61,6.9h1.2
		c0.2,0,0.5,0,0.7,0.2c0,0,0.1,0.1,0.1,0.1c0.2,0.3,0.2,0.6-0.1,0.8c-0.2,0.1-0.5,0.2-0.7,0.2H61V6.9z M63.2,10.3
		c-0.2,0.1-0.5,0.2-0.7,0.2H61V9.1h1.5c0.7,0,1,0.2,1,0.7C63.5,10,63.4,10.2,63.2,10.3z"/>
	<path class="st0" d="M70.4,8.9c0.2-0.3,0.3-0.7,0.3-1c0-0.7-0.4-1.4-1.1-1.7C69.2,6,68.7,6,68.3,6H66v5.4h1.3V9.9h1.2l1,1.5l1.3,0
		l-1.2-1.7C69.9,9.5,70.2,9.3,70.4,8.9z M69.1,8.7c-0.2,0.2-0.6,0.3-0.9,0.2h-1V7h1c0.3,0,0.6,0.1,0.9,0.2v0
		c0.2,0.2,0.3,0.4,0.3,0.7C69.4,8.2,69.3,8.5,69.1,8.7z"/>
	<path class="st0" d="M74.1,6l-2.4,5.4H73l0.5-1.2H76l0.5,1.2h1.3L75.3,6H74.1z M73.9,9.3l0.8-2.1l0.8,2.1H73.9z"/>
	<polygon class="st0" points="82.8,9.3 80.1,6 79.1,6 79.1,11.4 80.3,11.4 80.3,8.1 83,11.4 84,11.4 84,6 82.8,6 	"/>
	<path class="st0" d="M90.6,7.2c-0.3-0.4-0.6-0.7-1-0.9C89,6.1,88.5,6,88,6h-2.5v5.4H88c0.5,0,1.1-0.1,1.6-0.3
		c0.4-0.2,0.8-0.5,1-0.9c0.3-0.4,0.4-0.9,0.4-1.4C91,8.2,90.8,7.7,90.6,7.2z M89.2,9.9c-0.4,0.3-0.8,0.5-1.3,0.5h-1.2V7h1.2
		c0.5,0,0.9,0.1,1.3,0.5c0.3,0.3,0.5,0.8,0.5,1.2C89.7,9.2,89.5,9.6,89.2,9.9z"/>
	<path class="st0" d="M23.6,10c0-2.3-1.9-4.2-4.3-4.2H17c-0.8,0-1.4,0.6-1.4,1.4c0,0.8,0.6,1.4,1.4,1.4h2.4c0.8,0,1.5,0.6,1.5,1.4
		c0,0.8-0.7,1.4-1.5,1.4h-2.8c-1.3-0.1-2.3-1.3-2.3-2.5V3v0h-2.8v0c0,1.5,0,6.1,0,6.1c0,2.8,2.2,5.1,5,5.3l2.9,0
		C21.7,14.3,23.6,12.4,23.6,10L23.6,10C23.6,10.1,23.6,10.1,23.6,10C23.6,10.1,23.6,10,23.6,10L23.6,10z"/>
</g>
</svg>
