<svg xmlns="http://www.w3.org/2000/svg" viewBox="0 0 91.16 17.28"><defs><style>.cls-1{fill:#c0c7ce;}</style></defs><g id="Calque_2" data-name="Calque 2"><g id="Calque_1-2" data-name="Calque 1"><path class="cls-1" d="M8.64,0A6.93,6.93,0,0,0,2,4.91L0,15.13H4.29l.5-2.7H8.62l.74-3.92H5.52L6,5.73A2.43,2.43,0,0,1,8.34,3.92h1.88L10.94,0H8.64"/><path class="cls-1" d="M13.92,0H12.41l-.06.32-.67,3.6h2.71a2.35,2.35,0,0,1,2,2.25,2.34,2.34,0,0,1-2,2.25H10.82l-.06.32-.66,3.6,3,4.94h4.77l-3-5A6.76,6.76,0,0,0,19.08,10a6.92,6.92,0,0,0,.52-.69c.11-.17.21-.35.31-.53L20,8.54a5.08,5.08,0,0,0,.31-.85,4.13,4.13,0,0,0,.13-.61,6,6,0,0,0,.08-.94c0-.2,0-.41,0-.61a6,6,0,0,0-1.47-3.25L18.85,2c-.15-.15-.31-.27-.48-.41l-.09-.07A6.57,6.57,0,0,0,16.77.62,6.83,6.83,0,0,0,13.92,0"/><path class="cls-1" d="M26.87,6.6V8H29.4v1H26.87v2H25.61V5.59h4.13v1Z"/><path class="cls-1" d="M34.61,11l-1-1.52H32.4V11H31.13V5.59H33.5a3.08,3.08,0,0,1,1.26.24,1.81,1.81,0,0,1,.82.69,1.88,1.88,0,0,1,.29,1.05,1.79,1.79,0,0,1-1.12,1.72L36,11Zm-.32-4.18a1.32,1.32,0,0,0-.86-.24h-1v1.9h1a1.32,1.32,0,0,0,.86-.25.87.87,0,0,0,.3-.7A.87.87,0,0,0,34.29,6.86Z"/><path class="cls-1" d="M38.53,10.77a2.78,2.78,0,0,1,0-4.91,3.43,3.43,0,0,1,3.06,0,2.81,2.81,0,0,1,1.07,1,2.87,2.87,0,0,1,0,2.89,2.81,2.81,0,0,1-1.07,1,3.43,3.43,0,0,1-3.06,0Zm2.4-.93a1.68,1.68,0,0,0,.62-.62,2,2,0,0,0,0-1.81,1.68,1.68,0,0,0-.62-.62,1.83,1.83,0,0,0-1.74,0,1.68,1.68,0,0,0-.62.62,2,2,0,0,0,0,1.81,1.68,1.68,0,0,0,.62.62,1.83,1.83,0,0,0,1.74,0Z"/><path class="cls-1" d="M49.55,5.59V11h-1L45.79,7.73V11H44.54V5.59h1L48.3,8.9V5.59Z"/><path class="cls-1" d="M52.52,6.62H50.77v-1h4.76v1H53.78V11H52.52Z"/><path class="cls-1" d="M64.25,8.7a1.39,1.39,0,0,1,.26.85,1.23,1.23,0,0,1-.56,1.1,2.81,2.81,0,0,1-1.62.39H59.5V5.59h2.67A2.62,2.62,0,0,1,63.7,6a1.21,1.21,0,0,1,.54,1,1.33,1.33,0,0,1-.19.71,1.42,1.42,0,0,1-.54.49A1.39,1.39,0,0,1,64.25,8.7ZM60.76,6.54V7.82H62a1.29,1.29,0,0,0,.71-.16A.55.55,0,0,0,63,7.18a.53.53,0,0,0-.24-.48A1.29,1.29,0,0,0,62,6.54ZM63,9.93a.56.56,0,0,0,.25-.51c0-.45-.33-.68-1-.68H60.76v1.35h1.47A1.51,1.51,0,0,0,63,9.93Z"/><path class="cls-1" d="M69.49,11l-1-1.52H67.27V11H66V5.59h2.36a3,3,0,0,1,1.26.24,1.81,1.81,0,0,1,1.12,1.74,1.79,1.79,0,0,1-.3,1,1.82,1.82,0,0,1-.83.68L70.85,11Zm-.32-4.18a1.37,1.37,0,0,0-.87-.24h-1v1.9h1a1.37,1.37,0,0,0,.87-.25.87.87,0,0,0,.3-.7A.87.87,0,0,0,69.17,6.86Z"/><path class="cls-1" d="M75.89,9.87H73.35L72.87,11h-1.3L74,5.59h1.25L77.7,11H76.37Zm-.4-1-.87-2.08-.86,2.08Z"/><path class="cls-1" d="M83.82,5.59V11h-1L80.06,7.73V11H78.81V5.59h1L82.57,8.9V5.59Z"/><path class="cls-1" d="M85.66,5.59h2.49a3.45,3.45,0,0,1,1.57.34,2.51,2.51,0,0,1,1.06,1,2.7,2.7,0,0,1,.38,1.43,2.71,2.71,0,0,1-.38,1.44,2.57,2.57,0,0,1-1.06.95,3.45,3.45,0,0,1-1.57.34H85.66ZM88.08,10a1.86,1.86,0,0,0,1.31-.45,1.65,1.65,0,0,0,.49-1.24,1.61,1.61,0,0,0-.49-1.23,1.87,1.87,0,0,0-1.31-.46H86.93V10Z"/></g></g></svg>