<svg xmlns="http://www.w3.org/2000/svg" viewBox="0 0 106.68 22.23"><defs><style>.cls-1{fill:#c0c7ce;}</style></defs><g id="Calque_2" data-name="Calque 2"><g id="Calque_1-2" data-name="Calque 1"><path class="cls-1" d="M52,13V7.3a5.67,5.67,0,0,0-.56-2.56A4.38,4.38,0,0,0,49.9,3h0a4.13,4.13,0,0,0-2.3-.65,4.53,4.53,0,0,0-2.31.61A4.38,4.38,0,0,0,44,4.13a4.11,4.11,0,0,0-3.48-1.8,4.35,4.35,0,0,0-3.93,2.31,5.57,5.57,0,0,0-.64,2.53v0a.49.49,0,0,0,0,.12V13a.9.9,0,0,0,.27.67,1,1,0,0,0,1.37,0,1,1,0,0,0,.25-.67V7.53h0V7.16A2.92,2.92,0,0,1,38.55,5a2.61,2.61,0,0,1,2-.78,2.23,2.23,0,0,1,1.81.83A3.49,3.49,0,0,1,43,7.31V13A.94.94,0,0,0,44,14a.93.93,0,0,0,.69-.28,1,1,0,0,0,.25-.67V7.52h0V7.15A2.9,2.9,0,0,1,45.64,5a2.58,2.58,0,0,1,2-.79,2.21,2.21,0,0,1,1.81.84,3.44,3.44,0,0,1,.71,2.25V13a.92.92,0,0,0,1,.95A.91.91,0,0,0,52,13Z"/><path class="cls-1" d="M56.36,2.58a.95.95,0,1,0-1-1A.95.95,0,0,0,56.36,2.58Z"/><path class="cls-1" d="M56.36,13.94a.94.94,0,0,0,.69-.28A.93.93,0,0,0,57.3,13V4.48A1,1,0,0,0,57,3.79a1,1,0,0,0-1.63.69V13a.93.93,0,0,0,.27.68A1,1,0,0,0,56.36,13.94Z"/><path class="cls-1" d="M62.39,9.8a4.34,4.34,0,0,0,.52,2.11,3.69,3.69,0,0,0,1.45,1.48,4.44,4.44,0,0,0,2.11.55h.45a1,1,0,1,0,0-1.91h-.43a2.12,2.12,0,0,1-1.58-.62A2.2,2.2,0,0,1,64.3,9.8V5.16h2.25a.88.88,0,0,0,.63-.25.85.85,0,0,0,.25-.63.86.86,0,0,0-.88-.89H64.3V1.61A.92.92,0,0,0,64,.92a1,1,0,0,0-1.64.69V3.39H61.21a.88.88,0,0,0-.63.25.85.85,0,0,0-.26.64.88.88,0,0,0,.25.63.92.92,0,0,0,.64.25h1.18Z"/><path class="cls-1" d="M92.4,12a.91.91,0,0,0-.31-.64.83.83,0,0,0-.65-.24,1.06,1.06,0,0,0-.61.27,2.87,2.87,0,0,1-1.12.66,4.62,4.62,0,0,1-1.41.21,3.69,3.69,0,0,1-2-.52A3.79,3.79,0,0,1,85,10.28a4.3,4.3,0,0,1-.49-2.07,4.82,4.82,0,0,1,.44-2.11,3.57,3.57,0,0,1,1.24-1.42A3.3,3.3,0,0,1,88,4.17a3.69,3.69,0,0,1,2.94,1.37.89.89,0,0,0,.6.35.85.85,0,0,0,.63-.16.85.85,0,0,0,.41-.59.83.83,0,0,0-.18-.69,5.4,5.4,0,0,0-1.94-1.58h0A5.89,5.89,0,0,0,88,2.36a5.22,5.22,0,0,0-2.81.77,5.38,5.38,0,0,0-1.91,2.1,6.3,6.3,0,0,0-.69,3,6,6,0,0,0,.74,3,5.59,5.59,0,0,0,5,2.88,5.5,5.5,0,0,0,3.82-1.41A.82.82,0,0,0,92.4,12Z"/><path class="cls-1" d="M105.83,13V7.7a5.77,5.77,0,0,0-.69-2.93h0a4.72,4.72,0,0,0-1.93-1.83,5.91,5.91,0,0,0-2.71-.62,5.13,5.13,0,0,0-2.47.6,4.88,4.88,0,0,0-.92.64V1a.94.94,0,0,0-.26-.69A.93.93,0,0,0,96.17,0a1,1,0,0,0-.67.25,1,1,0,0,0-.28.7V13a.93.93,0,0,0,.27.68,1,1,0,0,0,.68.27.91.91,0,0,0,.94-.95V7a2.44,2.44,0,0,1,.43-1.4,3,3,0,0,1,1.2-1,4,4,0,0,1,1.76-.37,4,4,0,0,1,1.78.39,2.86,2.86,0,0,1,1.21,1.13,3.86,3.86,0,0,1,.45,2V13a.95.95,0,1,0,1.89,0Z"/><path class="cls-1" d="M72.18,13.29a5.77,5.77,0,0,0,2.94.75,6.11,6.11,0,0,0,2.07-.4,5.43,5.43,0,0,0,1.76-1,.89.89,0,0,0,.3-.68.85.85,0,0,0-.35-.64.93.93,0,0,0-.63-.22.91.91,0,0,0-.61.27,3.07,3.07,0,0,1-1.11.62,4.47,4.47,0,0,1-1.43.24,3.82,3.82,0,0,1-2-.51,3.59,3.59,0,0,1-1.35-1.41,4.2,4.2,0,0,1-.47-1.76,5.87,5.87,0,0,1,.45-2.46A4.13,4.13,0,0,1,72.6,5,2.59,2.59,0,0,1,73,4.68a3.25,3.25,0,0,1,1.81-.51,3.35,3.35,0,0,1,1.86.51,3.3,3.3,0,0,1,1.23,1.4,3.81,3.81,0,0,1,.33,1.1H75.41a.84.84,0,0,0-.62.24.87.87,0,0,0-.25.62.85.85,0,0,0,.87.87h3.81a1,1,0,0,0,.66-.25A.88.88,0,0,0,80.14,8a6.09,6.09,0,0,0-.67-2.91,5.06,5.06,0,0,0-1.88-2,5.58,5.58,0,0,0-5.57,0A5.36,5.36,0,0,0,70.1,5.2a6.48,6.48,0,0,0-.69,3,6.1,6.1,0,0,0,.74,3A5.38,5.38,0,0,0,72.18,13.29Z"/><path class="cls-1" d="M27.7,1.29a2.53,2.53,0,0,0-.05,3.59,2.78,2.78,0,0,0,.68.5A2.53,2.53,0,0,0,32,3.14a2.51,2.51,0,0,0-.72-1.81A2.54,2.54,0,0,0,27.7,1.29Z"/><path class="cls-1" d="M23.36,5.62l-4.64,4.55a2.54,2.54,0,0,0,0,3.59,2.72,2.72,0,0,0,.67.5,2.62,2.62,0,0,0,1.15.27,2.5,2.5,0,0,0,1.77-.73l4.65-4.54a2.55,2.55,0,0,0-3.56-3.64Z"/><path class="cls-1" d="M23.16,3.14h0a2.08,2.08,0,0,0,0-.25v.25a2.54,2.54,0,0,0-4.31-1.85L14.14,5.88,9.9,10h0l-.21.2A2.54,2.54,0,0,0,9,12a2.44,2.44,0,0,0,.4,1.4,2.51,2.51,0,0,0,.32.41,2.78,2.78,0,0,0,.68.5,2.54,2.54,0,0,0,2.92-.46l9.1-8.87A2.51,2.51,0,0,0,23.16,3.14Z"/><path class="cls-1" d="M13.46,1.33a2.54,2.54,0,0,0-3.59,0L.77,10.17A2.49,2.49,0,0,0,0,12a2.55,2.55,0,0,0,.72,1.81,2.78,2.78,0,0,0,.68.5,2.54,2.54,0,0,0,2.92-.46l9.1-8.87A2.55,2.55,0,0,0,13.46,1.33Z"/><path class="cls-1" d="M40.27,16a.29.29,0,0,0-.28.17l-1.76,3.62-1.81-3.62a.3.3,0,0,0-.28-.17.36.36,0,0,0-.23.08.32.32,0,0,0-.09.23v4.13a.29.29,0,0,0,.09.22.32.32,0,0,0,.23.09.29.29,0,0,0,.22-.09.27.27,0,0,0,.1-.22v-3l1.45,2.92a.3.3,0,0,0,.29.19.31.31,0,0,0,.28-.16l1.47-3v3a.29.29,0,0,0,.09.22.32.32,0,0,0,.23.09.31.31,0,0,0,.22-.09.29.29,0,0,0,.09-.22V16.33a.32.32,0,0,0-.09-.23A.33.33,0,0,0,40.27,16Z"/><path class="cls-1" d="M44.6,17.63a1.89,1.89,0,0,0-1.73,0,1.62,1.62,0,0,0-.59.6,1.69,1.69,0,0,0-.22.88,1.66,1.66,0,0,0,.22.87,1.48,1.48,0,0,0,.59.6,1.83,1.83,0,0,0,1.74,0,1.48,1.48,0,0,0,.59-.6,1.75,1.75,0,0,0,.21-.87,1.79,1.79,0,0,0-.21-.88A1.64,1.64,0,0,0,44.6,17.63Zm.08,2.07a1,1,0,0,1-.38.4,1.12,1.12,0,0,1-1.12,0,1,1,0,0,1-.38-.4,1.31,1.31,0,0,1,0-1.18,1,1,0,0,1,.38-.41,1.19,1.19,0,0,1,1.12,0,1,1,0,0,1,.38.41,1.31,1.31,0,0,1,0,1.18Z"/><path class="cls-1" d="M49.24,17.59a1.61,1.61,0,0,0-.76-.18,1.45,1.45,0,0,0-.72.18,1.19,1.19,0,0,0-.31.23v-.07a.31.31,0,1,0-.62,0v2.72a.29.29,0,0,0,.09.22.31.31,0,0,0,.44,0,.29.29,0,0,0,.09-.22V18.75a.7.7,0,0,1,.12-.4.91.91,0,0,1,.33-.28,1.15,1.15,0,0,1,1,0,.81.81,0,0,1,.34.32,1.09,1.09,0,0,1,.13.57v1.5a.31.31,0,1,0,.62,0V19a1.7,1.7,0,0,0-.19-.85A1.33,1.33,0,0,0,49.24,17.59Z"/><path class="cls-1" d="M53.76,17.63a1.54,1.54,0,0,0-.82-.21,1.7,1.7,0,0,0-.85.21,1.59,1.59,0,0,0-.58.6,1.79,1.79,0,0,0-.21.88,1.66,1.66,0,0,0,.22.87,1.53,1.53,0,0,0,.61.6,1.93,1.93,0,0,0,.9.22,1.8,1.8,0,0,0,.59-.11,1.94,1.94,0,0,0,.52-.26.23.23,0,0,0,.09-.19.26.26,0,0,0-.11-.2.24.24,0,0,0-.18-.07.37.37,0,0,0-.2.07,1.32,1.32,0,0,1-.71.23,1.23,1.23,0,0,1-.61-.15,1.1,1.1,0,0,1-.42-.41,1.06,1.06,0,0,1-.13-.39h2.31a.26.26,0,0,0,.28-.26,1.87,1.87,0,0,0-.18-.85A1.4,1.4,0,0,0,53.76,17.63Zm-1.89,1.21a1.15,1.15,0,0,1,.1-.33,1,1,0,0,1,.38-.42,1.1,1.1,0,0,1,.59-.15,1,1,0,0,1,.52.14.94.94,0,0,1,.33.38,1.51,1.51,0,0,1,.08.38Z"/><path class="cls-1" d="M57.9,17.62l-1,2.21L55.8,17.61a.27.27,0,0,0-.37-.14.28.28,0,0,0-.17.15.25.25,0,0,0,0,.22l1.37,2.6L56,21.81a.26.26,0,0,0,.15.39l.14,0a.25.25,0,0,0,.24-.18l1.86-4.19a.26.26,0,0,0-.15-.39A.27.27,0,0,0,57.9,17.62Z"/><path class="cls-1" d="M59.88,16a.33.33,0,0,0-.22.08.32.32,0,0,0-.09.23v4.13a.31.31,0,0,0,.31.31.3.3,0,0,0,.23-.09.29.29,0,0,0,.09-.22V16.33a.32.32,0,0,0-.09-.23A.34.34,0,0,0,59.88,16Z"/><path class="cls-1" d="M64.25,17.59a1.54,1.54,0,0,0-.75-.18,1.43,1.43,0,0,0-.72.18,1.19,1.19,0,0,0-.31.23v-.07a.28.28,0,0,0-.09-.22.3.3,0,0,0-.23-.09.31.31,0,0,0-.22.09.28.28,0,0,0-.09.22v2.72a.29.29,0,0,0,.09.22.31.31,0,0,0,.22.09.3.3,0,0,0,.23-.09.29.29,0,0,0,.09-.22V18.75a.7.7,0,0,1,.12-.4.91.91,0,0,1,.33-.28,1.11,1.11,0,0,1,.46-.1,1.15,1.15,0,0,1,.5.11.87.87,0,0,1,.34.32,1.2,1.2,0,0,1,.13.57v1.5a.29.29,0,0,0,.09.22.28.28,0,0,0,.22.09.31.31,0,0,0,.31-.31V19a1.81,1.81,0,0,0-.19-.85A1.35,1.35,0,0,0,64.25,17.59Z"/><path class="cls-1" d="M67.9,20.16h-.2a.41.41,0,0,1-.33-.16.64.64,0,0,1-.14-.41v-1.5h.52A.29.29,0,0,0,68,18a.23.23,0,0,0,.08-.18.24.24,0,0,0-.08-.19.29.29,0,0,0-.21-.08h-.52v-.87a.27.27,0,0,0-.08-.22.31.31,0,0,0-.44,0,.27.27,0,0,0-.08.22v.87h-.28a.29.29,0,0,0-.21.08.24.24,0,0,0-.08.19.23.23,0,0,0,.08.18.29.29,0,0,0,.21.08h.28v1.5a1.18,1.18,0,0,0,.14.6,1.13,1.13,0,0,0,.38.43,1,1,0,0,0,.55.15h.11a.45.45,0,0,0,.26-.08.3.3,0,0,0,.1-.22.33.33,0,0,0-.08-.22A.23.23,0,0,0,67.9,20.16Z"/><path class="cls-1" d="M71.7,17.63a1.5,1.5,0,0,0-.81-.21,1.67,1.67,0,0,0-.85.21,1.62,1.62,0,0,0-.59.6,1.79,1.79,0,0,0-.21.88,1.66,1.66,0,0,0,.23.87,1.47,1.47,0,0,0,.61.6,1.87,1.87,0,0,0,.9.22,1.85,1.85,0,0,0,.59-.11,2,2,0,0,0,.51-.26.24.24,0,0,0,.1-.19.29.29,0,0,0-.11-.2.26.26,0,0,0-.19-.07.34.34,0,0,0-.19.07,1.2,1.2,0,0,1-.32.16,1.15,1.15,0,0,1-.39.07,1.07,1.07,0,0,1-1.16-.95h2.3a.3.3,0,0,0,.21-.07.26.26,0,0,0,.07-.19,1.87,1.87,0,0,0-.18-.85A1.33,1.33,0,0,0,71.7,17.63Zm-1.88,1.21a1.15,1.15,0,0,1,.1-.33,1,1,0,0,1,.37-.42,1.16,1.16,0,0,1,.6-.15,1,1,0,0,1,.52.14.85.85,0,0,1,.32.38,1.18,1.18,0,0,1,.09.38Z"/><path class="cls-1" d="M75.32,17.4a1.4,1.4,0,0,0-1,.47v-.12a.3.3,0,0,0-.07-.23.31.31,0,0,0-.54.23v2.72a.27.27,0,0,0,.31.3.28.28,0,0,0,.23-.08.29.29,0,0,0,.07-.22V18.69a.62.62,0,0,1,.18-.46A.92.92,0,0,1,75,18a1.66,1.66,0,0,1,.7,0h.15l.12-.06a.4.4,0,0,0,.07-.13.26.26,0,0,0-.14-.29A1,1,0,0,0,75.32,17.4Z"/><path class="cls-1" d="M79.54,17.59a1.54,1.54,0,0,0-.75-.18,1.49,1.49,0,0,0-.73.18,1.19,1.19,0,0,0-.31.23v-.07a.31.31,0,0,0-.08-.22.32.32,0,0,0-.23-.09.29.29,0,0,0-.22.09.28.28,0,0,0-.09.22v2.72a.31.31,0,0,0,.31.31.32.32,0,0,0,.23-.09.33.33,0,0,0,.08-.22V18.75a.7.7,0,0,1,.12-.4.91.91,0,0,1,.33-.28,1.15,1.15,0,0,1,.46-.1,1.12,1.12,0,0,1,.5.11.89.89,0,0,1,.35.32,1.2,1.2,0,0,1,.12.57v1.5a.31.31,0,0,0,.31.31.32.32,0,0,0,.23-.09.33.33,0,0,0,.08-.22V19a1.7,1.7,0,0,0-.19-.85A1.33,1.33,0,0,0,79.54,17.59Z"/><path class="cls-1" d="M84.13,17.64a1.61,1.61,0,0,0-.85-.22,1.62,1.62,0,0,0-1.46.83,1.64,1.64,0,0,0-.22.86,1.85,1.85,0,0,0,.2.86,1.55,1.55,0,0,0,.56.6,1.51,1.51,0,0,0,1.6,0,1.5,1.5,0,0,0,.37-.34v.24a.29.29,0,0,0,.09.22.31.31,0,0,0,.22.09.32.32,0,0,0,.23-.09.29.29,0,0,0,.09-.22V19.11a1.65,1.65,0,0,0-.23-.86A1.67,1.67,0,0,0,84.13,17.64Zm.09,2.05a1,1,0,0,1-.39.41,1,1,0,0,1-.55.15,1,1,0,0,1-.55-.15,1.1,1.1,0,0,1-.39-.41,1.11,1.11,0,0,1-.14-.58,1.15,1.15,0,0,1,.14-.59,1.1,1.1,0,0,1,.39-.41,1,1,0,0,1,.55-.14,1,1,0,0,1,.55.14,1,1,0,0,1,.39.41,1.25,1.25,0,0,1,.14.59A1.21,1.21,0,0,1,84.22,19.69Z"/><path class="cls-1" d="M87.79,20.16h-.21a.41.41,0,0,1-.33-.16.63.63,0,0,1-.13-.41v-1.5h.51a.29.29,0,0,0,.21-.08.23.23,0,0,0,.08-.18.24.24,0,0,0-.08-.19.29.29,0,0,0-.21-.08h-.51v-.87a.31.31,0,0,0-.31-.31.29.29,0,0,0-.22.09.31.31,0,0,0-.08.22v.87h-.28a.29.29,0,0,0-.21.08.24.24,0,0,0-.08.19A.23.23,0,0,0,86,18a.29.29,0,0,0,.21.08h.28v1.5a1.18,1.18,0,0,0,.14.6,1.13,1.13,0,0,0,.38.43,1,1,0,0,0,.55.15h.11a.42.42,0,0,0,.26-.08.27.27,0,0,0,.1-.22.33.33,0,0,0-.08-.22A.23.23,0,0,0,87.79,20.16Z"/><path class="cls-1" d="M89.67,16.1a.36.36,0,0,0-.28.11.4.4,0,0,0-.12.29.38.38,0,0,0,.12.28.36.36,0,0,0,.28.12.41.41,0,0,0,.4-.4.4.4,0,0,0-.12-.29A.37.37,0,0,0,89.67,16.1Z"/><path class="cls-1" d="M89.67,17.44a.29.29,0,0,0-.22.09.28.28,0,0,0-.09.22v2.71a.28.28,0,0,0,.09.22.29.29,0,0,0,.22.09.31.31,0,0,0,.31-.31V17.75a.31.31,0,0,0-.31-.31Z"/><path class="cls-1" d="M94,17.63a1.75,1.75,0,0,0-.87-.21,1.78,1.78,0,0,0-.87.21,1.62,1.62,0,0,0-.59.6,1.79,1.79,0,0,0-.22.88,1.75,1.75,0,0,0,.22.87,1.48,1.48,0,0,0,.59.6,1.78,1.78,0,0,0,.87.22,1.75,1.75,0,0,0,.87-.22,1.51,1.51,0,0,0,.6-.6,1.75,1.75,0,0,0,.21-.87,1.69,1.69,0,0,0-.22-.88A1.62,1.62,0,0,0,94,17.63Zm.07,2.07a.92.92,0,0,1-.38.4,1,1,0,0,1-.56.15,1.07,1.07,0,0,1-.56-.15,1,1,0,0,1-.38-.4,1.31,1.31,0,0,1,0-1.18,1,1,0,0,1,.38-.41,1.06,1.06,0,0,1,.56-.14,1,1,0,0,1,.56.14.94.94,0,0,1,.38.41,1.31,1.31,0,0,1,0,1.18Z"/><path class="cls-1" d="M98.63,17.59a1.54,1.54,0,0,0-.75-.18,1.49,1.49,0,0,0-.73.18,1.19,1.19,0,0,0-.31.23v-.07a.31.31,0,0,0-.08-.22.3.3,0,0,0-.23-.09.29.29,0,0,0-.22.09.28.28,0,0,0-.09.22v2.72a.31.31,0,0,0,.31.31.3.3,0,0,0,.23-.09.33.33,0,0,0,.08-.22V18.75a.7.7,0,0,1,.12-.4,1.12,1.12,0,0,1,.33-.28,1.2,1.2,0,0,1,.47-.1,1.1,1.1,0,0,1,.49.11.83.83,0,0,1,.35.32,1.2,1.2,0,0,1,.12.57v1.5a.29.29,0,0,0,.09.22.32.32,0,0,0,.23.09.31.31,0,0,0,.22-.09.29.29,0,0,0,.09-.22V19a1.7,1.7,0,0,0-.2-.85A1.27,1.27,0,0,0,98.63,17.59Z"/><path class="cls-1" d="M103.22,17.64a1.61,1.61,0,0,0-.85-.22,1.66,1.66,0,0,0-1.46.83,1.83,1.83,0,0,0,0,1.72,1.51,1.51,0,0,0,2.15.6,1.54,1.54,0,0,0,.38-.34v.24a.33.33,0,0,0,.08.22.32.32,0,0,0,.23.09.31.31,0,0,0,.31-.31V19.11a1.65,1.65,0,0,0-.23-.86A1.53,1.53,0,0,0,103.22,17.64Zm.09,2.05a1,1,0,0,1-.94.56,1.06,1.06,0,0,1-.55-.15,1.18,1.18,0,0,1-.39-.41,1.21,1.21,0,0,1-.14-.58,1.25,1.25,0,0,1,.14-.59,1.18,1.18,0,0,1,.39-.41,1,1,0,0,1,.55-.14,1.06,1.06,0,0,1,.56.14,1.07,1.07,0,0,1,.38.41,1.25,1.25,0,0,1,.14.59A1.21,1.21,0,0,1,103.31,19.69Z"/><path class="cls-1" d="M106.6,20.25a.25.25,0,0,0-.2-.09h-.15A.26.26,0,0,1,106,20a.81.81,0,0,1-.08-.37V16.32a.29.29,0,0,0-.09-.22.34.34,0,0,0-.44,0,.33.33,0,0,0-.08.22v3.33a1.54,1.54,0,0,0,.11.58,1,1,0,0,0,.33.4.82.82,0,0,0,.47.14h0a.53.53,0,0,0,.3-.08.26.26,0,0,0,.12-.22A.33.33,0,0,0,106.6,20.25Z"/></g></g></svg>