<?xml version="1.0" encoding="utf-8"?>
<!-- Generator: Adobe Illustrator 25.4.1, SVG Export Plug-In . SVG Version: 6.00 Build 0)  -->
<svg version="1.1" id="Calque_1" xmlns="http://www.w3.org/2000/svg" xmlns:xlink="http://www.w3.org/1999/xlink" x="0px" y="0px"
	 viewBox="0 0 70 70" style="enable-background:new 0 0 70 70;" xml:space="preserve">
<style type="text/css">
	.st0{fill:#FFFFFF;}
</style>
<g>
	<path class="st0" d="M15.7,19.9C7.3,19.9,0.6,26.7,0.6,35c0,8.3,6.8,15.1,15.1,15.1c8.3,0,15.1-6.8,15.1-15.1
		C30.8,26.7,24,19.9,15.7,19.9z M15.7,42.9c-4.4,0-7.9-3.5-7.9-7.9s3.5-7.9,7.9-7.9c4.4,0,7.9,3.5,7.9,7.9S20,42.9,15.7,42.9z"/>
	<path class="st0" d="M69.4,31.1L69.4,31.1c-0.1-6.2-5.1-11.2-11.3-11.2H50l-2,0v0c-6.1,0-11,4.8-11.3,10.8c0,0.1,0,0.2,0,0.3h0
		c0,0,0,0,0,0v0.1c0,0,0,0,0,0h0V50h7.3v-7.6l4.8,0l0,0h0h4.6l4.3,7.7h8.9l-4.8-8.3c4.4-1.5,7.7-5.7,7.7-10.6h0
		C69.4,31.2,69.4,31.2,69.4,31.1C69.4,31.1,69.4,31.1,69.4,31.1z M58.1,35H56l-12,0.1v-3.9c0-2.1,1.8-3.8,3.9-3.8h3.3h6.9
		c2.1,0,3.9,1.7,3.9,3.8C62,33.3,60.2,35,58.1,35z"/>
</g>
</svg>
