<?xml version="1.0" encoding="utf-8"?>
<!-- Generator: Adobe Illustrator 25.4.1, SVG Export Plug-In . SVG Version: 6.00 Build 0)  -->
<svg version="1.1" id="Calque_1" xmlns="http://www.w3.org/2000/svg" xmlns:xlink="http://www.w3.org/1999/xlink" x="0px" y="0px"
	 viewBox="0 0 93 15.2" style="enable-background:new 0 0 93 15.2;" xml:space="preserve">
<style type="text/css">
	.st0{fill:#C0C7CE;}
</style>
<g>
	<g>
		<path class="st0" d="M37.6,5.1c-0.5-0.3-1-0.4-1.6-0.4s-1.1,0.1-1.6,0.4c-0.5,0.3-0.8,0.6-1.1,1C33,6.5,32.9,7,32.9,7.6
			s0.1,1.1,0.4,1.5c0.3,0.4,0.6,0.8,1.1,1c0.5,0.3,1,0.4,1.6,0.4s1.1-0.1,1.6-0.4c0.5-0.3,0.8-0.6,1.1-1c0.3-0.4,0.4-0.9,0.4-1.5
			S39,6.5,38.7,6.1C38.4,5.7,38.1,5.3,37.6,5.1z M37.5,8.5c-0.2,0.3-0.4,0.5-0.6,0.6c-0.3,0.2-0.6,0.2-0.9,0.2
			c-0.3,0-0.6-0.1-0.9-0.2c-0.3-0.2-0.5-0.4-0.6-0.6c-0.2-0.3-0.2-0.6-0.2-0.9c0-0.3,0.1-0.7,0.2-0.9c0.2-0.3,0.4-0.5,0.6-0.6
			c0.3-0.2,0.6-0.2,0.9-0.2c0.3,0,0.6,0.1,0.9,0.2c0.3,0.2,0.5,0.4,0.6,0.6c0.2,0.3,0.2,0.6,0.2,0.9C37.8,7.9,37.7,8.3,37.5,8.5z"/>
		<path class="st0" d="M44.3,5c-0.4-0.2-0.8-0.2-1.3-0.2h-2.4v5.6h1.3V8.9H43c0.5,0,0.9-0.1,1.3-0.2c0.4-0.2,0.7-0.4,0.9-0.7
			c0.2-0.3,0.3-0.7,0.3-1.1c0-0.4-0.1-0.8-0.3-1.1C44.9,5.4,44.6,5.2,44.3,5z M43.8,7.5c-0.2,0.2-0.5,0.3-0.9,0.3h-1.1v-2h1.1
			c0.4,0,0.7,0.1,0.9,0.3c0.2,0.2,0.3,0.4,0.3,0.7C44.1,7.1,44,7.4,43.8,7.5z"/>
		<polygon class="st0" points="48.2,8.1 50.8,8.1 50.8,7 48.2,7 48.2,5.8 51.1,5.8 51.1,4.8 46.9,4.8 46.9,10.4 51.2,10.4 51.2,9.4 
			48.2,9.4 		"/>
		<polygon class="st0" points="56.5,8.2 53.7,4.8 52.6,4.8 52.6,10.4 53.9,10.4 53.9,7 56.7,10.4 57.8,10.4 57.8,4.8 56.5,4.8 		"/>
		<path class="st0" d="M66.6,7.9c0.2-0.3,0.3-0.7,0.3-1.1c0-0.4-0.1-0.8-0.3-1.1c-0.2-0.3-0.5-0.5-0.9-0.7c-0.4-0.2-0.8-0.2-1.3-0.2
			H62v5.6h1.3V8.8h1.1h0.1l1.1,1.6H67l-1.3-1.8C66.1,8.4,66.4,8.2,66.6,7.9z M65.2,7.5c-0.2,0.2-0.5,0.3-0.9,0.3h-1.1v-2h1.1
			c0.4,0,0.7,0.1,0.9,0.3c0.2,0.2,0.3,0.4,0.3,0.7C65.5,7.1,65.4,7.4,65.2,7.5z"/>
		<polygon class="st0" points="69.5,8.1 72.2,8.1 72.2,7 69.5,7 69.5,5.8 72.5,5.8 72.5,4.8 68.2,4.8 68.2,10.4 72.6,10.4 72.6,9.4 
			69.5,9.4 		"/>
		<polygon class="st0" points="79.2,4.8 77.2,8.3 75,4.8 74,4.8 74,10.4 75.2,10.4 75.2,7.1 76.8,9.8 77.4,9.8 79.1,7 79.1,10.4 
			80.3,10.4 80.3,4.8 		"/>
		<rect x="81.8" y="4.8" class="st0" width="1.3" height="5.6"/>
		<polygon class="st0" points="84.5,4.8 84.5,5.8 86.3,5.8 86.3,10.4 87.6,10.4 87.6,5.8 89.4,5.8 89.4,4.8 		"/>
	</g>
	<g>
		<path class="st0" d="M9.2,1.9c-3.1,0-5.7,2.5-5.7,5.7c0,3.1,2.5,5.7,5.7,5.7c3.1,0,5.7-2.5,5.7-5.7C14.9,4.5,12.3,1.9,9.2,1.9z
			 M9.2,10.5c-1.6,0-3-1.3-3-3s1.3-3,3-3c1.6,0,3,1.3,3,3S10.9,10.5,9.2,10.5z"/>
	</g>
	<path class="st0" d="M29.4,6.1L29.4,6.1c0-2.3-1.9-4.2-4.2-4.2h-3.1l-0.8,0v0c-2.3,0-4.1,1.8-4.2,4.1c0,0,0,0.1,0,0.1h0
		c0,0,0,0,0,0v0c0,0,0,0,0,0h0v7h2.7v-2.9l1.8,0l0,0h0h1.7l1.6,2.9h3.4l-1.8-3.1C28.2,9.6,29.4,8,29.4,6.1L29.4,6.1
		C29.4,6.2,29.4,6.1,29.4,6.1C29.4,6.1,29.4,6.1,29.4,6.1z M25.1,7.6h-0.8l-4.5,0V6.1c0-0.8,0.7-1.4,1.5-1.4h1.2h2.6
		c0.8,0,1.4,0.6,1.5,1.4C26.6,6.9,25.9,7.6,25.1,7.6z"/>
</g>
</svg>
