<svg xmlns="http://www.w3.org/2000/svg" viewBox="0 0 92.96 15.17"><defs><style>.cls-1{fill:#c0c7ce;}</style></defs><g id="Calque_2" data-name="Calque 2"><g id="Calque_1-2" data-name="Calque 1"><path class="cls-1" d="M37.17,4.89a3.41,3.41,0,0,0-3.09,0,2.81,2.81,0,0,0,0,5,3.41,3.41,0,0,0,3.09,0,2.81,2.81,0,0,0,0-5Zm0,3.39a1.63,1.63,0,0,1-.62.63,1.74,1.74,0,0,1-.88.22,1.78,1.78,0,0,1-.89-.22,1.61,1.61,0,0,1-.61-.63,1.81,1.81,0,0,1-.23-.91,1.84,1.84,0,0,1,.23-.91,1.61,1.61,0,0,1,.61-.63,1.78,1.78,0,0,1,.89-.22,1.74,1.74,0,0,1,.88.22,1.63,1.63,0,0,1,.62.63,1.83,1.83,0,0,1,.22.91A1.8,1.8,0,0,1,37.13,8.28Zm6.68-3.42a3.09,3.09,0,0,0-1.27-.24H40.16v5.5h1.27V8.61h1.11a3.09,3.09,0,0,0,1.27-.24,1.92,1.92,0,0,0,.83-.7,1.85,1.85,0,0,0,.3-1,1.89,1.89,0,0,0-.3-1.07A1.83,1.83,0,0,0,43.81,4.86Zm-.47,2.46a1.35,1.35,0,0,1-.87.25h-1V5.66h1a1.35,1.35,0,0,1,.87.24.89.89,0,0,1,.3.72A.87.87,0,0,1,43.34,7.32Zm4.32.51h2.56v-1H47.66V5.64h2.9v-1H46.39v5.5h4.27v-1h-3ZM56,8,53.28,4.62H52.23v5.5h1.26V6.78l2.75,3.34h1V4.62H56Zm7.69-2.13a1.83,1.83,0,0,1,.91-.22A1.76,1.76,0,0,1,66,6.25l.82-.75a2.59,2.59,0,0,0-1-.73,3.38,3.38,0,0,0-1.3-.25A3.09,3.09,0,0,0,63,4.89,2.67,2.67,0,0,0,62,5.9a2.81,2.81,0,0,0-.39,1.47A2.81,2.81,0,0,0,62,8.84a2.67,2.67,0,0,0,1.07,1,3.08,3.08,0,0,0,1.52.37,3.38,3.38,0,0,0,1.3-.25,2.58,2.58,0,0,0,1-.74L66,8.48a1.77,1.77,0,0,1-1.39.65,1.83,1.83,0,0,1-.91-.22,1.59,1.59,0,0,1-.63-.63,1.83,1.83,0,0,1-.22-.91,1.8,1.8,0,0,1,.22-.91A1.59,1.59,0,0,1,63.72,5.83Zm5.8-1.21H68.25v5.5h4v-1H69.52Zm8.16.27a3.43,3.43,0,0,0-3.1,0,2.84,2.84,0,0,0-1.07,1,2.77,2.77,0,0,0-.39,1.46,2.77,2.77,0,0,0,.39,1.46,2.84,2.84,0,0,0,1.07,1,3.43,3.43,0,0,0,3.1,0,2.94,2.94,0,0,0,1.08-1,2.77,2.77,0,0,0,.39-1.46,2.77,2.77,0,0,0-.39-1.46A2.94,2.94,0,0,0,77.68,4.89Zm-.05,3.39a1.57,1.57,0,0,1-.62.63,1.72,1.72,0,0,1-.88.22,1.74,1.74,0,0,1-.88-.22,1.63,1.63,0,0,1-.62-.63,1.83,1.83,0,0,1-.22-.91,1.8,1.8,0,0,1,.22-.91,1.63,1.63,0,0,1,.62-.63,1.74,1.74,0,0,1,.88-.22,1.72,1.72,0,0,1,.88.22,1.57,1.57,0,0,1,.62.63,1.81,1.81,0,0,1,.23.91A1.84,1.84,0,0,1,77.63,8.28Zm6.72-.63A1.66,1.66,0,0,1,84,8.77a1.14,1.14,0,0,1-.91.36c-.82,0-1.23-.49-1.23-1.48v-3H80.61V7.7a2.48,2.48,0,0,0,.66,1.86,2.89,2.89,0,0,0,3.68,0,2.48,2.48,0,0,0,.66-1.86V4.62H84.35Zm8.23-1.73a2.56,2.56,0,0,0-1.07-1,3.51,3.51,0,0,0-1.59-.34h-2.5v5.5h2.5a3.51,3.51,0,0,0,1.59-.34,2.56,2.56,0,0,0,1.07-1A2.68,2.68,0,0,0,93,7.37,2.68,2.68,0,0,0,92.58,5.92Zm-1.4,2.7a1.89,1.89,0,0,1-1.32.46H88.69V5.66h1.17a1.89,1.89,0,0,1,1.32.46,1.62,1.62,0,0,1,.49,1.25A1.63,1.63,0,0,1,91.18,8.62Zm-66.64,2A3.79,3.79,0,1,1,22.2,3.79a3.74,3.74,0,0,1,2.34.81l.22.17,3.08-2.09-.32-.32A7.46,7.46,0,0,0,15.65,4a8.81,8.81,0,0,1,.75,3.56,8.64,8.64,0,0,1-.76,3.56,7.32,7.32,0,0,0,1.29,1.71,7.45,7.45,0,0,0,10.6,0l.32-.33-3.09-2.08ZM14.6,4.65A7.61,7.61,0,0,0,13,2.22L12.69,2A7.67,7.67,0,0,0,10,.4,8,8,0,0,0,8.43.05L8.29,0c-.23,0-.46,0-.7,0A7.6,7.6,0,0,0,0,7.58,8.47,8.47,0,0,0,.08,8.71a7.45,7.45,0,0,0,1.9,4,3.07,3.07,0,0,0,.25.26,7.51,7.51,0,0,0,5.36,2.23A7.61,7.61,0,0,0,15,9.41a7.34,7.34,0,0,0,.23-1.83A7.88,7.88,0,0,0,15,5.76,8,8,0,0,0,14.6,4.65ZM10.42,9.91a3.86,3.86,0,0,1-.49.5,3.76,3.76,0,0,1-.59.39,3.56,3.56,0,0,1-1.75.45A3.68,3.68,0,0,1,5,10.17a3.67,3.67,0,0,1-.63-4.33,3.32,3.32,0,0,1,.4-.58,3.3,3.3,0,0,1,.78-.71,3.38,3.38,0,0,1,.62-.34A3.64,3.64,0,0,1,8.06,4a3.8,3.8,0,0,1,.82.21,3.93,3.93,0,0,1,.62.3l.28.19a3.31,3.31,0,0,1,.41.35A3.6,3.6,0,0,1,11,6.18a3.54,3.54,0,0,1,.28,1.4A3.59,3.59,0,0,1,10.42,9.91Z"/></g></g></svg>