<svg xmlns="http://www.w3.org/2000/svg" viewBox="0 0 76.46 45.52"><defs><style>.cls-1{fill:#fff;opacity:0;}.cls-2{fill:#1d1d3c;}.cls-3{fill:#f60;}</style></defs><g id="Calque_2" data-name="Calque 2"><g id="Calque_1-2" data-name="Calque 1"><rect class="cls-1" width="76.46" height="45.52"/><path class="cls-2" d="M28.36,9.07a7.72,7.72,0,1,0,7.72,7.72A7.72,7.72,0,0,0,28.36,9.07Zm0,11.74a4,4,0,1,1,4-4A4,4,0,0,1,28.36,20.81Z"/><path class="cls-3" d="M55.81,14.78h0A5.77,5.77,0,0,0,50,9.07H45.88l-1,0v0a5.78,5.78,0,0,0-5.77,5.54c0,.06,0,.12,0,.17h0v.07h0v9.58h3.7V20.55h4.8l2.17,3.94H54.3l-2.44-4.25a5.77,5.77,0,0,0,3.94-5.4h0v-.07Zm-5.78,2H49l-6.12.05v-2a2,2,0,0,1,2-2H50a2,2,0,1,1,0,3.91Z"/><path class="cls-2" d="M14.2,29.54a3.62,3.62,0,0,0-3.23,0,2.9,2.9,0,0,0-1.53,2.59,2.92,2.92,0,0,0,.41,1.53A2.86,2.86,0,0,0,11,34.72a3.54,3.54,0,0,0,3.23,0,2.91,2.91,0,0,0,1.54-2.59,2.83,2.83,0,0,0-.42-1.52A2.88,2.88,0,0,0,14.2,29.54Zm0,3.55a1.67,1.67,0,0,1-.64.65,1.8,1.8,0,0,1-.92.23,1.77,1.77,0,0,1-.92-.23,1.69,1.69,0,0,1-.65-.65,2.1,2.1,0,0,1,0-1.91,1.63,1.63,0,0,1,.65-.65,1.78,1.78,0,0,1,.92-.24,1.8,1.8,0,0,1,.92.24,1.6,1.6,0,0,1,.64.65,2,2,0,0,1,0,1.91Z"/><path class="cls-2" d="M21,29.51a3.19,3.19,0,0,0-1.33-.25H17.18V35h1.34V33.42h1.15A3.19,3.19,0,0,0,21,33.17a1.89,1.89,0,0,0,.87-.72,2,2,0,0,0,.3-1.11,2.05,2.05,0,0,0-.3-1.11A2,2,0,0,0,21,29.51Zm-.49,2.57a1.41,1.41,0,0,1-.91.26H18.52v-2H19.6a1.41,1.41,0,0,1,.91.26,1,1,0,0,1,0,1.48Z"/><polygon class="cls-2" points="24.97 32.61 27.64 32.61 27.64 31.57 24.97 31.57 24.97 30.32 28 30.32 28 29.26 23.65 29.26 23.65 35.01 28.1 35.01 28.1 33.94 24.97 33.94 24.97 32.61"/><polygon class="cls-2" points="33.5 32.75 30.64 29.26 29.54 29.26 29.54 35.01 30.85 35.01 30.85 31.52 33.72 35.01 34.81 35.01 34.81 29.26 33.5 29.26 33.5 32.75"/><path class="cls-2" d="M43.73,32.45A2,2,0,0,0,44,31.34a2.06,2.06,0,0,0-.31-1.11,2,2,0,0,0-.87-.72,3.14,3.14,0,0,0-1.32-.25H39.05V35h1.33v-1.6H41.6L42.71,35h1.43l-1.29-1.85A2,2,0,0,0,43.73,32.45Zm-1.35-.37a1.38,1.38,0,0,1-.92.27H40.38v-2h1.08a1.44,1.44,0,0,1,.92.26,1,1,0,0,1,0,1.48Z"/><polygon class="cls-2" points="46.76 32.61 49.43 32.61 49.43 31.57 46.76 31.57 46.76 30.32 49.78 30.32 49.78 29.26 45.44 29.26 45.44 35.01 49.89 35.01 49.89 33.94 46.76 33.94 46.76 32.61"/><polygon class="cls-2" points="56.65 29.26 54.52 32.83 52.37 29.26 51.27 29.26 51.27 35.01 52.52 35.01 52.52 31.63 54.2 34.4 54.8 34.4 56.5 31.56 56.51 35.01 57.75 35.01 57.74 29.26 56.65 29.26"/><rect class="cls-2" x="59.21" y="29.26" width="1.33" height="5.75"/><polygon class="cls-2" points="62 29.26 62 30.34 63.84 30.34 63.84 35.01 65.18 35.01 65.18 30.34 67.02 30.34 67.02 29.26 62 29.26"/></g></g></svg>