<svg xmlns="http://www.w3.org/2000/svg" viewBox="0 0 76.88 31.7"><defs><style>.cls-1{fill:#1d1d3c;}.cls-2{fill:#f60;}</style></defs><g id="Calque_2" data-name="Calque 2"><g id="Calque_1-2" data-name="Calque 1"><path class="cls-1" d="M6.35,24.27a4.46,4.46,0,0,0-2.15-.51,4.49,4.49,0,0,0-2.15.51A3.9,3.9,0,0,0,.54,25.69a3.94,3.94,0,0,0-.54,2,3.88,3.88,0,0,0,.54,2,3.76,3.76,0,0,0,1.51,1.42,4.39,4.39,0,0,0,2.15.52,4.36,4.36,0,0,0,2.15-.52,3.82,3.82,0,0,0,1.51-1.42,3.88,3.88,0,0,0,.54-2,3.8,3.8,0,0,0-2.05-3.46ZM6.29,29a2.18,2.18,0,0,1-.86.87,2.42,2.42,0,0,1-1.23.32A2.45,2.45,0,0,1,3,29.87,2.25,2.25,0,0,1,2.11,29a2.76,2.76,0,0,1,0-2.54A2.27,2.27,0,0,1,3,25.58a2.55,2.55,0,0,1,1.23-.31,2.52,2.52,0,0,1,1.23.31,2.21,2.21,0,0,1,.86.88,2.68,2.68,0,0,1,0,2.54Z"/><path class="cls-1" d="M15.43,24.23a4.2,4.2,0,0,0-1.77-.34H10.34v7.68h1.78V29.45h1.54a4.37,4.37,0,0,0,1.77-.33,2.6,2.6,0,0,0,1.16-1A2.66,2.66,0,0,0,17,26.68a2.71,2.71,0,0,0-.41-1.49A2.64,2.64,0,0,0,15.43,24.23Zm-.65,3.43a1.87,1.87,0,0,1-1.22.34H12.12V25.34h1.44a1.87,1.87,0,0,1,1.22.34,1.22,1.22,0,0,1,.42,1A1.2,1.2,0,0,1,14.78,27.66Z"/><polygon class="cls-1" points="20.74 28.36 24.3 28.36 24.3 26.98 20.74 26.98 20.74 25.32 24.77 25.32 24.77 23.89 18.97 23.89 18.97 31.57 24.92 31.57 24.92 30.14 20.74 30.14 20.74 28.36"/><polygon class="cls-1" points="32.13 28.55 28.31 23.89 26.84 23.89 26.84 31.57 28.59 31.57 28.59 26.91 32.42 31.57 33.88 31.57 33.88 23.89 32.13 23.89 32.13 28.55"/><path class="cls-1" d="M45.78,28.15a2.61,2.61,0,0,0,.41-1.47,2.7,2.7,0,0,0-.4-1.49,2.76,2.76,0,0,0-1.16-1,4.2,4.2,0,0,0-1.77-.34H39.53v7.68h1.78V29.43h1.63l1.49,2.14h1.9L44.61,29.1A2.53,2.53,0,0,0,45.78,28.15ZM44,27.66a1.83,1.83,0,0,1-1.22.35H41.31V25.34h1.45a1.89,1.89,0,0,1,1.22.34,1.24,1.24,0,0,1,.41,1A1.22,1.22,0,0,1,44,27.66Z"/><polygon class="cls-1" points="49.83 28.36 53.4 28.36 53.4 26.98 49.83 26.98 49.83 25.32 53.87 25.32 53.87 23.89 48.06 23.89 48.06 31.57 54.01 31.57 54.01 30.14 49.83 30.14 49.83 28.36"/><polygon class="cls-1" points="63.03 23.89 60.2 28.66 57.32 23.89 55.85 23.89 55.85 31.57 57.52 31.57 57.52 27.06 59.77 30.76 60.57 30.76 62.83 26.96 62.84 31.57 64.51 31.57 64.49 23.89 63.03 23.89"/><rect class="cls-1" x="66.46" y="23.89" width="1.78" height="7.68"/><polygon class="cls-1" points="70.18 23.89 70.18 25.34 72.64 25.34 72.64 31.57 74.42 31.57 74.42 25.34 76.88 25.34 76.88 23.89 70.18 23.89"/><path class="cls-1" d="M27.75,0a7.72,7.72,0,1,0,7.72,7.71A7.71,7.71,0,0,0,27.75,0Zm0,11.74a4,4,0,1,1,4-4A4,4,0,0,1,27.75,11.74Z"/><path class="cls-2" d="M55.2,5.71h0A5.79,5.79,0,0,0,49.42,0H45.27l-1,0V0a5.78,5.78,0,0,0-5.77,5.54s0,.12,0,.17h0v.06h0v9.58h3.7V11.48H47l2.18,3.95H53.7l-2.45-4.25a5.78,5.78,0,0,0,4-5.4h0V5.71Zm-5.78,2H48.36l-6.12,0v-2a2,2,0,0,1,2-2h5.19a2,2,0,0,1,2,2A2,2,0,0,1,49.42,7.7Z"/></g></g></svg>