<svg xmlns="http://www.w3.org/2000/svg" viewBox="0 0 116.83 15.43"><defs><style>.cls-1{fill:#1d1d3c;}.cls-2{fill:#f60;}</style></defs><g id="Calque_2" data-name="Calque 2"><g id="Calque_1-2" data-name="Calque 1"><path class="cls-1" d="M46.31,4.27a4.81,4.81,0,0,0-4.31,0,3.87,3.87,0,0,0-1.5,1.42,3.94,3.94,0,0,0-.54,2,3.88,3.88,0,0,0,.54,2A3.73,3.73,0,0,0,42,11.18a4.73,4.73,0,0,0,4.31,0,3.73,3.73,0,0,0,1.5-1.42,3.79,3.79,0,0,0,.55-2,3.85,3.85,0,0,0-2-3.46ZM46.25,9a2.12,2.12,0,0,1-.86.87,2.52,2.52,0,0,1-2.46,0A2.18,2.18,0,0,1,42.07,9a2.52,2.52,0,0,1-.31-1.27,2.52,2.52,0,0,1,.31-1.27,2.27,2.27,0,0,1,.86-.88,2.6,2.6,0,0,1,2.46,0,2.21,2.21,0,0,1,.86.88,2.52,2.52,0,0,1,.31,1.27A2.52,2.52,0,0,1,46.25,9Z"/><path class="cls-1" d="M55.39,4.23a4.2,4.2,0,0,0-1.77-.34H50.3v7.68h1.78V9.45h1.54a4.37,4.37,0,0,0,1.77-.33,2.6,2.6,0,0,0,1.16-1A2.66,2.66,0,0,0,57,6.68a2.71,2.71,0,0,0-.41-1.49A2.64,2.64,0,0,0,55.39,4.23Zm-.65,3.43A1.87,1.87,0,0,1,53.52,8H52.08V5.34h1.44a1.87,1.87,0,0,1,1.22.34,1.22,1.22,0,0,1,.42,1A1.2,1.2,0,0,1,54.74,7.66Z"/><polygon class="cls-1" points="60.7 8.37 64.26 8.37 64.26 6.98 60.7 6.98 60.7 5.32 64.73 5.32 64.73 3.89 58.93 3.89 58.93 11.57 64.88 11.57 64.88 10.14 60.7 10.14 60.7 8.37"/><polygon class="cls-1" points="72.08 8.55 68.27 3.89 66.8 3.89 66.8 11.57 68.55 11.57 68.55 6.91 72.38 11.57 73.84 11.57 73.84 3.89 72.08 3.89 72.08 8.55"/><path class="cls-1" d="M85.74,8.15a2.61,2.61,0,0,0,.41-1.47,2.63,2.63,0,0,0-.41-1.49,2.67,2.67,0,0,0-1.15-1,4.22,4.22,0,0,0-1.78-.34H79.49v7.68h1.78V9.43H82.9l1.48,2.14h1.91L84.57,9.1A2.58,2.58,0,0,0,85.74,8.15Zm-1.81-.49A1.78,1.78,0,0,1,82.72,8H81.27V5.34h1.45a1.84,1.84,0,0,1,1.21.34,1.22,1.22,0,0,1,.42,1A1.2,1.2,0,0,1,83.93,7.66Z"/><polygon class="cls-1" points="89.79 8.37 93.35 8.37 93.35 6.98 89.79 6.98 89.79 5.32 93.83 5.32 93.83 3.89 88.02 3.89 88.02 11.57 93.97 11.57 93.97 10.14 89.79 10.14 89.79 8.37"/><polygon class="cls-1" points="102.99 3.89 100.16 8.66 97.28 3.89 95.81 3.89 95.81 11.57 97.48 11.57 97.48 7.06 99.73 10.76 100.53 10.76 102.79 6.96 102.8 11.57 104.47 11.57 104.44 3.89 102.99 3.89"/><rect class="cls-1" x="106.42" y="3.89" width="1.78" height="7.68"/><polygon class="cls-1" points="110.14 3.89 110.14 5.34 112.6 5.34 112.6 11.57 114.38 11.57 114.38 5.34 116.83 5.34 116.83 3.89 110.14 3.89"/><path class="cls-1" d="M7.71,0a7.72,7.72,0,1,0,7.72,7.71A7.71,7.71,0,0,0,7.71,0Zm0,11.74a4,4,0,1,1,4-4A4,4,0,0,1,7.71,11.74Z"/><path class="cls-2" d="M35.16,5.71h0A5.79,5.79,0,0,0,29.38,0H25.23l-1,0V0a5.78,5.78,0,0,0-5.77,5.54s0,.12,0,.17h0v.06h0v9.58h3.7V11.48h4.8l2.18,3.95h4.56l-2.44-4.25a5.8,5.8,0,0,0,3.95-5.4h0V5.71Zm-5.78,2H28.32l-6.12,0v-2a2,2,0,0,1,2-2h5.19a2,2,0,0,1,2,2A2,2,0,0,1,29.38,7.7Z"/></g></g></svg>