<svg xmlns="http://www.w3.org/2000/svg" viewBox="0 0 159.7 15.43"><defs><style>.cls-1{fill:#1d1d3c;}.cls-2{fill:#f60;}</style></defs><g id="Calque_2" data-name="Calque 2"><g id="Calque_1-2" data-name="Calque 1"><path class="cls-1" d="M65.19,3.86l-2.52,7.7H60.75L59.06,6.35l-1.75,5.21h-1.9l-2.53-7.7h1.85l1.73,5.42,1.82-5.42h1.65l1.76,5.46,1.79-5.46Z"/><path class="cls-1" d="M68.19,11.18a3.76,3.76,0,0,1-1.51-1.42,4.08,4.08,0,0,1,0-4.09,3.76,3.76,0,0,1,1.51-1.42,4.42,4.42,0,0,1,2.16-.52,4.36,4.36,0,0,1,2.15.52,3.83,3.83,0,0,1,2.06,3.46,3.84,3.84,0,0,1-2.06,3.47,4.47,4.47,0,0,1-2.15.52A4.54,4.54,0,0,1,68.19,11.18Zm3.39-1.32A2.12,2.12,0,0,0,72.44,9a2.7,2.7,0,0,0,0-2.55,2.14,2.14,0,0,0-.86-.88,2.44,2.44,0,0,0-1.23-.31,2.39,2.39,0,0,0-1.23.31,2.23,2.23,0,0,0-.87.88,2.54,2.54,0,0,0-.31,1.27A2.55,2.55,0,0,0,68.25,9a2.21,2.21,0,0,0,.87.87,2.4,2.4,0,0,0,1.23.32A2.45,2.45,0,0,0,71.58,9.86Z"/><path class="cls-1" d="M81.34,11.56,79.86,9.42H78.22v2.14H76.43V3.86h3.34a4.36,4.36,0,0,1,1.77.34,2.6,2.6,0,0,1,1.16,1,2.63,2.63,0,0,1,.41,1.49,2.67,2.67,0,0,1-.41,1.48,2.7,2.7,0,0,1-1.17.95l1.72,2.47Zm-.45-5.9a1.89,1.89,0,0,0-1.22-.34H78.22V8h1.45a1.89,1.89,0,0,0,1.22-.35,1.23,1.23,0,0,0,.42-1A1.22,1.22,0,0,0,80.89,5.66Z"/><path class="cls-1" d="M85.05,3.86h1.78v6.25h3.86v1.45H85.05Z"/><path class="cls-1" d="M92.22,3.86h3.5a4.9,4.9,0,0,1,2.22.48,3.55,3.55,0,0,1,1.49,1.35,3.74,3.74,0,0,1,.54,2,3.78,3.78,0,0,1-.54,2,3.55,3.55,0,0,1-1.49,1.35,4.9,4.9,0,0,1-2.22.47h-3.5Zm3.41,6.24a2.6,2.6,0,0,0,1.85-.64,2.3,2.3,0,0,0,.68-1.75A2.3,2.3,0,0,0,97.48,6a2.6,2.6,0,0,0-1.85-.64H94V10.1Z"/><path class="cls-1" d="M107.26,5.29v2h3.57V8.76h-3.57v2.8h-1.78V3.86h5.82V5.29Z"/><path class="cls-1" d="M117.79,9.91h-3.57l-.69,1.65h-1.82l3.43-7.7h1.76l3.44,7.7h-1.87Zm-.56-1.35L116,5.61l-1.22,3Z"/><path class="cls-1" d="M122.44,11.45a4.26,4.26,0,0,1-1.37-.64l.6-1.35a4.08,4.08,0,0,0,1.18.59,4.67,4.67,0,0,0,1.37.22,2.18,2.18,0,0,0,1.12-.23.68.68,0,0,0,.36-.6.6.6,0,0,0-.21-.46,1.9,1.9,0,0,0-.55-.29c-.23-.07-.53-.15-.91-.24A12.05,12.05,0,0,1,122.59,8a2.23,2.23,0,0,1-1-.67,1.81,1.81,0,0,1-.41-1.23,2.11,2.11,0,0,1,.37-1.22,2.4,2.4,0,0,1,1.09-.86,4.55,4.55,0,0,1,1.79-.32,5.8,5.8,0,0,1,1.44.18,4,4,0,0,1,1.23.5l-.55,1.36a4.22,4.22,0,0,0-2.13-.61,2,2,0,0,0-1.11.24A.73.73,0,0,0,123,6a.61.61,0,0,0,.41.59,6.5,6.5,0,0,0,1.26.38,13.28,13.28,0,0,1,1.44.42,2.44,2.44,0,0,1,1,.66,1.76,1.76,0,0,1,.4,1.22,2.05,2.05,0,0,1-.37,1.2,2.38,2.38,0,0,1-1.1.87,4.55,4.55,0,0,1-1.79.32A6.52,6.52,0,0,1,122.44,11.45Z"/><path class="cls-1" d="M130.71,5.32h-2.47V3.86H135V5.32h-2.46v6.24h-1.78Z"/><path class="cls-1" d="M141.55,4.2a2.65,2.65,0,0,1,1.16,1,2.71,2.71,0,0,1,.41,1.49,2.7,2.7,0,0,1-.41,1.48,2.65,2.65,0,0,1-1.16,1,4.38,4.38,0,0,1-1.78.33h-1.55v2.12h-1.78V3.86h3.33A4.38,4.38,0,0,1,141.55,4.2Zm-.65,3.44a1.22,1.22,0,0,0,.41-1,1.24,1.24,0,0,0-.41-1,1.9,1.9,0,0,0-1.23-.34h-1.45V8h1.45A1.9,1.9,0,0,0,140.9,7.64Z"/><path class="cls-1" d="M149.6,9.91H146l-.68,1.65h-1.83L147,3.86h1.76l3.44,7.7h-1.87ZM149,8.56l-1.22-2.95-1.22,3Z"/><path class="cls-1" d="M156.71,8.84v2.72h-1.79V8.81l-3-5h1.89l2.06,3.42L158,3.86h1.75Z"/><path class="cls-2" d="M32,0h5A6.08,6.08,0,0,1,43,6h0v.07h0a6.08,6.08,0,0,1-6.07,6H35.66c-1.1,0-.94-.16-.94.94v2.31H30.79V13.2c0-2.65,0-5.11,4.87-5.11h1.28A2.1,2.1,0,0,0,39,6,2.09,2.09,0,0,0,36.94,4H32"/><path class="cls-1" d="M29.59,0h-2.4A6.1,6.1,0,0,0,21.1,5.85a1.24,1.24,0,0,0,0,.18h0v.08h0v.26h0v4.27a1.31,1.31,0,0,1-1.28,1.28,1.2,1.2,0,0,1-1.2-.94l-1.87-7.6A3.85,3.85,0,0,0,13,.48a4.09,4.09,0,0,0-1.17.19A3.82,3.82,0,0,0,9.11,4.32v6.32a1.31,1.31,0,0,1-1.28,1.28A1.2,1.2,0,0,1,6.63,11L4,.45H0l2.73,11a5.4,5.4,0,0,0,5.27,4,5.05,5.05,0,0,0,5-5l0-5.27V4.93l2,7.59c1.05,2.71,2.5,2.91,4.9,2.91h.17a5.05,5.05,0,0,0,5-5V6.44h0V6.07A2.11,2.11,0,0,1,27.19,4h3.65V0Z"/></g></g></svg>